<?xml version="1.0" encoding="utf-8"?>
<!-- Generator: Adobe Illustrator 15.0.0, SVG Export Plug-In . SVG Version: 6.00 Build 0)  -->
<!DOCTYPE svg PUBLIC "-//W3C//DTD SVG 1.1//EN" "http://www.w3.org/Graphics/SVG/1.1/DTD/svg11.dtd">
<svg version="1.1" id="Layer_1" xmlns="http://www.w3.org/2000/svg" xmlns:xlink="http://www.w3.org/1999/xlink" x="0px" y="0px"
	 width="46.571px" height="114.248px" viewBox="168.265 74.794 46.571 114.248"
	 enable-background="new 168.265 74.794 46.571 114.248" xml:space="preserve">
<title>human figure</title>
<g>
	<title>Layer 1</title>
	<path id="path14" fill="#000000" d="M191.55,74.794c7.523,0,13.623,6.1,13.623,13.622c0,7.522-6.1,13.623-13.623,13.623
		c-7.521,0-13.622-6.1-13.622-13.623C177.928,80.894,184.028,74.794,191.55,74.794L191.55,74.794z M170.825,107.023h2.063
		c1.409,0,2.561,1.155,2.561,2.561v35.301c0,1.406-1.154,2.561-2.561,2.561h-2.063c-1.406,0-2.56-1.151-2.56-2.561v-35.301
		C168.265,108.175,169.417,107.023,170.825,107.023L170.825,107.023z M210.212,107.023h2.062c1.409,0,2.561,1.155,2.561,2.561
		v35.301c0,1.406-1.154,2.561-2.561,2.561h-2.062c-1.407,0-2.561-1.151-2.561-2.561v-35.301
		C207.651,108.175,208.803,107.023,210.212,107.023L210.212,107.023z M183.71,104.532h15.68c2.875,0,5.227,2.352,5.227,5.227
		c0,24.685,0,49.372,0,74.057c0,2.875-2.352,5.227-5.227,5.227h-6.027v-37.359h-3.624v37.359h-6.029
		c-2.875,0-5.227-2.353-5.227-5.227c0-24.685,0-49.372,0-74.057C178.483,106.884,180.835,104.532,183.71,104.532L183.71,104.532z"/>
</g>
</svg>
