<?xml version="1.0" encoding="utf-8"?>
<!-- Generator: Adobe Illustrator 15.0.0, SVG Export Plug-In . SVG Version: 6.00 Build 0)  -->
<!DOCTYPE svg PUBLIC "-//W3C//DTD SVG 1.1//EN" "http://www.w3.org/Graphics/SVG/1.1/DTD/svg11.dtd">
<svg version="1.1" id="Layer_1" xmlns="http://www.w3.org/2000/svg" xmlns:xlink="http://www.w3.org/1999/xlink" x="0px" y="0px"
	 width="500px" height="401px" viewBox="0 0 500 401" enable-background="new 0 0 500 401" xml:space="preserve">
<g id="admin2">
	<path fill="#F6F3F0" stroke="#000000" stroke-linejoin="round" d="M611.719-99.797l5.562-0.172l0,0l0,0l2.779-0.087l0,0
		l-0.085-2.781l2.776-0.085l5.563-0.173l2.779-0.087l-0.085-2.78l2.781-0.087l0,0l2.781-0.085l0,0l0.086,2.779l0,0l0,0l0,0l0,0l0,0
		l0,0l0,0l0,0l0,0l2.779-0.086l0.086,2.781l0,0l0,0l0,0l0,0l2.783-0.086l0,0l0.087,2.78l-0.087-2.78l2.78-0.087l-0.086-2.78
		l2.865,2.694l2.696-2.867l2.692-2.866l2.782-0.086l-2.869-2.695l-2.865-2.695l2.865,2.695l-2.692,2.867l-2.782,0.086l-0.086-2.78
		l-2.779,0.086l-2.866-2.696l-2.783,0.086l-0.086-2.778l-0.086-2.782l-0.087-2.781l-2.866-2.694l0,0l0,0l0,0l-2.779,0.086
		l0.086,2.78l0,0l0,0l0,0l0,0l0,0l0,0l0,0l0,0l0.086,2.78l0,0l-2.781,0.086l-2.781,0.086l-2.777,0.086l-2.699,2.87l0,0l-2.777,0.085
		l-2.78,0.085l0,0l-2.782,0.086l0.087,2.779l-2.78,0.086l0,0l0,0l-2.778,0.086l0,0l0.085,2.782l0.087,2.78l0.086,2.781l0.087,2.781
		l0,0l0.086,2.779L611.719-99.797z"/>
	<path fill="#F6F3F0" stroke="#000000" stroke-linejoin="round" d="M323.238-68.583l5.562-0.172l2.779-0.086l5.562-0.172
		l2.778-0.086l5.562-0.172l2.694-2.868l5.562-0.172l2.778-0.087l5.562-0.172l2.779-0.086l5.56-0.172l2.78-0.086l2.78-0.086
		l5.564-0.172l2.777-0.086l-0.087-2.78l-0.085-2.78l-0.086-2.781l-2.866-2.695l-2.781,0.086l-2.781,0.085l-0.087-2.78l-5.646-2.608
		l-0.088-2.78l-5.558,0.173l-0.172-5.562l-0.087-2.78l-0.087-2.782l-0.086-2.778l-0.086-2.784l-2.866-2.694l2.692-2.866l2.778-0.086
		l-0.087-2.779l-0.086-2.782l-0.086-2.78l-0.174-5.562l2.784-0.086l2.692-2.867l2.781-0.086l2.695-2.865l2.696-2.87l2.777-0.085
		l-0.087-2.778l5.561-0.173l2.781-0.086l2.609-5.648l-0.086-2.781l2.694-2.866l-0.085-2.781l-2.782,0.086l-2.78,0.086l-2.782,0.086
		l-5.561,0.172l-2.864-2.694l0.085,2.781l-2.781,0.086l-5.562,0.173l0,0l-2.865-2.694l-2.781,0.086l-2.777,0.085l-2.867-2.694
		l-2.785,0.086l-2.863-2.695l-2.78,0.086l-2.692,2.867l-2.781,0.087l-2.868-2.695l-2.779,0.087l-2.781,0.085l-2.864-2.692
		l-0.087-2.781l-2.955-5.475l-2.779,0.087l0.085,2.781l0.173,5.562l-5.562,0.172l-2.78,0.085l-5.563,0.173l-5.557,0.172
		l-2.783,0.086l0,0l0.085,2.78l0.087,2.78l0.087,2.781l0.087,2.78l0.085,2.781l2.956,5.474l0.087,2.782l2.865,2.695l0.086,2.778
		l0.086,2.782l0.087,2.78l0.085,2.78l0.087,2.781l0.173,5.56l2.777-0.086l0.173,5.561l0.087,2.78l-2.693,2.867l0.088,2.783
		l2.862,2.692l2.871,2.695l0.088,2.781l0.171,5.561l0.086,2.781l0.087,2.78l0.172,5.562l0.086,2.782l0.173,5.559l0.086,2.781
		L323.238-68.583z"/>
	<path fill="#F6F3F0" stroke="#000000" stroke-linejoin="round" d="M224.97-96.15l-0.086-2.782l-0.086-2.777l-0.173-5.564
		l2.609-5.646l-0.087-2.782l-0.085-2.78l-0.087-2.779l-0.086-2.782l-0.086-2.781l-0.086-2.779l-0.086-2.783l-0.087-2.778
		l-0.086-2.78l-0.172-5.562l-0.086-2.781l-0.086-2.781l2.694-2.867l-0.085-2.781l-0.087-2.781l-0.086-2.778l-0.086-2.781
		l-5.562,0.172l-2.778,0.086l-5.562,0.172l-5.562,0.172l-5.645-2.607l-5.563,0.172l-2.779,0.086l-5.562,0.173l-5.561,0.173
		l-5.56,0.172l-5.648-2.609l-2.784,0.086l-5.56,0.172l-2.779,0.086l-5.561,0.172l-5.645-2.608l-2.784,0.087l-5.56,0.172
		l-5.647-2.609l-5.562,0.173l-2.78,0.087l-5.561,0.172l-5.649-2.607l-5.56,0.173l-5.561,0.171l-2.868-2.694l-5.56,0.172l-5.56,0.173
		l0.086,2.78l0.086,2.781l-2.608,5.648l0.085,2.782l0.087,2.779l2.866,2.695l0.087,2.779l0.086,2.781l0.086,2.781l2.867,2.693
		l2.866,2.694l0.086,2.781l2.868,2.694l0.086,2.782l2.778-0.087l0.086,2.781l0.086,2.778l-2.691,2.869l0.086,2.779l0.086,2.78
		l-2.696,2.869l0.087,2.78l2.781-0.087l2.778-0.086l2.783-0.087l0.086,2.781l0.086,2.782l2.867,2.693l0.086,2.78l0.086,2.781
		l2.865,2.696l0.086,2.778l0.086,2.781l2.781-0.085l2.78-0.086l2.781-0.086l2.78-0.086l2.782-0.087l2.779-0.085l2.781-0.086
		l2.695-2.869l0.087,2.782l2.779-0.086l-0.086-2.782l2.693-2.864l5.563-0.173l2.779-0.087l2.783-0.086l5.644,2.605l2.784-0.086
		l5.558-0.172l2.783-0.086l5.56-0.173l2.782-0.087l2.866,2.696l5.561-0.172l2.78-0.087l5.563-0.173l2.779-0.086l5.561-0.172
		l2.782-0.087l2.865,2.695l5.561-0.172l2.781-0.086l5.562-0.173l2.778-0.086L224.97-96.15z"/>
	<path fill="#F6F3F0" stroke="#000000" stroke-linejoin="round" d="M294.141-109.43l2.776-0.085l2.782-0.086l2.781-0.087
		l2.781-0.086l2.778-0.087l2.783-0.086l2.779-0.087l2.691-2.866l-0.173-5.561l-2.777,0.086l-0.173-5.56l-0.087-2.781l-0.085-2.78
		l-0.087-2.78l-0.086-2.782l-0.086-2.778l-2.865-2.695l-0.087-2.782l-2.956-5.474l-0.085-2.781l-0.087-2.78l-0.087-2.781
		l-0.087-2.78l-0.085-2.78l0,0l-5.56,0.173l-5.562,0.173l-2.779,0.086l-5.562,0.172l-5.56,0.173l-5.56,0.172l-5.56,0.172
		l-2.783,0.086l-5.564,0.172l-5.561,0.172l-5.557,0.172l-5.646-2.609l-2.784,0.086l-5.559,0.172l-5.565,0.173l-2.778,0.086
		l0.086,2.781l0.086,2.778l0.087,2.781l0.085,2.781l-2.694,2.867l0.086,2.781l0.086,2.781l0.172,5.562l0.086,2.78l0.087,2.778
		l0.086,2.783l0.086,2.779l0.086,2.781l0.086,2.782l0.087,2.779l0.085,2.78l0.087,2.782l2.867,2.694l2.778-0.087l2.784-0.086
		l2.782-0.086l2.779-0.086l2.78-0.086l2.783-0.087l2.779-0.085l2.867,2.693l2.78-0.086l2.777-0.086l2.782-0.086l2.778-0.087
		l2.781-0.086l2.782-0.086l2.782-0.086l2.779-0.086l2.781-0.086l2.777-0.086l2.78-0.086l2.783-0.086l2.777-0.086l2.782-0.086
		L294.141-109.43z"/>
	<path fill="#F6F3F0" stroke="#000000" stroke-linejoin="round" d="M-578.463,112.462l2.778-0.086l2.781-0.086l2.782-0.086
		l2.694-2.868l-0.086-2.781l-2.867-2.693l-0.086-2.782l-0.086-2.78l-2.954-5.476l0,0l-2.869-2.694l-2.604,5.647l-2.781,0.086
		l0.086,2.78l0.085,2.781l-2.695,2.868l0.085,2.78l0.086,2.781l2.868,2.695L-578.463,112.462z M-573.938,78.922l-0.086-2.78
		l-2.868-2.695l-2.777,0.086l-0.087-2.781l-2.781,0.087l0.086,2.781l2.867,2.695l0.086,2.78l2.864,2.694L-573.938,78.922z
		 M-585.578,62.585l-0.085-2.78l-2.693,2.866l2.864,2.692l2.782-0.086L-585.578,62.585z M-591.483,51.634l-0.086-2.781l-2.868-2.694
		l-2.779,0.086l0.086,2.781l0.086,2.781l2.779-0.086l2.868,2.694L-591.483,51.634z M-606.163,27.041l-0.087-2.779l0,0l-2.866-2.696
		l-2.695,2.868l0.086,2.78l2.868,2.694L-606.163,27.041z"/>
	<path fill="#F6F3F0" stroke="#000000" stroke-linejoin="round" d="M134.42-54.377l-0.172-5.562l2.697-2.865l-0.172-5.562
		l-0.172-5.56l-0.173-5.562l2.606-5.646l-3.038-8.256l-0.087-2.782l-2.695,2.869l-2.781,0.086l-2.779,0.085l-2.782,0.087
		l-2.78,0.086l-2.781,0.086l-2.78,0.086l-2.781,0.085l-0.086-2.781l-0.086-2.778l-2.865-2.696l-0.086-2.781l-0.086-2.78
		l-2.867-2.693l-0.086-2.782l-0.086-2.781l-2.783,0.087l-2.778,0.086l-2.781,0.087l-0.087-2.78l2.696-2.869l-0.086-2.78
		l-0.086-2.779l2.691-2.869l-0.086-2.778l-0.086-2.781l-2.778,0.087l-0.086-2.782l-2.868-2.694l-0.086-2.781l-2.866-2.694
		l-2.867-2.693l-0.086-2.781l-0.086-2.781l-0.087-2.779l-2.866-2.695l-0.087-2.779l-0.085-2.782l2.608-5.648l-0.086-2.781
		l-0.086-2.78l-2.867-2.695l-2.781,0.086l-5.56,0.171l0.086,2.782l0.173,5.562l-2.609,5.647l0.086,2.782l-2.608,5.647l0.172,5.56
		l-2.606,5.647l0.172,5.562l0.173,5.562l0.087,2.781l0.085,2.778l0,0l0.086,2.783l2.866,2.693l-2.694,2.867l0.087,2.782
		l-2.695,2.865l0.086,2.779l-2.696,2.869l-2.693,2.866l0.086,2.78l-2.782,0.086l0.173,5.563l2.782-0.086l0.086,2.777l-2.695,2.868
		l0.086,2.78l0.172,5.562l-2.692,2.867l0.086,2.78l0.086,2.78l-2.608,5.649l0.086,2.779l0.086,2.78l0.172,5.56l2.781-0.086
		l5.561-0.172l5.648,2.608l2.781-0.086l5.561-0.172l5.646,2.609l2.78-0.086l5.562-0.172l5.561-0.173l2.869,2.692l5.559-0.172
		l5.56-0.172l5.647,2.609l2.781-0.087l5.563-0.173L134.42-54.377z"/>
	<path fill="#F6F3F0" stroke="#000000" stroke-linejoin="round" d="M73.618-130.419l-0.087-2.781l-0.173-5.562l-0.172-5.562
		l2.606-5.647l-0.172-5.56l2.608-5.647l-0.086-2.782l2.609-5.647l-0.173-5.562l-0.086-2.782l-2.868-2.692l-5.559,0.172l-5.564,0.172
		l-2.866-2.695l-5.561,0.173l-5.648-2.608l-2.78,0.086l-5.646-2.608l-5.562,0.172l-5.647-2.606l-2.779,0.086l-5.649-2.608
		l-5.561,0.172l0.086,2.781l0.087,2.779l0.085,2.781l-2.696,2.867l2.869,2.694l0.086,2.78l0.086,2.781l-2.783,0.087l0.086,2.78
		l0.086,2.781l-2.692,2.867l-2.78,0.086l0.085,2.78l-2.781,0.086l-0.086-2.78l2.782-0.086l-2.695,2.866l2.695-2.866l2.694-2.867
		l-0.086-2.78l-0.086-2.781l-2.694,2.867l-2.781,0.086l0.085,2.781l-2.779,0.085l2.779-0.085l2.695-2.867l2.694-2.867l-0.085-2.782
		l-0.087-2.78l-2.781,0.087l-0.086-2.781l-2.781,0.087l-2.779,0.085l-2.867-2.694l-2.781,0.086l-2.865-2.695l-2.868-2.693
		l0.085,2.779l-2.693,2.868l2.953,5.475l0.086,2.78l0.086,2.781l0.172,5.562l0.087,2.78l0.086,2.781l-2.78,0.085l0.086,2.782
		l2.78-0.086l0.086,2.779l-2.693,2.868l-0.086-2.781l0.086,2.781l0.085,2.778l2.78-0.085l2.868,2.694l2.779-0.085l2.868,2.694
		l0.085,2.78l0.086,2.781l0.086,2.781l2.868,2.695l2.779-0.087l5.562-0.173l2.778-0.086l2.869,2.695l2.781-0.086l2.781-0.086
		l2.778-0.087l2.783-0.086l5.56-0.171l2.782-0.086l2.779-0.086l5.563-0.173l2.778-0.086l2.866,2.695l2.782-0.086l2.782-0.087
		l2.779-0.085l2.868,2.691l5.562-0.172l2.781-0.086L73.618-130.419z M16.538-175.966l-0.086-2.779l0,0L16.538-175.966l0.086,2.782
		L16.538-175.966z"/>
	<path fill="#F6F3F0" stroke="#000000" stroke-linejoin="round" d="M146.02,140.085l-0.086-2.781l-0.086-2.78l-0.173-5.562
		l-0.086-2.779l-0.087-2.779l-0.085-2.782l-0.087-2.781l-0.086-2.781l2.693-2.868l-0.086-2.78l-0.085-2.779l-0.086-2.781
		l-0.173-5.559l-0.086-2.781l-0.086-2.781l-0.085-2.779l-0.087-2.782l2.695-2.867l-0.086-2.78l-0.087-2.782l-0.085-2.78l-0.087-2.78
		l-0.172-5.562l-0.086-2.78l-0.085-2.78l2.695-2.866l-0.087-2.78l-0.086-2.78l-0.086-2.781l-0.086-2.781l-0.086-2.782l-2.953-5.472
		l-5.561,0.172l-2.78,0.086l-5.562,0.173l-2.779,0.086l-5.648-2.608l-2.781,0.086l-5.562,0.173l-5.56,0.172l-2.868-2.695
		l-5.56,0.173l-2.781,0.086l-5.56,0.172l-2.781,0.086l-5.646-2.609l-2.782,0.086l0,0l0.087,2.781l-2.608,5.648l0.086,2.778
		l0.086,2.78l0,0l-2.693,2.867l-2.868-2.695l-2.782,0.086l-2.779,0.087l2.866,2.695l-2.693,2.867l0.172,5.562l0.086,2.78
		l0.086,2.779l0.086,2.78l0.085,2.78l0.086,2.781l0.086,2.78l2.866,2.695l2.782-0.086l-2.696,2.867l-2.693,2.868l-2.696,2.866
		l0.087,2.781l0.086,2.782L66.7,95.232l0.086,2.78l0.086,2.782l2.865,2.692l-2.693,2.867l-2.781,0.086l0,0l-2.695,2.868l5.648,2.605
		l5.733,5.39l5.648,2.608l5.647,2.607l8.427,2.523l5.647,2.607l5.647,2.607l5.734,5.389l2.778-0.085l2.868,2.693l5.561-0.172
		l2.782-0.086l2.78-0.086l2.78-0.086l2.781-0.086l2.782-0.086l2.865,2.696l5.563-0.173L146.02,140.085z"/>
	<path fill="#F6F3F0" stroke="#000000" stroke-linejoin="round" d="M67.045,106.354l2.693-2.867l-2.865-2.692l-0.086-2.782
		l-0.086-2.78l2.693-2.866l-0.086-2.782l-0.087-2.781l2.696-2.866l2.693-2.868l2.696-2.867l-2.782,0.086l-2.866-2.695l-0.086-2.78
		l-0.086-2.781l-0.085-2.78l-2.869-2.694l-2.866-2.693l-2.867-2.694l-0.086-2.779l-2.869-2.695l-2.866-2.695l-0.086-2.781
		l-2.865-2.694l-2.868-2.692l-0.085-2.78l-2.868-2.695l-0.086-2.781l-2.866-2.694l-2.868-2.695l-2.866-2.694l-0.086-2.779
		l-2.866-2.693l-2.87-2.696l-0.086-2.779l-2.864-2.694l-2.867-2.695l-2.953-5.474l-2.869-2.696l-2.865-2.693L16.325-3.4l-0.172-5.56
		l-2.868-2.696l-2.951-5.473l-0.086-2.783l-0.086-2.779l2.693-2.866l-0.087-2.78l-0.085-2.781l2.694-2.866l-0.087-2.782
		l-0.172-5.559l-0.086-2.782l2.694-2.868l-0.086-2.778l-0.087-2.782l-0.085-2.781l2.692-2.865l-0.086-2.781l-0.172-5.56
		l-2.779,0.086l-2.781,0.087l-2.781,0.085l-2.865-2.695l-5.563,0.173l-2.779,0.085l-2.867-2.694l-2.78,0.085l-2.781,0.086
		l-2.867-2.695l-2.78,0.086l-5.562,0.173l-2.867-2.693l-2.778,0.085l-2.781,0.087l-2.867-2.694l-2.694,2.867l0.086,2.78l0.086,2.78
		l0.087,2.782l0.086,2.781l-2.695,2.865l0.087,2.78l-2.694,2.868l0.086,2.779l-2.696,2.867l0.087,2.782l2.867,2.692l0.086,2.782
		l0.173,5.562l0.086,2.78l0.086,2.782l0.086,2.78l0.086,2.78l0.086,2.781l0.086,2.779l2.954,5.477l0.085,2.78l2.868,2.694
		l0.085,2.781l-0.085-2.781l0.085,2.781l2.866,2.694l0.085,2.78l2.696-2.866l-0.086-2.781l2.867,2.694l0,0l-2.781,0.086l0.086,2.779
		l2.867,2.695l0.172,5.562l-2.867-2.697l-0.087-2.779l-2.868-2.695l0.173,5.561l0.086,2.782l0.086,2.78l0.086,2.78l2.868,2.695
		l2.781-0.086l0.173,5.559l-2.781,0.086l0.087,2.782l0.086,2.779l2.867,2.694l0.085,2.78l0.087,2.781l2.865,2.695l0.086,2.782
		l2.868,2.694l0.085,2.78l2.868,2.693l0.085,2.78l0.087,2.782l0.086,2.78l0.087,2.782l0.085,2.78l2.781-0.087l2.867,2.695
		l5.562-0.173L1.8,66.628l0.086,2.781l2.781-0.086l2.865,2.693l2.868,2.695l2.781-0.086l2.865,2.695l0.087,2.78l2.781-0.085
		l2.953,5.475l2.865,2.694l0,0l2.955,5.477l0.086,2.779l0.086,2.78l0.086,2.782l2.867,2.691l2.78-0.086l5.562-0.173l2.779-0.086
		l2.779-0.087l2.782-0.085l2.78-0.086l2.868,2.695l2.78-0.086l5.559-0.172l2.782-0.086L67.045,106.354z M-14.259-2.452l-2.781,0.086
		l-2.868-2.693l-2.778,0.086l2.778-0.086l2.868,2.693L-14.259-2.452z"/>
	<path fill="#F6F3F0" stroke="#000000" stroke-linejoin="round" d="M248.746,42.269l-0.087-2.78l-0.086-2.778l-0.087-2.78
		l-0.172-5.562l-0.086-2.781l-0.086-2.781l-0.087-2.781l-0.086-2.78l-0.087-2.779l-0.172-5.561l2.697-2.867l-0.086-2.781
		l-0.087-2.78l-0.086-2.779l-0.172-5.562l-0.088-2.781l-0.086-2.779l-0.086-2.781l-0.172-5.561l-0.087-2.779l-2.782,0.086
		l-5.56,0.172l-2.781,0.087l-2.784,0.086l-2.777,0.086l-2.781,0.087l-2.781,0.085l-2.778,0.087l-5.563,0.172l-2.781,0.085
		l-5.56,0.173l-2.865-2.697l-5.563,0.173l-2.779,0.086l-5.563,0.173l-2.78,0.086l-5.562,0.173l-2.777,0.086l-5.562,0.172
		l-2.87-2.693l-2.777,0.086l-5.562,0.172l-2.778,0.085l-5.564,0.173l0.085,2.78l0.173,5.562l0.086,2.78l-2.603,5.648l0.085,2.778
		l0.173,5.562l0.173,5.562l0.086,2.781l0.172,5.562l-2.696,2.866l0.172,5.561l0.086,2.78l0.172,5.562l0.086,2.781l-2.607,5.648
		l5.735,5.387l5.558-0.173l5.562-0.173l5.563-0.172l5.646,2.607l5.562-0.172l2.778-0.086l5.562-0.173l5.563-0.173l5.559-0.172
		l5.563-0.173l5.645,2.609l5.562-0.173l5.562-0.173l2.778-0.085l5.562-0.172l2.778-0.086l5.564-0.173l2.779-0.086l2.779-0.086
		L248.746,42.269z"/>
	<path fill="#F6F3F0" stroke="#000000" stroke-linejoin="round" d="M71.312,64.473l-0.086-2.779l-0.086-2.78l-0.172-5.562
		l2.693-2.867l-2.866-2.695l2.779-0.087l2.782-0.086l2.868,2.695l2.693-2.867l0,0l-0.086-2.78l-0.086-2.778l2.608-5.648
		l-0.087-2.781l0,0l-0.172-5.562l-0.173-5.56l2.609-5.648l-0.172-5.559l-0.172-5.562l2.606-5.647l-0.173-5.562l-0.085-2.779
		l2.607-5.647l-0.172-5.56l-0.172-5.562l2.608-5.646L93.232-36.4l-0.173-5.561l2.608-5.649l-0.173-5.559l-5.562,0.172l-2.78,0.086
		l-5.646-2.609l-5.561,0.172l-2.781,0.086l-5.648-2.608l-5.561,0.172l-2.781,0.086l-5.648-2.606l-5.559,0.172L45.1-62.739
		l-5.561,0.172l-5.56,0.172l-2.87-2.694l-5.559,0.172l-5.649-2.606l0.172,5.56l0.086,2.781l-2.692,2.865l0.085,2.781l0.087,2.782
		l0.086,2.778l-2.694,2.868l0.086,2.782l0.172,5.559l0.087,2.782l-2.694,2.866l0.085,2.781l0.087,2.78l-2.693,2.866l0.086,2.779
		l0.086,2.783l2.951,5.473l2.868,2.696l0.172,5.56l2.867,2.695l2.865,2.693l2.869,2.696l2.953,5.474l2.867,2.695l2.864,2.694
		l0.086,2.779l2.87,2.696l2.866,2.693l0.086,2.779l2.866,2.694l2.868,2.695l2.866,2.694l0.086,2.781l2.868,2.695l0.085,2.78
		l2.868,2.692l2.865,2.694l0.086,2.781l2.866,2.695l2.869,2.695l0.086,2.779l2.867,2.694l2.866,2.693l2.869,2.694L71.312,64.473z"/>
	<path fill="#F6F3F0" stroke="#000000" stroke-linejoin="round" d="M157.055,136.959l-0.086-2.78l2.696-2.865l2.862,2.693
		l2.782-0.086l2.784-0.087l2.778-0.086l2.779-0.086l2.783-0.086l2.778-0.086l2.783-0.086l0,0l0,0l-0.086-2.779l2.781-0.087
		l2.78-0.086l2.779-0.086l2.782-0.086l5.561-0.172l2.783-0.086l2.866,2.692l2.778-0.086l2.781-0.086l2.783-0.087l5.559-0.172
		l2.781-0.086l2.781-0.086l2.78-0.085l2.782-0.086l5.473-2.952l-0.086-2.783l-0.173-5.559l-0.171-5.562l-0.173-5.563l-0.086-2.78
		l-0.173-5.56l-0.172-5.559l-0.173-5.563l-0.086-2.779l-0.173-5.563l2.609-5.647l-0.173-5.56l-0.085-2.781l-0.173-5.562l-0.172-5.56
		l-0.086-2.781l-0.086-2.779l-0.172-5.562l-5.562,0.172l-2.778,0.085l-5.562,0.173l-5.562,0.173l-5.645-2.609l-5.563,0.173
		l-5.559,0.172l-5.563,0.173l-5.562,0.173l-2.778,0.086l-5.562,0.172l-5.646-2.607l-5.563,0.172l-5.562,0.173l-5.558,0.173
		l-5.476,2.952l0.086,2.782l0.086,2.781l0.086,2.781l0.086,2.78l0.087,2.78l-2.695,2.866l0.085,2.78l0.086,2.78l0.172,5.562
		l0.087,2.78l0.085,2.78l0.087,2.782l0.086,2.78l-2.695,2.867l0.087,2.782l0.085,2.779l0.086,2.781l0.086,2.781l0.173,5.559
		l0.086,2.781l0.085,2.779l0.086,2.78l-2.693,2.868l0.086,2.781l0.087,2.781l0.085,2.782l0.087,2.779l0.086,2.779l0.173,5.562
		l0.086,2.78l0.086,2.781l0,0l0,0l2.779-0.085l2.782-0.086l2.781-0.086L157.055,136.959z"/>
	<path fill="#F6F3F0" stroke="#000000" stroke-linejoin="round" d="M59.003-63.171l-0.086-2.78l-0.086-2.779l2.608-5.649
		l-0.086-2.78l-0.086-2.78l2.692-2.867l-0.172-5.562l-0.086-2.78l2.695-2.868l-0.086-2.777l-2.782,0.086l-0.173-5.563l2.782-0.086
		l-0.086-2.78l2.693-2.866l2.696-2.869l-0.086-2.779l2.695-2.865l-0.087-2.782l2.694-2.867l-2.866-2.693l-0.086-2.783l0,0
		l-2.781,0.086l-5.562,0.172l-2.868-2.691l-2.779,0.085l-2.782,0.087l-2.782,0.086l-2.866-2.695l-2.778,0.086l-5.563,0.173
		l-2.779,0.086l-2.782,0.086l-5.56,0.171l-2.783,0.086l-2.778,0.087l-2.781,0.086l-2.781,0.086l-2.869-2.695l-2.778,0.086
		l-5.562,0.173l-2.779,0.087l-2.868-2.695l-0.086-2.781l-0.086-2.781l-0.085-2.78l-2.868-2.694l-2.779,0.085l-2.782,0.086
		l-2.779,0.086l-0.087-2.781l0.087,2.781l-2.696,2.868l0.173,5.56l-2.781,0.087l0.173,5.561l0.085,2.781l-2.78,0.086l0.087,2.781
		l-2.608,5.647l0.085,2.779l-2.694,2.867l0.085,2.783l-2.695,2.865l0.085,2.78l-2.605,5.647l-2.78,0.086l0.086,2.781l-2.695,2.866
		l0.086,2.783l0.172,5.56l-2.693,2.867l0.086,2.78l2.867,2.695l2.867,2.694l2.781-0.087l2.778-0.085l2.867,2.693l5.562-0.173
		l2.78-0.086l2.867,2.695l2.781-0.086l2.78-0.085l2.867,2.694l2.779-0.085l5.563-0.173l2.865,2.695l2.781-0.085l2.781-0.087
		l2.779-0.086l5.649,2.606l5.559-0.172l2.87,2.694l5.56-0.172l5.561-0.172l2.868,2.695l5.559-0.172l5.648,2.606L59.003-63.171z"/>
	<path fill="#F6F3F0" stroke="#000000" stroke-linejoin="round" d="M151.17,36.949l2.607-5.648l-0.086-2.781l-0.172-5.562
		l-0.086-2.78l-0.172-5.561l2.696-2.866l-0.172-5.562l-0.086-2.781l-0.173-5.562l-0.173-5.562l-0.085-2.778l2.603-5.648l-0.086-2.78
		l-0.173-5.562l-0.085-2.78l-2.777,0.087l-2.869-2.694l-2.78,0.086l-5.562,0.173l-2.779,0.086l-2.778,0.086l-2.783,0.086
		l-2.867-2.694l-0.086-2.781l-0.086-2.781l-0.086-2.782l2.607-5.645l-5.645-2.61l-5.563,0.173l-2.781,0.087l-5.647-2.609
		l-5.56,0.172l-5.559,0.172l-2.869-2.692l-5.561,0.173l0.173,5.559l-2.608,5.649l0.173,5.561l0.172,5.561l-2.608,5.646l0.172,5.562
		l0.172,5.56l-2.607,5.647l0.085,2.779l0.173,5.562l-2.606,5.647l0.172,5.562l0.172,5.559l-2.609,5.648l0.173,5.56l0.172,5.562
		l2.782-0.086l5.646,2.609l2.781-0.086l5.56-0.172l2.781-0.086l5.56-0.173l2.868,2.695l5.56-0.172l5.562-0.173l2.781-0.086
		l5.648,2.608l2.779-0.086l5.562-0.173l2.78-0.086l5.561-0.172L151.17,36.949z"/>
	<path fill="#F6F3F0" stroke="#000000" stroke-linejoin="round" d="M224.263-29.332l-0.086-2.779l-0.173-5.562l-0.086-2.78
		l-0.173-5.562l-0.172-5.562l-0.086-2.781l-0.258-8.341l2.605-5.646l-0.086-2.781l-0.172-5.56l-0.085-2.781l-0.173-5.561
		l-0.173-5.562l-0.086-2.779l-2.778,0.086l-5.562,0.173l-2.781,0.086l-5.561,0.172l-2.865-2.695l-2.782,0.087l-5.561,0.172
		l-2.779,0.086l-5.563,0.173l-2.78,0.087l-5.561,0.172l-2.866-2.696l-2.782,0.087l-5.56,0.173l-2.783,0.086l-5.558,0.172
		l-2.784,0.086l-5.644-2.605l-2.783,0.086l-2.779,0.087l-5.563,0.173l-2.693,2.864l0.086,2.782l0.259,8.342l-2.606,5.646
		l0.173,5.562l0.172,5.56l0.172,5.562l-2.697,2.865l0.172,5.562l0.259,8.342l-2.607,5.645l0.086,2.782l0.086,2.781l0.086,2.781
		l2.867,2.694l2.783-0.086l2.778-0.086l2.779-0.086l5.562-0.173l2.78-0.086l2.869,2.694l2.777-0.087l5.564-0.173l2.778-0.085
		l5.562-0.172l2.777-0.086l2.87,2.693l5.562-0.172l2.777-0.086l5.562-0.173l2.78-0.086l5.563-0.173l2.779-0.086l5.563-0.173
		l2.865,2.697l5.56-0.173l2.781-0.085l5.563-0.172L224.263-29.332z"/>
	<path fill="#F6F3F0" stroke="#000000" stroke-linejoin="round" d="M367.772,110.94l5.558-0.171l5.562-0.172l5.477-2.954
		l2.782-0.086l5.561-0.172l5.559-0.173l5.563-0.173l2.78-0.086l-0.086-2.781l-0.174-5.559l-2.781,0.086l2.695-2.868l-0.086-2.781
		l-0.086-2.778l2.694-2.869l-0.086-2.78l2.692-2.865l-0.086-2.783l-0.086-2.781l2.69-2.866l2.697-2.868l0,0l-0.087-2.78l2.608-5.647
		l-0.085-2.781l-0.087-2.78l2.777-0.086l-2.862-2.694l-2.782,0.086l-2.871-2.693l2.699-2.867l-0.086-2.78l-2.784,0.087l-2.776,0.085
		l-5.56,0.173l-2.782,0.086l-2.782,0.086l-5.562,0.172l-2.776,0.086l-5.477,2.953l-2.782,0.087l-2.78,0.086l-5.56,0.172
		l-2.784,0.086l-2.777,0.087l-5.564,0.172l-2.777,0.086l-2.777,0.086l-5.391,5.732l2.955,5.473l0.085,2.782l0.174,5.562l0.086,2.78
		l0.172,5.562l0.087,2.781l0.171,5.561l0.087,2.78l2.867,2.695l0.173,5.56l0.087,2.781l0,0l2.776-0.086l2.865,2.693l0.086,2.78
		l0.172,5.562L367.772,110.94z"/>
	<path fill="#F6F3F0" stroke="#000000" stroke-linejoin="round" d="M335.913-18.879l2.78-0.086l2.78-0.086l2.781-0.086l2.78-0.087
		l2.78-0.085l2.782-0.087l2.781-0.085l2.777-0.087l5.477-2.954l2.78-0.086l2.777-0.085l5.561-0.172l2.782-0.086l5.562-0.173
		l2.779-0.086l0,0l2.867,2.695l-0.085-2.782l2.69-2.866l2.695-2.866l-0.086-2.783l-0.087-2.779l-2.78,0.086l2.607-5.646l5.564-0.171
		l2.694-2.868l-0.086-2.78l-0.087-2.782l-0.086-2.779l-2.868-2.694l-0.086-2.783l-2.866-2.694l-2.782,0.086l-2.869-2.692
		l-2.862-2.695l-0.086-2.782l-0.087-2.778l-2.869-2.695l-2.777,0.086l-5.564,0.172l-2.78,0.086l-2.78,0.086l-5.56,0.172
		l-2.779,0.086l-5.562,0.172l-2.778,0.087l-5.562,0.172l-2.694,2.868l-5.562,0.172l-2.778,0.086l-5.562,0.172l-2.779,0.086
		l-5.562,0.172l-2.781,0.086l0.087,2.779l0.086,2.781l0.087,2.781l0.086,2.779l-2.696,2.867l2.954,5.476l2.867,2.693l0.086,2.782
		l2.865,2.694l0.087,2.781l0.087,2.781l2.868,2.693l0.087,2.779l0.085,2.783l0.087,2.78l0.087,2.78l2.865,2.695L335.913-18.879z"/>
	<path fill="#F6F3F0" stroke="#000000" stroke-linejoin="round" d="M301.748,46.193l2.779-0.086l2.783-0.086l2.781-0.086l2.69-2.867
		l2.785-0.086l5.557-0.171l2.783-0.087l2.78-0.086l2.781-0.087l2.78-0.086l2.781-0.086l2.779-0.086l5.562-0.173l2.782-0.086
		l2.778-0.087l2.693-2.867l-0.085-2.78l-0.172-5.558l-0.087-2.782l-0.172-5.562l-0.172-5.562l-0.087-2.78l-2.954-5.474l-0.086-2.78
		l-2.865-2.694l-0.088-2.781l-2.865-2.694l2.693-2.866L344.6-8.018l-2.78,0.087l-2.78,0.086l-2.782,0.086l-2.779,0.086l-2.78,0.086
		L327.914-7.5l-2.778,0.086l-2.781,0.087l-2.782,0.085l-2.779,0.086l-2.779,0.086l-2.782,0.086l-2.778,0.086l-2.781,0.086
		l-2.782,0.085l-2.781,0.086l-2.776,0.086l-2.783,0.086l-2.781,0.086l-2.779,0.086l-2.781,0.086l-2.78,0.086l-2.778,0.086
		l-2.782,0.086l-2.777,0.087l-2.784,0.086l-2.781,0.086l-2.781,0.086l-2.777,0.086l-2.783,0.087l-2.778,0.085l-2.779,0.087
		l-2.781,0.085l-2.693,2.87l0.086,2.779l0.087,2.78l0.086,2.781l-2.697,2.867l0.172,5.561l0.087,2.779l0.086,2.78l0.087,2.781
		l0.086,2.781l0.086,2.781l0.172,5.562l0.087,2.78l0.086,2.778l0.087,2.78l0.086,2.782l2.784-0.086l2.778-0.086l5.561-0.173
		l2.778-0.085l2.784-0.087l2.775-0.086l2.784-0.086l2.78-0.086l5.562-0.173l2.867,2.695l2.778-0.086l2.781-0.086l2.782-0.086
		l2.778-0.087l2.781-0.085L301.748,46.193z"/>
	<path fill="#F6F3F0" stroke="#000000" stroke-linejoin="round" d="M418.877,53.692l2.689-2.866l-0.173-5.56l-0.086-2.781
		l2.786-0.087l0,0l2.778-0.086l-0.173-5.562l-0.087-2.78l-2.778,0.086l-0.087-2.778l-2.869-2.694l-0.087-2.781l-0.086-2.781
		l-2.865-2.695l-2.778,0.086l-2.873-2.695l-2.775,0.086l-2.865-2.694l2.693-2.866l-0.173-5.561l-0.087-2.78l-2.778,0.086
		l-2.781,0.086l-2.868-2.694L400.469-1.4l-0.086-2.781l-5.65-2.607l-5.731-5.389l-0.087-2.782l-0.085-2.779l-2.954-5.476l0,0
		l-2.779,0.086l-5.562,0.173l-2.782,0.086l-5.561,0.172l-2.777,0.085l-2.78,0.086l-5.477,2.954l-2.777,0.087l-2.781,0.085
		l-2.782,0.087l-2.78,0.085l-2.78,0.087l-2.781,0.086l-2.78,0.086l-2.78,0.086l-2.781,0.086l0,0l0.087,2.78l2.865,2.693l0.087,2.782
		l2.868,2.693l2.78-0.086l2.78-0.087l0.086,2.783l-2.693,2.866l2.865,2.694l0.088,2.781l2.865,2.694l0.086,2.78l2.954,5.474
		l0.087,2.78l0.172,5.562l0.172,5.562l0.087,2.782l0.172,5.558l0.085,2.78l0.259,8.344l5.651,2.607l2.777-0.086l2.777-0.086
		l5.564-0.172l2.777-0.087l2.784-0.086l5.56-0.172l2.78-0.086l2.782-0.087l5.477-2.953l2.776-0.086l5.562-0.172l2.782-0.086
		l2.782-0.086l5.56-0.173l2.776-0.085l2.784-0.087l0.086,2.78l-2.699,2.867l2.871,2.693L418.877,53.692z"/>
	<path fill="#F6F3F0" stroke="#000000" stroke-linejoin="round" d="M297.332-6.551l2.776-0.086l2.781-0.086l2.782-0.085l2.781-0.086
		l2.778-0.086l2.782-0.086l2.779-0.086l2.779-0.086l2.782-0.085l2.781-0.087l2.778-0.086l2.783-0.086l2.78-0.086l2.779-0.086
		l2.782-0.086l-2.868-2.693l-0.087-2.782l-2.865-2.693l-0.087-2.78l0,0l-2.865-2.695l-0.087-2.78l-0.087-2.78l-0.085-2.783
		l-0.087-2.779l-2.868-2.693l-0.087-2.781l-0.087-2.781l-2.865-2.694l-0.086-2.782l-2.867-2.693l-2.954-5.476l-2.779,0.086
		l-2.865-2.695l-2.783,0.086l-5.561,0.172l-2.781,0.087l-2.78,0.086l-2.778,0.086l-2.867-2.692l-2.783,0.086l-5.561,0.172
		l-2.78,0.086l-5.559,0.172l-2.779,0.086l-5.563,0.172l-5.561,0.172l-2.783,0.086l-5.556,0.173l-2.782,0.086l-5.563,0.173
		l-2.779,0.085l-5.561,0.172l-2.783,0.087l-5.645-2.609l-5.387,5.733l0.086,2.781l0.172,5.562l0.173,5.562l0.086,2.78l0.173,5.562
		l0.086,2.779l0.172,5.562l2.778-0.087l2.781-0.085l2.781-0.087l2.777-0.086l2.784-0.086l2.781-0.087l5.56-0.172l2.782-0.086
		l0.087,2.779l0.172,5.561l0.086,2.781l0.086,2.779l0.088,2.781l2.865,2.692l2.781-0.085l2.779-0.087l2.778-0.085l2.783-0.087
		l2.777-0.086l2.781-0.086l2.781-0.086l2.784-0.086l2.777-0.087l2.782-0.086l2.778-0.086l2.78-0.086l2.781-0.086l2.779-0.086
		l2.781-0.086L297.332-6.551z"/>
	<path fill="#F6F3F0" stroke="#000000" stroke-linejoin="round" d="M359.001,97.297l-0.173-5.56l-2.867-2.695l-0.087-2.78
		l-0.171-5.561l-0.087-2.781l-0.172-5.562l-0.086-2.78l-0.174-5.562l-0.085-2.782l-2.955-5.473l-0.261-8.34l-2.952-5.477
		l-2.778,0.087l-2.782,0.086l-5.562,0.173l-2.779,0.086l-2.781,0.086l-2.78,0.086l-2.781,0.087l-2.78,0.086l-2.783,0.087
		l-5.557,0.171l-2.785,0.086l-2.69,2.867l-2.781,0.086l-2.783,0.086l-2.779,0.086l-5.561,0.172l-2.781,0.085l-2.778,0.087
		l-2.782,0.086l-2.781,0.086l-2.778,0.086l-2.867-2.695l-5.562,0.173l-2.78,0.086l-2.784,0.086l-2.775,0.086l-2.784,0.087
		l-2.778,0.085l-5.561,0.173l-2.778,0.086l-2.784,0.086l-2.779,0.086l-2.779,0.086l-5.564,0.173l-2.778,0.086l0.172,5.562
		l0.086,2.779l0,0l2.778-0.085l2.783-0.087l5.561-0.172l2.779-0.086l2.783-0.087l2.779-0.086l5.562-0.173l2.777-0.086l2.87,2.694
		l5.561-0.173l5.562-0.172l0.086,2.779l0.087,2.781l0.086,2.78l0.173,5.561l0.085,2.781l0.173,5.562l0.087,2.779l0.172,5.563
		l2.867,2.693l2.865,2.694l2.779-0.086l2.779-0.087l0.087,2.782l2.782-0.086l5.56-0.172l0.087,2.778l5.473-2.951l2.867,2.691
		l2.784-0.086l0.084,2.781l2.695-2.867l2.866,2.695l2.781-0.086l2.78-0.086l2.691-2.868l2.869,2.695l2.781-0.086l2.865,2.694
		l2.696-2.867l2.78-0.087l2.78-0.085l2.695-2.867l2.867,2.695l2.692-2.868l2.867,2.695l2.779-0.086l2.87,2.694l2.781-0.086
		L359.001,97.297z"/>
	<path fill="#F6F3F0" stroke="#000000" stroke-linejoin="round" d="M318.106-54.51l2.696-2.867l-0.086-2.779l-0.087-2.781
		l-0.086-2.781l-0.087-2.779l-0.086-2.781l-0.173-5.559l-0.086-2.782l-0.172-5.562l-0.087-2.78l-0.086-2.781l-0.171-5.561
		l-0.088-2.781l-2.871-2.695l-2.862-2.692l-0.088-2.783l2.693-2.867l-2.778,0.086l-2.779,0.087l-2.783,0.086l-2.778,0.087
		l-2.781,0.086l-2.781,0.087l-2.782,0.086l-2.776,0.085l-2.783,0.087l-2.782,0.086l-2.777,0.086l-2.783,0.086l-2.78,0.086
		l-2.777,0.086l-2.781,0.086l-2.779,0.086l-2.782,0.086l-2.782,0.086l-2.781,0.086l-2.778,0.087l-2.782,0.086l-2.777,0.086
		l-2.78,0.086l-2.867-2.693l-2.779,0.085l-2.783,0.087l-2.78,0.086l-2.779,0.086l-2.782,0.086l-2.784,0.086l-2.778,0.087
		l-5.476,2.952l0.173,5.564l0.086,2.777l0.086,2.782l0.086,2.78l0.086,2.779l0.173,5.562l0.173,5.561l0.085,2.781l0.172,5.56
		l0.086,2.781l-2.605,5.646l5.645,2.608l5.645,2.609l2.783-0.087l5.561-0.172l2.779-0.085l5.563-0.173l2.782-0.086l5.556-0.173
		l2.783-0.086l5.561-0.172l5.563-0.172l2.779-0.086l5.559-0.172l2.78-0.086l5.561-0.172l2.783-0.086l2.867,2.692l2.778-0.086
		l2.78-0.086l2.781-0.087l5.561-0.172l2.783-0.086l2.865,2.695L318.106-54.51z"/>
	<path fill="#F6F3F0" stroke="#000000" stroke-linejoin="round" d="M430.84,170.214l-0.087-2.779l-0.086-2.78l2.778-0.086
		l0.086,2.78l2.78-0.086l2.78-0.086l2.954,5.475l2.696-2.869l-0.086-2.778l0,0l-2.87-2.695l-2.779,0.086l-2.782,0.086l-2.865-2.695
		l2.693-2.868l2.694-2.867l-0.086-2.782l-2.695,2.868l-2.693,2.867l-0.087-2.78l-0.086-2.782l-2.778,0.086l-2.691,2.869
		l-2.786,0.086l-2.862-2.696l2.69-2.864l2.784-0.087l2.78-0.085l2.863,2.691l2.78-0.087l0,0l0,0l0,0l-0.086-2.777l-2.866-2.695
		l-2.864-2.697l-0.087-2.777l-0.086-2.78l-2.779,0.086l-2.784,0.086l-5.559,0.173l-2.783,0.086l-5.558,0.173l-2.778,0.085
		l-2.783,0.086L402,137.711l2.694-2.866l-0.087-2.781l-0.086-2.782l2.695-2.866l2.693-2.865l-0.086-2.783l-0.086-2.779l-0.086-2.78
		l-2.865-2.696l-0.088-2.78l-0.086-2.781l-2.78,0.086l-5.563,0.173l-5.559,0.173l-5.561,0.172l-2.782,0.086l-5.477,2.954
		l-5.562,0.172l-5.558,0.171l-2.785,0.087l0.085,2.78l0.174,5.562l0.086,2.779l0.173,5.562l2.872,2.694l0,0l2.951,5.476l0,0
		l2.863,2.693l0.086,2.782l0.087,2.78l0.086,2.776l0.087,2.783l0.085,2.782l-2.69,2.864l2.949,5.476l-2.689,2.867l0,0l0.086,2.781
		l2.777-0.085l2.782-0.086l2.779-0.086l2.781-0.086l2.781-0.086l2.868,2.694l5.561-0.173l2.778-0.086l2.694-2.866l-0.087-2.781
		l2.869,2.695l2.695-2.868l0.087,2.781l2.865,2.694l2.696-2.866l0.086,2.78l0.086,2.779l5.556-0.172l2.87,2.696l2.782-0.086
		l-0.088-2.782l2.691-2.865l2.869,2.692l0.087,2.782L430.84,170.214z"/>
	<path fill="#F6F3F0" stroke="#000000" stroke-linejoin="round" d="M324.124,229.192l-0.086-2.783l-2.95-5.476l-0.087-2.782
		l-0.087-2.779l0.087,2.779l0.087,2.782l0.086,2.782l2.864,2.693L324.124,229.192l0.086,2.775L324.124,229.192z M323.521,209.723
		l-0.086-2.776l-0.087-2.78l0.087,2.78l-2.692,2.862l0.087,2.785L323.521,209.723z M331.432,195.567l2.693-2.869l0,0
		L331.432,195.567l-2.695,2.865L331.432,195.567z M324.297,234.752L324.297,234.752l-2.864-2.698l-0.085-2.774l-0.088-2.784
		l-0.086-2.779l-2.871-2.694l-0.086-2.783l-0.086-2.778l-0.087-2.781l-2.777,0.085l-0.086-2.782l2.863,2.697l2.698-2.87
		l-0.087-2.775l2.692-2.867l-2.864-2.695l2.864,2.695l2.693-2.869l-2.864-2.691l2.777-0.087l2.696-2.865l-0.087-2.782l5.562-0.173
		l-0.087-2.782l-2.866-2.693l2.78-0.086l2.869,2.693l5.475-2.952l-2.694,2.865l2.779-0.085l2.695-2.866l-2.78,0.086l2.78-0.086
		l2.693-2.87l2.695-2.865l2.78-0.086l2.693-2.868l-0.086-2.779l-0.086-2.782l-0.087-2.779l2.697-2.867l0.171,5.559l5.56-0.172
		l-2.778,0.087l2.691-2.866l5.562-0.173l2.694-2.867l-2.866-2.695l2.78-0.086l2.689-2.867l-2.949-5.476l2.69-2.864l-0.085-2.782
		l-0.087-2.783l-0.086-2.776l-0.087-2.78l-0.086-2.782l-2.863-2.693l0,0l-2.951-5.476l0,0l-2.872-2.694l-0.173-5.562l-0.086-2.779
		l-0.174-5.562l-0.085-2.78l-0.172-5.562l-0.086-2.78l-2.865-2.693l-2.776,0.086l0,0l-2.781,0.086l-2.87-2.694l-2.779,0.086
		l-2.867-2.695l-2.692,2.868l-2.867-2.695l-2.695,2.867l-2.78,0.085l-2.78,0.087l-2.696,2.867l-2.865-2.694l-2.781,0.086
		l-2.869-2.695l-2.691,2.868l-2.78,0.086l-2.781,0.086l-2.866-2.695l-2.695,2.867l-0.084-2.781l-2.784,0.086l-2.867-2.691
		l-5.473,2.951l-0.087-2.778l-5.56,0.172l-2.782,0.086l-0.087-2.782l-2.779,0.087l-2.779,0.086l-2.865-2.694l-2.867-2.693
		l-0.172-5.563l-0.087-2.779l-0.173-5.562l-0.085-2.781l-0.173-5.561l-0.086-2.78l-0.087-2.781l-0.086-2.779l-5.562,0.172
		l-5.561,0.173l-2.87-2.694l-2.777,0.086l-5.562,0.173l-2.779,0.086l-2.783,0.087l-2.779,0.086l-5.561,0.172l-2.783,0.087
		l-2.778,0.085l0,0l0.086,2.781l0.172,5.56l0.173,5.562l0.085,2.781l0.173,5.56l-2.609,5.647l0.173,5.563l0.086,2.779l0.173,5.563
		l0.172,5.559l0.173,5.56l0.086,2.78l0.173,5.563l0.171,5.562l0.173,5.559l0.086,2.783l-5.473,2.952l-2.782,0.086l-2.78,0.085
		l-2.781,0.086l-2.781,0.086l-5.559,0.172l-2.783,0.087l-2.781,0.086l-2.778,0.086l-2.866-2.692l-2.783,0.086l-5.561,0.172
		l-2.782,0.086l-2.779,0.086l-2.78,0.086l-2.781,0.087l0.086,2.779l0,0l0,0l0,0l2.868,2.693l2.867,2.696l2.864,2.694l0.086,2.78
		l2.869,2.696l2.78-0.086l2.866,2.694l2.87,2.69l0.086,2.782l2.78-0.086l0.086,2.781l2.866,2.692l0.086,2.782l0.086,2.78
		l2.868,2.696l0.085,2.781l2.869,2.694l2.865,2.693l0,0l2.866,2.696l2.868,2.693l2.781-0.086l2.865,2.695l2.783-0.086l2.692-2.868
		l2.695-2.865l-0.086-2.782l2.694-2.866l-0.086-2.78l5.562-0.173l2.782-0.086l2.778-0.086l2.78-0.086l2.782-0.086l2.867,2.694
		l2.78-0.086l0.086,2.779l2.867,2.696l2.863,2.694l2.868,2.695l0.088,2.778l2.777-0.085l0.172,5.563l2.782-0.087l0.088,2.781
		l0.085,2.783l2.868,2.693l2.868,2.691l2.863,2.697l0.088,2.78l2.781-0.087l0.087,2.778l2.863,2.695l-2.605,5.646l2.778-0.087
		l2.865,2.696l0.173,5.561l2.784-0.084l2.863,2.695l2.782-0.086l2.782-0.086l2.863,2.688l2.868,2.697l2.781-0.086l2.782-0.085
		l2.778-0.088l2.869,2.691L324.297,234.752z M355.938,178.104l-0.086-2.779L355.938,178.104l-2.78,0.086L355.938,178.104z"/>
	<path fill="#F6F3F0" stroke="#000000" stroke-linejoin="round" d="M615.103-80.42l2.695-2.867l0,0l2.693-2.866l2.69-2.867
		l2.787-0.087l2.776-0.085l2.694-2.868l2.783-0.086l-0.086-2.781l-2.869-2.693l-0.087-2.78l-0.087-2.782l0,0l-2.779,0.087
		l-5.563,0.173l-2.776,0.085l0.085,2.781l0,0l-2.779,0.087l0,0l0,0l-5.562,0.172l-2.693,2.866l2.779-0.085l0.173,5.56l0.086,2.781
		l0.085,2.782l2.867,2.692L615.103-80.42z"/>
	<path fill="#F6F3F0" stroke="#000000" stroke-linejoin="round" d="M619.629-113.958l2.777-0.085l0,0l2.699-2.87l2.777-0.086
		l2.781-0.086l2.781-0.086l0,0l-0.086-2.78l0,0l0,0l0,0l0,0l0,0l0,0l0,0l0,0l-0.086-2.78l2.779-0.086l0,0l0,0l0,0l-0.086-2.78
		l-0.087-2.782l-2.865-2.693l-2.868-2.693l-0.087-2.783l-0.086-2.781l-2.866-2.693l-0.086-2.783l-0.088-2.778l-2.864-2.695l0,0
		l-2.87-2.695l-0.088-2.78l-0.086-2.78l-2.861-2.696l0,0l-2.695,2.868l0.086,2.78l0.087,2.781l0.086,2.781l2.867,2.694l0.085,2.779
		l-2.693,2.869l-2.695,2.866l2.867,2.694l0.087,2.782l-2.696,2.866l0.087,2.78l2.955,5.475l0.086,2.78l0.086,2.78L619.629-113.958z"
		/>
	<path fill="#F6F3F0" stroke="#000000" stroke-linejoin="round" d="M642.306-100.746L642.306-100.746l-2.783,0.086l0,0l0,0l0,0l0,0
		l2.87,2.694L642.306-100.746z M634.223-92.146l2.692-2.867l-0.174-5.56l2.695-2.868l-2.779,0.086l0,0l0,0l0,0l0,0l0,0l0,0l0,0l0,0
		l0,0l-0.086-2.779l0,0l-2.781,0.085l0,0l-2.781,0.087l0.085,2.78l0.087,2.782l0.087,2.78l2.869,2.693L634.223-92.146z"/>
	<path fill="#F6F3F0" stroke="#000000" stroke-linejoin="round" d="M611.373-110.921L611.373-110.921L611.373-110.921l2.78-0.086
		l-0.087-2.779l2.782-0.086l0,0l2.78-0.085l-2.866-2.696l-0.086-2.78l-0.086-2.78l-2.955-5.475l-0.087-2.78l2.696-2.866
		l-0.087-2.782l-2.867-2.694l2.695-2.866l2.693-2.869l-0.085-2.779l-2.867-2.694l-0.086-2.781l-0.087-2.781l0,0l-5.476,2.954
		l-2.778,0.086l-2.785,0.085l-2.689,2.868l-2.778,0.085l-2.698,2.867l0,0l0.086,2.779l0.087,2.783l2.87,2.693l0.172,5.562
		l0.087,2.779l2.866,2.693l0.087,2.782l2.86,2.694l0.087,2.78l0.086,2.78l2.871,2.697l0.086,2.778L611.373-110.921z"/>
	<path fill="#F6F3F0" stroke="#000000" stroke-linejoin="round" d="M460.735,147.021l5.562-0.173l-0.086-2.782l0,0l-0.173-5.557
		l-2.868-2.696l-0.086-2.78l5.558-0.172l5.565-0.172l2.782-0.086l5.563-0.173l5.468-2.953l2.783-0.085l5.559-0.173l5.559-0.172
		l-2.862-2.695l-0.087-2.781l-0.173-5.562l-0.085-2.779l-2.87-2.693l2.696-2.869l-0.085-2.78l0,0l-2.956-5.476l-0.086-2.78
		l-2.865-2.692l-0.086-2.782l-0.085-2.781l-2.866-2.692l-0.086-2.782l-0.087-2.781l-2.87-2.693l-0.086-2.781l-0.088-2.781
		l-2.863-2.694l-0.088-2.782l-0.171-5.561l-2.863-2.695l-2.695,2.867l-2.78,0.087l-5.562,0.173l-2.785,0.085l-5.558,0.173
		l-5.563,0.172l-2.69,2.866l-5.563,0.172l-2.78,0.087l2.865,2.694l0.087,2.781l0.087,2.78l0.085,2.782l0.174,5.561l0.172,5.562
		l0.088,2.778l0.17,5.562l0.174,5.559l0.087,2.782l0.173,5.561l0.086,2.783l0.086,2.779l0.085,2.78l0.174,5.562l0.084,2.78
		l0.088,2.782l0.086,2.78l2.869,2.694l0.087,2.782l0.173,5.557l0.086,2.783l2.78-0.087l2.778-0.086l-0.085-2.782l-0.088-2.777
		l2.784-0.086l0.084,2.776L460.735,147.021l-2.696,2.868L460.735,147.021z"/>
	<path fill="#F6F3F0" stroke="#000000" stroke-linejoin="round" d="M588.015,212.654L588.015,212.654l-0.086-2.782L588.015,212.654
		l0.086,2.78L588.015,212.654z M579.754,215.693l2.783-0.085l2.696-2.867l2.781-0.087l-0.173-5.561l-0.085-2.781l2.693-2.87
		l-0.173-5.556l-0.171-5.562l-0.087-2.779l-2.867-2.696l-0.087-2.781l-2.866-2.694l-3.041-8.256l-8.687-10.862l-2.869-2.695
		l-0.085-2.782l2.868,2.695l0,0l0,0l0,0l0,0l0,0l0.086,2.781l-0.086-2.781l2.78-0.086l0.086,2.781l0.173,5.559l2.864,2.696
		l-2.95-5.475l-0.087-2.78l-0.086-2.781l-2.867-2.695L569.431,152l-2.862-2.696l-0.087-2.778l-2.87-2.695l-2.865-2.696l-0.087-2.777
		l-2.864-2.694l-0.173-5.562l-2.868-2.694l-0.086-2.782l-2.866-2.694l0,0l-5.563,0.172l0.086,2.781l0.087,2.781l0.087,2.781
		l-2.866-2.694l-2.78,0.086l-2.781,0.086l-2.779,0.086l-2.781,0.086l-5.476,2.953l-2.78,0.086l-2.779,0.086l-2.778,0.086
		l-2.784,0.086l-2.78,0.087l-5.559,0.172l-2.784,0.086l-2.78,0.086l-0.088-2.78l-5.559,0.172l-5.559,0.173l-2.783,0.085
		l-5.468,2.953l-5.563,0.173l-2.782,0.086l-5.565,0.172l-5.558,0.172l0.086,2.78l2.868,2.696l0.173,5.557l0,0l2.775-0.086
		l-2.689,2.868l2.689-2.868l-0.086-2.777l2.872,2.69l-0.086-2.777l2.778-0.086l-2.692,2.863l2.78-0.086l2.694-2.863l2.781-0.086
		l2.783-0.086l2.774-0.086l-2.774,0.086l-2.783,0.086l5.644,2.604l2.778-0.085l5.564-0.172l-2.866-2.691l2.779-0.086l0.087,2.777
		l2.864,2.696l-2.778,0.086l2.778-0.086l2.869,2.696l0.086,2.777l-2.868-2.692l2.868,2.692l0,0l0,0l2.778-0.086l2.694-2.864
		l2.782-0.086l2.695-2.869l2.777-0.086l-0.086-2.782l2.782-0.086l2.784-0.086l2.776-0.086l2.867,2.697l2.864,2.695l0,0l2.868,2.692
		l2.867,2.695l2.782-0.087l2.78-0.086l2.865,2.694l0.086,2.781l0.087,2.782l0.086,2.781l0.088,2.779l0.085,2.782l0.172,5.561
		l0.086,2.779l2.781-0.087l-2.867-2.692l2.867,2.692l-0.085-2.778l-0.087-2.782l2.865,2.695l2.782-0.086l-2.695,2.865l0.087,2.783
		l0.084,2.78l0.088,2.781l2.868,2.696l2.781-0.086l2.867,2.693l-2.867-2.693l2.867,2.693l0.085,2.778l2.869,2.696l-0.087-2.781
		l0.087,2.781l2.863,2.694l0.087,2.777l2.867,2.695l2.781-0.086l2.778-0.086l2.868,2.695l0.086,2.779l2.867,2.694L579.754,215.693
		l-2.862-2.694l0.086,2.781L579.754,215.693z M581.158,171.119l-2.869-2.694L581.158,171.119l0.172,5.56l2.869,2.697
		L581.158,171.119z M480.028,140.858L480.028,140.858l-5.476,2.95l-2.78,0.086l-2.786,0.087L480.028,140.858z"/>
	<path fill="#F6F3F0" stroke="#000000" stroke-linejoin="round" d="M507.573,131.654l5.559-0.172l2.78-0.087l2.784-0.086
		l2.778-0.086l2.779-0.086l2.78-0.086l5.476-2.953l2.781-0.086l2.779-0.086l2.781-0.086l2.78-0.086l2.866,2.694l-0.087-2.781
		l-0.087-2.781l-0.086-2.781l5.563-0.172l0,0l0,0l-0.086-2.78l2.692-2.869l-0.085-2.779l-2.866-2.693l2.779-0.086l-0.086-2.782
		l2.695-2.865l-0.087-2.782l-0.085-2.782l-0.086-2.78l-2.783,0.087l-2.866-2.693l-0.087-2.781l-2.779,0.087l-0.087-2.782
		l-2.868-2.692l-0.087-2.782l-2.865-2.694l-2.781,0.086l-2.865-2.692l-2.866-2.696l-0.087-2.781l-2.781,0.087l-2.868-2.694
		l-2.865-2.695l-2.779,0.086l-0.088-2.78l-2.865-2.694l-2.778,0.086l-2.869-2.694l-0.087-2.781l2.697-2.866l-2.783,0.086
		l-2.696,2.865l-2.777,0.087l-2.78,0.086l-2.783,0.087l-2.782,0.086l-2.776,0.086l-2.695,2.866l-2.78,0.086l-2.778,0.086
		l-2.785,0.086l-5.555,0.173l2.863,2.695l0.171,5.561l0.088,2.782l2.863,2.694l0.088,2.781l0.086,2.781l2.87,2.693l0.087,2.781
		l0.086,2.782l2.866,2.692l0.085,2.781l0.086,2.782l2.865,2.692l0.086,2.78l2.956,5.476l0,0l0.085,2.78l-2.696,2.869l2.87,2.693
		l0.085,2.779l0.173,5.562l0.087,2.781l2.862,2.695l0.088,2.78l2.78-0.086L507.573,131.654z"/>
	<path fill="#F6F3F0" stroke="#000000" stroke-linejoin="round" d="M435.88,153.357l2.693-2.864l2.782-0.086l2.697-2.868
		l2.777-0.086l2.78-0.086l2.784-0.085l-0.086-2.783l-0.173-5.557l-0.087-2.782l-2.869-2.694l-0.086-2.78l-0.088-2.782l-0.084-2.78
		l-0.174-5.562l-0.085-2.78l-0.086-2.779l-0.086-2.783l-0.173-5.561l-0.087-2.782l-0.174-5.559l-0.17-5.562l-0.088-2.778
		l-0.172-5.562l-0.174-5.561l-0.085-2.782l-0.087-2.78l-0.087-2.781l-2.865-2.694l-2.779,0.086l0,0l-5.563,0.173l-2.781,0.086
		l-2.694,2.867l-5.557,0.171l-2.784,0.087l-2.778,0.086l-2.78,0.086l-2.697,2.868l-2.69,2.866l0.086,2.781l0.086,2.783l-2.692,2.865
		l0.086,2.78l-2.694,2.869l0.086,2.778l0.086,2.781l-2.695,2.868l2.781-0.086l0.174,5.559l0.086,2.781l0.086,2.781l0.088,2.78
		l2.865,2.696l0.086,2.78l0.086,2.779l0.086,2.783l-2.693,2.865l-2.695,2.866l0.086,2.782l0.087,2.781L402,137.711l2.866,2.695
		l2.783-0.086l2.778-0.085l5.558-0.173l2.783-0.086l5.559-0.173l2.784-0.086l2.779-0.086l0.086,2.78l0.087,2.777l2.864,2.697
		l2.866,2.695L435.88,153.357z"/>
	<path fill="#F6F3F0" stroke="#000000" stroke-linejoin="round" d="M559.365,96.648l-0.087-2.779l-2.864-2.695l0,0l2.778-0.087
		l2.781-0.085l-0.087-2.782l2.783-0.086l2.691-2.864l0,0l2.695-2.868l2.695-2.866l2.69-2.866l-0.087-2.781l-0.086-2.781l-0.085-2.78
		l2.867,2.694l-0.086-2.78l-0.086-2.782l2.696-2.866l2.695-2.867l-0.086-2.781l-5.564,0.173l-2.869-2.695l-2.863-2.694l-2.866-2.694
		l-2.868-2.693l-5.561,0.172L557.9,49.38l-2.779,0.086l-2.781,0.086l-2.78,0.086l-2.868-2.693l-2.781,0.086l-2.779,0.086
		l-2.781,0.085l-2.78,0.086l-2.779,0.086l-2.782,0.086l-5.562,0.173l0,0l-2.692,2.865l-2.693,2.867l-2.779,0.086l-2.697,2.866
		l0.087,2.781l2.869,2.694l2.778-0.086l2.865,2.694l0.088,2.78l2.779-0.086l2.865,2.695l2.868,2.694l2.781-0.087l0.087,2.781
		l2.866,2.696l2.865,2.692l2.781-0.086l2.865,2.694l0.087,2.782l2.868,2.692l0.087,2.782l2.779-0.087l0.087,2.781l2.866,2.693
		l2.783-0.087l0.086,2.78L559.365,96.648z"/>
	<path fill="#F6F3F0" stroke="#000000" stroke-linejoin="round" d="M426.527,31.191l2.778-0.086l5.561-0.172l2.78-0.086
		l-2.866-2.694l2.693-2.868l2.698-2.867l-0.088-2.781l-0.086-2.781l-0.084-2.781l-0.087-2.78l-0.087-2.779l2.777-0.086l-0.087-2.782
		l2.696-2.866l-0.087-2.78l-2.867-2.695l-0.088-2.78L442-8.253l-0.173-5.561l-0.087-2.782l-0.171-5.56l-0.173-5.562l-2.95-5.476
		l-0.173-5.559l-0.087-2.78l-0.172-5.561l-0.087-2.782l2.692-2.866l-0.087-2.779l-0.086-2.782l-5.733-5.387l-2.779,0.086
		l-5.562,0.172l-5.472,2.951l-2.784,0.086l-5.558,0.173l-2.784,0.086l-5.558,0.172l-5.561,0.173l0.086,2.781l0.086,2.783
		l2.868,2.694l0.086,2.779l0.087,2.782l0.086,2.78l-2.694,2.868l-5.564,0.171l-2.607,5.646l2.78-0.086l0.087,2.779l0.086,2.783
		l-2.695,2.866l-2.69,2.866l0.085,2.782l0.087,2.78l0.085,2.779l0.087,2.782l5.731,5.389l5.65,2.607l0.086,2.781l0.085,2.781
		l2.868,2.694l2.781-0.086l2.778-0.086l0.087,2.78l0.173,5.561l-2.693,2.866l2.865,2.694l2.775-0.086l2.873,2.695l2.778-0.086
		l2.865,2.695l0.086,2.781l0.087,2.781l2.869,2.694l0.087,2.778l2.778-0.086L426.527,31.191z"/>
	<path fill="#F6F3F0" stroke="#000000" stroke-linejoin="round" d="M442.776,16.769l2.782-0.086l2.695-2.867l5.646,2.608
		l-0.087-2.781l2.783-0.086l2.779-0.086l-0.087-2.78l2.782-0.086l2.776-0.086l2.786-0.087l-0.174-5.562l2.781-0.086l2.693-2.865
		l-0.086-2.78l-0.086-2.781l2.781-0.087l2.783-0.085l-0.173-5.561l2.69-2.869l-2.864-2.693l-0.086-2.782l-0.085-2.779l-0.088-2.781
		l-0.086-2.781l-0.085-2.78l-2.869-2.692l-0.085-2.783l-0.087-2.78l-0.087-2.78l-0.087-2.781l-0.085-2.781l-0.088-2.78l-2.865-2.695
		l-0.087-2.779l-0.087-2.78l0,0l-2.781,0.086l-2.779,0.086l-2.786,0.087l-5.472,2.952l-2.779,0.086l-2.782,0.087l-2.778,0.085
		l-2.78,0.087l-2.783,0.086l-5.474,2.953l0.087,2.782l0.172,5.561l0.087,2.78l0.173,5.559l2.95,5.476l0.173,5.562l0.171,5.56
		l0.087,2.782L442-8.253l0.085,2.779l0.088,2.78l2.867,2.695l0.087,2.78l-2.696,2.866l0.087,2.782l-2.777,0.086l0.087,2.779
		l0.087,2.78l0.084,2.781l2.864,2.694L442.776,16.769z"/>
	<path fill="#F6F3F0" stroke="#000000" stroke-linejoin="round" d="M429.65,42.226l5.562-0.172l2.779-0.086l5.476-2.954
		l-0.086-2.781l5.563-0.172l2.78-0.086l2.778-0.086l2.782-0.085l2.779-0.087l5.559-0.173l2.785-0.086l5.475-2.953l2.781-0.086
		l2.783-0.086l2.775-0.086l5.563-0.172l2.778-0.086l2.693-2.865l2.782-0.086l2.776-0.086l5.565-0.172l2.693-2.867l2.693-2.867
		l2.779-0.086l-0.085-2.782l2.697-2.867l2.692-2.867l2.693-2.867l2.692-2.867l-2.777,0.086L517.593,6.1l-2.863-2.696l-0.087-2.779
		l-2.87-2.693l-0.086-2.781L511.6-7.63l-2.78,0.086l-2.866-2.693l-2.691,2.865l-2.784,0.086l-2.782,0.087l-2.777,0.086l-2.782,0.086
		l-2.779,0.086l-2.863-2.693l-2.872-2.696l-2.777,0.086l0,0l-2.69,2.869l0.173,5.561l-2.783,0.085l-2.781,0.087l0.086,2.781
		l0.086,2.78l-2.693,2.865l-2.781,0.086l0.174,5.562l-2.786,0.087l-2.776,0.086l-2.782,0.086l0.087,2.78l-2.779,0.086l-2.783,0.086
		l0.087,2.781l-5.646-2.608l-2.695,2.867l-2.782,0.086l0.086,2.781l-2.864-2.694l0.086,2.781l0.088,2.781l-2.698,2.867l-2.693,2.868
		l2.866,2.694l-2.78,0.086l-5.561,0.172l-2.778,0.086l0.085,2.779l0.087,2.78l0.173,5.562l-2.778,0.086l0,0L429.65,42.226z"/>
	<path fill="#F6F3F0" stroke="#000000" stroke-linejoin="round" d="M585.967,56.857l2.779-0.085l2.691-2.867l-0.086-2.78l0.086,2.78
		l-0.086-2.78l2.696-2.866l2.606-5.646l-0.086-2.781l2.867,2.694l-0.086-2.779l2.778-0.086l2.697-2.868l2.78-0.086l-0.086-2.78
		l2.688-2.869l-2.774,0.087l-2.693,2.867l-2.784,0.087l-2.78,0.086l5.564-0.173l-0.172-5.561l0,0l-2.871-2.692l-2.779,0.086
		l2.779-0.086l-0.087-2.781l2.785-0.086l2.865,2.694l2.688-2.866l2.786-0.086l-0.087-2.781l-0.086-2.781l-0.086-2.781l-2.785,0.087
		l0.173,5.563l-0.087-2.782l-2.861-2.695l-2.693,2.867l-2.784,0.087l-2.779,0.086l-0.087-2.781l-0.085-2.781l0.085,2.781
		l2.779-0.086l2.699-2.868l2.779-0.085L606.743,8.9l2.776-0.086l0.085,2.781l-2.947-5.475L606.57,3.34l0,0l-5.477,2.952l-2.78,0.087
		l-2.78,0.085l-2.693,2.867l-2.781,0.086l-2.778,0.086l-5.562,0.172l-2.693,2.867l-5.566,0.173l-2.776,0.086l-5.477,2.954
		l-2.778,0.086l-2.781,0.087l-2.694,2.866l-2.778,0.087l-5.562,0.172l0,0l-2.783,0.086l-2.694,2.868l-2.779,0.086l-2.781,0.086
		l-2.779,0.086l-5.562,0.172l0.086,2.781l0.086,2.78l-2.783,0.087l0.087,2.778l-2.778,0.086l-2.695,2.867l-2.778,0.086l-2.692,2.868
		l0.087,2.781l-2.697,2.868l-2.781,0.086l-2.692,2.865l-2.78,0.086l0.086,2.78l-2.697,2.866l0.085,2.78l-2.78,0.087l0.086,2.78
		l2.782-0.086l2.783-0.087l2.78-0.086l2.777-0.087l2.696-2.865l2.783-0.086l2.779-0.086l2.693-2.867l2.692-2.865l0,0l5.562-0.173
		l2.782-0.086l2.779-0.086l2.78-0.086l2.781-0.085l2.779-0.086l2.781-0.086l2.868,2.693l2.78-0.086l2.781-0.086l2.779-0.086
		l2.693-2.866l5.561-0.172l2.868,2.693l2.866,2.694l2.863,2.694l2.869,2.695l5.564-0.173l0.086,2.781l0,0L585.967,56.857z
		 M610.381,36.62l-0.086-2.78l-2.689,2.867l0.087,2.781L610.381,36.62z M618.38,25.24l-0.086-2.78l-0.087-2.781L618.38,25.24
		l-2.782,0.087L618.38,25.24z M612.389,11.508l-2.955-5.474l0,0l-0.087-2.78L606.57,3.34l2.776-0.086l0.087,2.78l2.869,2.694
		L612.389,11.508l2.865,2.695L612.389,11.508z"/>
	<path fill="#F6F3F0" stroke="#000000" stroke-linejoin="round" d="M514.384-7.717l-0.085-2.779l-0.088-2.783l-0.086-2.779
		l2.778-0.086l2.78-0.086l-0.086-2.781l-0.086-2.78l2.691-2.867l0,0l2.694-2.867l2.782-0.087l2.609-5.646l-0.088-2.783l-0.084-2.78
		l-0.087-2.78l-0.087-2.78l-0.087-2.781l-0.085-2.78l-0.087-2.783l-2.867-2.693l-0.173-5.562l-0.086-2.782l-0.086-2.778
		l-2.955-5.476l-0.088-2.779l-0.086-2.781l-2.777,0.086l-2.694,2.868l-2.78,0.086l-5.476,2.951l-2.694,2.868l-2.694,2.867
		l-2.605,5.647l-2.785,0.086l-5.645-2.61l-2.867-2.691l-2.606,5.646l-2.78,0.086l-2.696,2.869l-5.555,0.173l-2.782,0.086
		l-2.782,0.086l0.087,2.78l0.087,2.779l2.865,2.695l0.088,2.78l0.085,2.781l0.087,2.781l0.087,2.78l0.087,2.78l0.085,2.783
		l2.869,2.692l0.085,2.78l0.086,2.781l0.088,2.781l0.085,2.779l0.086,2.782l2.864,2.693l0,0l2.777-0.086l2.872,2.696l2.863,2.693
		l2.779-0.086l2.782-0.086l2.777-0.086l2.782-0.087l2.784-0.086l2.691-2.865l2.866,2.693l2.78-0.086l0.087,2.781l0,0L514.384-7.717z
		"/>
	<path fill="#F6F3F0" stroke="#000000" stroke-linejoin="round" d="M419.393,70.375l2.778-0.086l2.784-0.087l5.557-0.171
		l2.694-2.867l2.781-0.086l5.563-0.173l0,0l2.779-0.086l2.78-0.087l5.563-0.172l2.69-2.866l5.563-0.172l5.558-0.173l2.785-0.085
		l5.562-0.173l2.78-0.087l2.695-2.867l5.555-0.173l2.785-0.086l2.778-0.086l2.78-0.086l2.695-2.866l2.776-0.086l-0.086-2.78
		l2.78-0.087l-0.085-2.78l2.697-2.866l-0.086-2.78l2.78-0.086l2.692-2.865l2.781-0.086l2.697-2.868l-0.087-2.781l2.692-2.868
		l2.778-0.086l2.695-2.867l2.778-0.086l-0.087-2.778L529.404,28l-0.086-2.78l-0.086-2.781l0,0l-2.783,0.086l-2.692,2.867
		l-2.781,0.086l-2.778,0.086l-2.778,0.086l-2.783,0.086l-2.694,2.867l-2.78,0.086l-8.345,0.259l-2.776,0.086l-2.782,0.086
		l-2.693,2.865l-2.778,0.086l-5.563,0.172l-2.775,0.086l-2.783,0.086l-2.781,0.086l-5.475,2.953l-2.785,0.086l-5.559,0.173
		l-2.779,0.087l-2.782,0.085l-2.778,0.086l-2.78,0.086l-5.563,0.172l0.086,2.781l-5.476,2.954l-2.779,0.086l-5.562,0.172
		l-5.557,0.172l-2.786,0.087l0.086,2.781l0.173,5.56l0.173,5.56l-2.777,0.086l0.087,2.78l0.085,2.781l-2.608,5.647l0.087,2.78l0,0
		L419.393,70.375z"/>
	<path fill="#F6F3F0" stroke="#000000" stroke-linejoin="round" d="M509.941,28.604l2.694-2.867l2.783-0.086l2.778-0.086
		l2.778-0.086l2.781-0.086l2.692-2.867l2.783-0.086l0,0l5.562-0.172l2.779-0.086l2.781-0.086l2.779-0.086l2.694-2.868l2.783-0.086
		l0,0l5.562-0.172l2.778-0.087l2.694-2.866l2.781-0.087l2.778-0.086l5.477-2.954l2.776-0.086l5.566-0.173l2.693-2.867l5.562-0.172
		l2.778-0.086l2.781-0.086l2.693-2.867l2.78-0.085l2.78-0.087l5.477-2.952l0,0l0,0l0,0l-0.086-2.782l0.086,2.782l2.776-0.086
		L606.57,3.34l-0.086-2.782l-2.865-2.692L600.92,0.73l-2.865-2.693l-2.779,0.086l-2.867-2.694l-2.78,0.086l-2.778,0.087l2.778-0.087
		l2.78-0.086l2.781-0.085l0.086,2.779l5.56-0.172l-2.867-2.693l-2.778,0.086l-2.868-2.695l5.562-0.173l-0.086-2.781l-0.087-2.779
		l-2.779,0.086l-2.782,0.087l-2.866-2.697l-2.864-2.693l-2.781,0.086l2.781-0.086l2.864,2.693l2.78-0.086l2.868,2.696l2.779-0.086
		l-0.086-2.782l-2.867-2.693l-2.78,0.086l-2.867-2.696l-2.779,0.086l-2.865-2.693l-2.695,2.865l-0.086-2.779l-0.085-2.78
		l2.692-2.868l-2.865-2.694l0,0l-2.782,0.086l-2.782,0.087l-0.087-2.78l-2.868-2.697l0,0l-2.605,5.65l-0.085-2.78l-2.78,0.086
		l-2.783,0.086l0.086,2.779l-2.69,2.866l0.086,2.782l-2.696,2.866l-2.78,0.086l0.088,2.779l0.085,2.782l-2.779,0.086l-2.781,0.086
		l0.087,2.779l-2.694,2.869l0.085,2.779l0.087,2.78l-2.694,2.868l0.087,2.78l0.086,2.779l-2.695,2.868l-2.78,0.086l-2.695,2.865
		l-2.779,0.086l-2.694,2.866l-2.779,0.086l-2.784,0.086l-2.78,0.086l-0.086-2.78l-2.692,2.867l-2.693,2.867l-2.692,2.867
		l-2.697,2.867l0.085,2.782l-2.779,0.086l-2.693,2.867l-2.693,2.867l2.779-0.087L509.941,28.604z M603.36-10.478l2.693-2.864
		l-0.087-2.783l2.604-5.647l0,0l-2.775,0.086l-2.781,0.085l0.088,2.782l0.086,2.779l0.087,2.782L603.36-10.478l0.087,2.781
		L603.36-10.478z M608.483-24.551L608.483-24.551L608.483-24.551l0.087,2.779L608.483-24.551z"/>
	<path fill="#F6F3F0" stroke="#000000" stroke-linejoin="round" d="M404.218-59.965l5.558-0.172l2.784-0.086l5.558-0.173
		l2.784-0.086l5.472-2.951l5.562-0.172l2.779-0.086l5.476-2.954l-0.173-5.561l-2.863-2.695l-0.087-2.78l-0.087-2.779l-0.086-2.781
		l-0.172-5.561l-0.086-2.78l-0.086-2.781l-0.174-5.561l-0.086-2.781l2.692-2.868l-0.087-2.778l2.694-2.869l-2.866-2.694
		l-2.779,0.086l-2.868-2.694l-2.694,2.866l0.085,2.78l-2.694,2.869l-2.866-2.696l-0.086-2.78l-2.779,0.086l-0.085-2.78l-0.087-2.779
		l-2.779,0.087l-2.87-2.695l-2.777,0.085l-2.78,0.086l-2.785,0.086L405.015-124l-2.779,0.085l-2.78,0.086l-2.782,0.086l-2.867-2.692
		l-2.782,0.086l-2.866-2.696l2.694-2.867l-0.086-2.779l-0.088-2.783l-0.085-2.778l-2.781,0.086l-5.561,0.173l0.087,2.778
		l-2.777,0.085l-2.696,2.87l-2.695,2.865l-2.781,0.086l-2.692,2.867l-2.784,0.086l0.174,5.562l0.086,2.78l0.086,2.782l0.087,2.779
		l-2.778,0.086l-2.692,2.866l2.866,2.694l0.086,2.784l0.086,2.778l0.087,2.782l0.087,2.78l0.172,5.562l5.558-0.173l0.088,2.78
		l5.646,2.608l0.087,2.78l2.781-0.085l2.781-0.086l2.866,2.695l0.086,2.781l0.085,2.78l0.087,2.78l2.869,2.695l0.087,2.778
		l0.086,2.782l2.862,2.695l2.869,2.692l2.782-0.086l2.78-0.086L404.218-59.965z"/>
	<path fill="#F6F3F0" stroke="#000000" stroke-linejoin="round" d="M531.668,11.228l2.694-2.866l2.779-0.086l2.695-2.865l2.78-0.086
		l2.695-2.868l-0.086-2.779l-0.087-2.78l2.694-2.868l-0.087-2.78l-0.085-2.779l2.694-2.869l-0.087-2.779l2.781-0.086l2.779-0.086
		l-0.085-2.782l-0.088-2.779l2.78-0.086l2.696-2.866l-0.086-2.782l2.69-2.866l-0.086-2.779l2.783-0.086l2.78-0.086l0.085,2.78
		l2.605-5.65l0,0l-2.777,0.087l-0.087-2.779l-2.779,0.086l-2.783,0.086l-2.777,0.086l-2.696,2.866l-2.78,0.087l0.086,2.783
		l-2.778,0.085l-2.693,2.865l0.086,2.781l-5.821-8.169l-2.783,0.085l-5.473,2.955l-2.866-2.696l-0.087-2.779l-0.086-2.78
		l-2.866-2.694l-0.087-2.781l-0.085-2.78l0.085,2.78l0.087,2.781l0.087,2.78l0.087,2.78l0.084,2.78l0.088,2.783l-2.609,5.646
		l-2.782,0.087l-2.694,2.867l0,0l-2.691,2.867l0.086,2.78l0.086,2.781l-2.78,0.086l-2.778,0.086l0.086,2.779l0.088,2.783
		l0.085,2.779l-2.697,2.867l0,0l0,0l0.086,2.781l2.87,2.693l0.087,2.779l2.863,2.696l2.868,2.693l2.777-0.086l0.086,2.78l2.78-0.086
		l2.784-0.086L531.668,11.228z"/>
	<path fill="#F6F3F0" stroke="#000000" stroke-linejoin="round" d="M605.536-30.027l2.776-0.086l0,0l-0.087-2.779l0,0l-0.087-2.78
		l-2.861-2.697l-2.779,0.086l-0.086-2.78l-2.871-2.694l-2.865-2.694l-0.087-2.78l2.693-2.867l-2.78,0.086l-2.694,2.867l0.087,2.781
		l2.866,2.694l0.173,5.559l2.866,2.697l0.087,2.779l2.869,2.693L605.536-30.027z"/>
	<path fill="#F6F3F0" stroke="#000000" stroke-linejoin="round" d="M583.206-32.117l-2.78,0.086l0,0l2.865,2.694L583.206-32.117z"/>
	<path fill="#F6F3F0" stroke="#000000" stroke-linejoin="round" d="M608.483-24.551L608.483-24.551L608.483-24.551l-0.087-2.781
		L608.483-24.551z M603.014-21.6l2.781-0.085l2.775-0.086l-0.087-2.779l-0.087-2.781l-0.084-2.781l-2.776,0.086l-2.78,0.086
		l-2.869-2.693l-0.087-2.779l-2.866-2.697l-0.173-5.559l-2.866-2.694l-0.087-2.781l-2.778,0.085l-2.782,0.086l-2.691,2.867
		l-2.782,0.086l-2.78,0.086l-2.781,0.086l-2.695,2.868l-2.783,0.086l-5.556,0.171l-2.784,0.087l-2.691,2.865l-2.783,0.086
		l-2.779,0.086l-2.778,0.087l-2.695,2.866l0.26,8.342l-0.086-2.781l2.693-2.865l2.778-0.085l-0.086-2.783l2.78-0.087l2.696-2.866
		l2.777-0.086l2.783-0.086l2.779-0.086l0.087,2.779l2.777-0.087l2.868,2.697l0.087,2.78l2.782-0.087l5.562-0.172l0.085,2.78
		l0.086,2.781l-2.693,2.867l0.086,2.779l2.695-2.865l2.781-0.086l2.863,2.693l2.781-0.086l2.78-0.086l0,0l-2.866-2.693l-2.868-2.694
		l-0.086-2.781l0.086,2.781l2.781-0.086l-2.781,0.086l-0.173-5.561l-0.087-2.78l-0.085-2.783l-2.864-2.694l2.778-0.085l-0.086-2.779
		l2.78-0.086l-0.086-2.781l2.78-0.086l0.087,2.781l-2.694,2.866l0.085,2.779l0,0l0.088,2.784l2.781-0.086l-2.696,2.865l2.782-0.086
		l2.865,2.693l-2.78,0.086l0.086,2.781l2.866,2.694l2.694-2.866l0.087,2.78L603.014-21.6l-2.696,2.869L603.014-21.6z"/>
	<path fill="#F6F3F0" stroke="#000000" stroke-linejoin="round" d="M610.666-44.1l-0.087-2.781l2.691-2.867l-0.172-5.562
		l-0.087-2.78l-0.086-2.78l-0.086-2.782l2.866,2.696l-2.866-2.696l-0.087-2.782l-0.087-2.778l-2.778,0.086l-0.085-2.781
		l-0.086-2.781l-0.088-2.778l-2.869-2.695l-2.777,0.087l-2.778,0.085l-2.871-2.694l0.086,2.78l0.087,2.781l-2.693,2.866l0.086,2.781
		l0.087,2.781l0.087,2.779l2.779-0.087l2.869,2.696l2.866,2.696l-2.693,2.866l0,0l-2.698,2.865l-2.693,2.869l0.087,2.78l2.866,2.694
		l2.87,2.695l2.779-0.086l2.775-0.086l2.872,2.692L610.666-44.1z"/>
	<path fill="#F6F3F0" stroke="#000000" stroke-linejoin="round" d="M615.361-72.079l2.693-2.868l2.696-2.865l2.776-0.087
		l2.699-2.868l2.777-0.086l-0.086-2.781l2.695-2.865l2.695-2.867l-2.695,2.867l-2.782,0.086l-2.689,2.865l2.689-2.865l-0.086-2.781
		l0.086,2.781l-2.776,0.085l0.087,2.78l-5.479,2.953l-2.779,0.085l-2.694,2.869l-2.782,0.086l0.087,2.779l-0.087-2.779l2.695-2.868
		l-0.087-2.781l-2.867-2.692l-0.085-2.782l-0.086-2.781l-0.173-5.56l-2.779,0.085l-0.086-2.779l0,0l-0.087-2.781l-0.086-2.781
		l-0.087-2.78l-0.085-2.782l0,0l-0.086-2.778l-2.871-2.697l-0.086-2.78l-0.087-2.78l-2.86-2.694l-0.087-2.782l-2.866-2.693
		l-0.087-2.779l-0.172-5.562l-2.87-2.693l-0.087-2.783l-0.086-2.779l0,0l-2.778,0.086l-2.781,0.086l-2.78,0.087l-2.694,2.864
		l-5.561,0.173l-2.779,0.086l0,0l-2.695,2.869l0.085,2.78l-2.695,2.866l-2.697,2.868l0.087,2.779l-2.69,2.866l-2.694,2.868
		l0.173,5.559l0.085,2.781l-2.695,2.87l-2.775,0.086l-2.698,2.864l-2.779,0.086l-2.779,0.086l-2.78,0.086l-2.696,2.869l-2.78,0.085
		l-2.781,0.086l-2.694,2.867l0.087,2.781l0.087,2.781l2.865,2.693l0.087,2.781l-2.693,2.867l-2.696,2.867l-2.693,2.867l0.087,2.779
		l0.086,2.781l2.867,2.695l0,0l2.78-0.087l2.778-0.085l2.696-2.868l5.562-0.173l2.782-0.086l2.691-2.866l2.781-0.086l5.56-0.172
		l2.695-2.865l2.782-0.086l2.776-0.086l2.782-0.087l5.478-2.954l2.781-0.086l2.78-0.085l2.691-2.867l2.868,2.694l2.778-0.086
		l0.088,2.782l2.866,2.692l2.779-0.086l2.871,2.694l2.778-0.085l2.777-0.087l2.869,2.695l-0.085-2.781l-0.087-2.781l0.087,2.781
		l2.863,2.695l0.087,2.779l0,0l0.086,2.78L615.361-72.079z"/>
	<path fill="#F6F3F0" stroke="#000000" stroke-linejoin="round" d="M541.321-36.385l2.783-0.085l5.562-0.172l2.695-2.866
		l2.778-0.087l2.779-0.086l2.783-0.086l2.691-2.865l2.784-0.087l5.556-0.171l2.783-0.086l2.695-2.868l2.781-0.086l2.78-0.086
		l2.782-0.086l2.691-2.867l2.782-0.086l2.778-0.085l2.694-2.867l2.78-0.086l-0.087-2.782l2.698-2.865l2.693-2.866l-2.866-2.696
		l-2.869-2.696l-2.779,0.087l-0.087-2.779l-0.087-2.781l-0.086-2.781l2.693-2.866l-0.087-2.781l-0.086-2.78l-2.779,0.086
		l-2.866-2.692l-0.088-2.782l-2.778,0.086l-2.868-2.694l-2.691,2.867l-2.78,0.085l-2.781,0.086l-5.478,2.954L570.44-84.6
		l-2.776,0.086l-2.782,0.086l-2.695,2.865l-5.56,0.172l-2.781,0.086l-2.691,2.866l-2.782,0.086l-5.562,0.173l-2.696,2.868
		l-2.778,0.085l-2.78,0.087l0,0l-2.867-2.695l-0.086-2.781l-0.087-2.779l-2.779,0.086l-2.696,2.865l-2.696,2.867l0.086,2.781
		l0.088,2.779l2.955,5.476l0.086,2.778l0.086,2.782l0.173,5.562l2.867,2.693l0.087,2.783l0.085,2.78l0.087,2.781l2.866,2.694
		l0.086,2.78l0.087,2.779l2.866,2.696L541.321-36.385z"/>
	<path fill="#F6F3F0" stroke="#000000" stroke-linejoin="round" d="M638.66-128.465l-0.086-2.781l-0.086-2.779l-0.087-2.782
		l-0.087-2.78l2.784-0.086l2.694-2.866l-2.868-2.697l2.781-0.086l-0.086-2.777l2.865,2.691l-0.086-2.778l2.78-0.086l-0.086-2.781
		l-0.086-2.781l-0.086-2.78l-0.087-2.78l2.867,2.694l2.78-0.087l-0.088-2.78l2.698-2.868l2.777-0.086l-0.087-2.779l2.783-0.086
		l2.692-2.867l0,0l-0.087-2.781l-0.085-2.779l-2.865-2.695l-2.783,0.087l-0.087-2.78l-2.862-2.696l-2.782,0.087l-2.867-2.695
		l-0.087-2.781l-0.085-2.78l-2.868-2.694l-2.953-5.475l-0.086-2.781l-2.953-5.476l-2.778,0.086l-2.871-2.693l-2.692,2.865
		l-2.694,2.867l-2.781,0.086l0,0l-0.087-2.781l-2.693,2.868l-2.692,2.867l0.173,5.561l0.087,2.781l0.087,2.78l0.171,5.562
		l0.086,2.78l0.088,2.781l0.085,2.779l0.087,2.782l0.086,2.779l-2.7,2.867l2.873,2.695l-2.786,0.086l-2.689,2.865l2.861,2.696
		l0.086,2.78l0.088,2.78l2.87,2.695l0,0l2.864,2.695l0.088,2.778l0.086,2.783l2.866,2.693l0.086,2.781l0.087,2.783l2.868,2.693
		l2.865,2.693l0.087,2.782L638.66-128.465z"/>
	<path fill="#F6F3F0" stroke="#000000" stroke-linejoin="round" d="M443.401-52.829l2.783-0.086l2.78-0.087l2.778-0.085l2.782-0.087
		l2.779-0.086l5.472-2.952l2.786-0.087l2.779-0.086l2.781-0.086l0,0l2.782-0.086l2.782-0.086l5.555-0.173l2.696-2.869l2.78-0.086
		l2.606-5.646l-0.087-2.781l-0.087-2.781l2.697-2.865l2.69-2.868l-0.086-2.78l-0.087-2.78l-0.086-2.78l2.695-2.868l-0.086-2.781
		l-0.173-5.56l-2.867-2.696l-0.087-2.78l-0.086-2.78l-2.949-5.473l-0.087-2.783l-2.868-2.694l-0.086-2.781l-2.951-5.475
		l-2.779,0.086l-5.649-2.607l-2.861-2.693l-2.869-2.696l-0.086-2.78l-2.782,0.086l-2.78,0.086l-2.866-2.693l-0.087-2.783
		l-2.785,0.087l-2.689,2.869l-2.87-2.697l-0.085-2.777l-2.865-2.694l-2.869-2.696l-2.777,0.086l-5.65-2.607l-2.781,0.085
		l-2.777,0.086l-2.87-2.694l-2.779,0.086l-2.869-2.695l-2.779,0.086l-5.644-2.607l-2.784,0.086l-2.864-2.695l-5.565,0.173l0,0
		l-2.688,2.866l-5.475,2.953l-2.78,0.086l0.085,2.781l-2.694,2.866l0.086,2.781l-2.524,8.426l0.088,2.783l0.086,2.779l-2.694,2.867
		l2.866,2.696l2.782-0.086l2.867,2.692l2.782-0.086l2.78-0.086l2.779-0.085l2.862,2.693l2.785-0.086l2.78-0.086l2.777-0.085
		l2.87,2.695l2.779-0.087l0.087,2.779l0.085,2.78l2.779-0.086l0.086,2.78l2.866,2.696l2.694-2.869l-0.085-2.78l2.694-2.866
		l2.868,2.694l2.779-0.086l2.866,2.694l-2.694,2.869l0.087,2.778l-2.692,2.868l0.086,2.781l0.174,5.561l0.086,2.781l0.086,2.78
		l0.172,5.561l0.086,2.781l0.087,2.779l0.087,2.78l2.863,2.695l0.173,5.561l0.258,8.341l0.086,2.782l0.087,2.779L443.401-52.829z"/>
	<path fill="#F6F3F0" stroke="#000000" stroke-linejoin="round" d="M-21.225-316.735l-0.087-2.781l2.781-0.087l2.608-5.646
		l-0.086-2.781l-0.087-2.781l2.696-2.866l0,0l-2.867-2.695l-0.086-2.781l-2.867-2.694l-2.867-2.694l-0.086-2.781l-2.867-2.695
		l-0.086-2.778l2.694-2.869l-2.867-2.692l2.695-2.868l-0.086-2.781l-0.086-2.78l-0.086-2.78l-0.172-5.562l-0.086-2.779l-0.173-5.563
		l-2.953-5.474l-0.086-2.781l-0.172-5.56l-0.086-2.782l-2.867-2.693l-0.087-2.781l2.694-2.866l-2.866-2.694l-2.782,0.086
		l-2.865-2.693l-2.694,2.865l-2.695,2.866l-2.78,0.087l-8.342,0.259l2.695-2.868l-2.954-5.474l-0.346-11.122l-2.867-2.692
		l5.391-5.734l-5.649-2.61l-2.694,2.868l-2.867-2.696l-2.953-5.473l2.694-2.869l2.608-5.646l2.694-2.868l2.609-5.644l2.695-2.87
		l2.607-5.645l2.695-2.868l2.607-5.647l2.695-2.867l5.386-5.732l2.695-2.868l2.608-5.647l2.695-2.866l2.608-5.648l2.694-2.867
		l2.608-5.646l2.694-2.868l5.388-5.732l2.694-2.866l2.609-5.648l2.692-2.867l2.608-5.647l2.695-2.867l2.605-5.648l5.478-2.953
		l2.608-5.646l2.692-2.866l2.611-5.647l2.693-2.868l2.606-5.647l5.476-2.952l2.695-2.869l-2.869-2.693l-0.085-2.78l-2.866-2.694
		l-0.086-2.78l-0.086-2.78l-2.867-2.696l-2.78,0.086l-2.781,0.086l-2.87-2.693l-0.086-2.781l-2.864-2.695l-2.868-2.695l-2.866-2.693
		l-0.087-2.781l-2.87-2.694l-0.086-2.781l-0.087-2.779l-2.863-2.694l-2.781,0.086l-2.868-2.693l-2.778,0.086l-0.173-5.562
		l-2.868-2.695l2.868,2.695l-0.086-2.781l2.779-0.086l-0.086-2.779l-2.866-2.696l-5.648-2.608l-0.086-2.779l2.781-0.087
		l-0.087-2.779l-2.781,0.086l-2.779,0.085l-2.781,0.086l-0.086-2.783l5.561-0.172l0,0l-0.087-2.778l2.695-2.868l-2.867-2.695
		l-5.474,2.954l-2.78,0.086l-2.781,0.086l-2.867-2.695l-2.866-2.693l0,0l-2.866-2.694l-2.695,2.867l0.086,2.78l-2.868-2.694
		l-2.692,2.866l2.692-2.866l2.696-2.867l-5.56,0.173l-2.78,0.087l-2.868-2.695l-2.78,0.085l2.78-0.085l-2.78,0.085l-2.781,0.086
		l-2.78,0.086l-2.781,0.086l-2.781,0.086l-2.694,2.868l-2.781,0.085l-5.56,0.173l-2.782,0.086l-2.865-2.695l-2.867-2.694
		l-2.867-2.695l-2.781,0.086l-2.693,2.867l0,0l-5.56,0.173l0.086,2.78l0.086,2.781l0.172,5.561l0.087,2.781l-2.694,2.868
		l0.172,5.561l-2.694,2.866l-2.694,2.866l0.086,2.78l2.867,2.695l2.781-0.085l-2.781,0.085l2.868,2.694l0.086,2.781l-2.781,0.086
		l-2.781,0.086l0.173,5.561l2.781-0.085l0.086,2.78l2.867,2.695l-2.695,2.866l-2.867-2.693l-0.172-5.562l-2.78,0.086l2.606-5.647
		l0,0l2.608-5.647l-2.694,2.866l0.085,2.781l-2.692,2.866l-2.696,2.868l2.782-0.086l0.173,5.562l-2.782,0.086l2.695-2.868
		l-2.781,0.086l-5.562,0.172l-0.086-2.78l-2.866-2.695l-0.086-2.781l-2.866-2.694l2.693-2.866l2.78-0.087l2.696-2.869l-2.869-2.694
		l-2.781,0.087l-2.78,0.085l-0.086-2.778l-5.563,0.171l0.087,2.78l-2.865-2.693l-0.086-2.78l-5.563,0.173l-2.865-2.697l-2.779,0.086
		l-0.087-2.777l-2.695,2.864l0.172,5.562l0.086,2.779l0.086,2.781l-2.779,0.086l-0.086-2.781l-2.695,2.866l0.086,2.783l-2.694,2.867
		l0.086,2.78l0.086,2.781l0.086,2.781l2.867,2.694l2.868,2.695l0.086,2.78l2.865,2.694l0.086,2.781l2.695-2.866l0.087,2.78
		l0.086,2.781l2.779-0.086l2.779-0.085l2.782-0.087l0.087,2.78l5.56-0.171l-2.692,2.867l-2.695,2.868l-2.782,0.086l-2.866-2.695
		l0.087,2.78l0.086,2.781l-2.693,2.866l-2.695,2.868l-2.694,2.867l-2.78,0.087l-2.867-2.695l-2.954-5.474l-2.78,0.086l-2.782,0.086
		l-2.694,2.865l-2.867-2.693l-2.867-2.694l2.781-0.086l-0.087-2.782l-2.867-2.695l-2.694,2.868l-2.864-2.694l-2.696,2.867
		l0.086,2.781l2.782-0.086l-5.562,0.173l0.086,2.78l-0.086-2.78l-2.868-2.695l-2.781,0.086l-2.781,0.086l-2.694,2.868l-2.693,2.866
		l-2.868-2.694l0.086,2.781l-2.865-2.694l-2.608,5.645l0.086,2.782l0.086,2.78l2.695-2.866l2.865,2.694l2.782-0.086l-2.782,0.086
		l-2.779,0.086l-2.78,0.086l0.086,2.78l-2.695,2.867l0,0l0,0l0,0l0,0l-2.779,0.086l-2.694,2.866l-2.782,0.086l2.782-0.086
		l-2.696,2.866l0.173,5.561l-2.694,2.867l0.086,2.781l0.085,2.782l2.867,2.694l2.868,2.693l2.78-0.086l2.78-0.086l2.695-2.866
		l2.781-0.086l2.692-2.866l2.868,2.695l-2.781,0.086l-2.779,0.085l-2.695,2.867l-2.781,0.086l0.086,2.78l-2.694,2.869l-2.694,2.865
		l-2.695,2.866l-2.781,0.086l0.087,2.781l0.086,2.781l-2.779,0.086l-2.695,2.866l-2.781,0.087l2.868,2.694l2.78-0.087l2.866,2.695
		l2.781-0.086l2.867,2.695l0.086,2.78l0.086,2.782l2.693-2.868l0.087,2.782l-2.694,2.865l0.173,5.561l0.086,2.781l2.694-2.868
		l2.693-2.865l2.781-0.086l2.781-0.086l0.086,2.778l-0.086-2.778l-2.781,0.086l0.087,2.778l0.086,2.781l2.78-0.086l2.865,2.694
		l2.782-0.086l2.779-0.087l-2.779,0.087l-2.695,2.866l-2.779,0.086l-2.78,0.086l-2.694,2.867l0.086,2.781l-2.78,0.086l0,0
		l-2.694,2.867l-2.695,2.867l-2.695,2.866l-0.086-2.779l-2.78,0.086l-2.78,0.086l-5.561,0.172l-2.695,2.866l-2.78,0.086l-0.086-2.78
		l-2.781,0.086l-2.781,0.087l-5.561,0.172l-2.868-2.694l-2.691,2.866l-2.781,0.087l-2.695,2.866l0.086,2.78l-0.086-2.78l-2.78,0.086
		l2.694-2.867l-2.867-2.694l-2.866-2.695l-2.781,0.087l-2.782,0.086l-5.561,0.172l-2.78,0.086l-2.866-2.694l-5.476,2.953
		l0.086,2.782l2.693-2.868l0.087,2.782l2.782-0.086l2.78-0.086l-2.693,2.866l0,0l5.56-0.172l2.78-0.087l2.78-0.086l2.781-0.086
		l0.086,2.78l-2.867-2.693l0.086,2.779l2.867,2.695l2.782-0.086l0.086,2.781l2.694-2.868l2.867,2.695l2.781-0.085l2.781-0.087
		l-2.695,2.865l2.781-0.086l2.778-0.086l2.867,2.695l2.782-0.085l2.78-0.087l-2.78,0.087l2.78-0.087l2.781-0.086l-0.086-2.781
		l2.695-2.865l2.865,2.691l2.781-0.086l2.78-0.086l2.781-0.085l2.867,2.695l2.78-0.086l2.781-0.086l0,0l2.695-2.868l2.781-0.087
		l2.78-0.086l2.781-0.086l2.78-0.086l2.779-0.085l2.782-0.087l2.78-0.086l2.779-0.086l2.867,2.695l-0.085-2.781l2.78-0.086
		l2.781-0.087l2.78-0.086l2.782-0.086l2.692-2.865l-0.086-2.782l-0.086-2.78l-2.865-2.694l2.778-0.086l2.781-0.086l2.695-2.867
		l2.78-0.085l2.781-0.087l0.085,2.78l2.783-0.086l-0.086-2.78l2.866,2.694l2.695-2.867l-0.086-2.782l-0.086-2.781l2.867,2.694
		l2.78-0.086l2.78-0.085l2.696-2.867l2.865,2.695l2.692-2.867l2.782-0.086l2.782-0.086l2.778-0.085l5.562-0.173l0.087,2.78
		l2.78-0.086l2.781-0.086l2.868,2.696l-5.648-2.609l-2.694,2.867l0.087,2.781l0.086,2.781l2.866,2.694l-2.952-5.475l-2.781,0.086
		l-2.869-2.694l-2.778,0.086l-2.781,0.086l-2.782,0.086l-2.692,2.866l-2.779,0.086l-2.695,2.867l-2.78,0.086l-2.694,2.867
		l-2.694,2.868l2.78-0.086l2.868,2.692l-2.781,0.086l-2.781,0.087l-2.781,0.086l-2.693,2.868l2.779-0.086l2.781-0.086l2.867,2.694
		l2.781-0.085l2.78-0.086l2.781-0.086l-2.781,0.086l2.781-0.086l2.779-0.086l2.692-2.867l0.086,2.781l2.782-0.086l2.695-2.867
		l-2.695,2.867l2.868,2.694l0,0l5.561-0.173l-0.086-2.78l2.78-0.086l2.78-0.087l2.693-2.867l-2.78,0.086l-2.867-2.695l5.646,2.609
		l-0.085-2.782l-2.781,0.086l-0.086-2.779l5.563-0.171l-0.086-2.783l2.866,2.696l2.782-0.086l-2.782,0.086l-2.694,2.865l2.78-0.086
		l2.782-0.086l-2.695,2.868l2.782-0.087l2.779-0.085l2.781-0.086l2.867,2.694l-2.867-2.694l-2.695,2.867l0.087,2.781l-2.78,0.086
		l2.78-0.086l2.867,2.694l0.086,2.781l-2.694,2.865l2.78-0.086l0.086,2.781l5.561-0.172l2.779-0.086l-2.692,2.868l-2.78,0.087
		l0.086,2.778l2.867,2.693l-2.694,2.868l2.781-0.087l2.865,2.693l2.782-0.086l2.866,2.695l2.866,2.696l2.868,2.693l2.781-0.086
		l2.865,2.693l-2.692,2.869l2.865,2.693l2.868,2.696l2.78-0.086l2.779-0.086l2.782-0.086l2.866,2.693l0.086,2.78l-2.866-2.694
		l0.087,2.781l-0.087-2.781l-0.086-2.779l-2.782,0.086l0.086,2.779l-2.78,0.086l0.172,5.563l2.867,2.694l0.086,2.778l2.867,2.696
		l0.086,2.779l0.086,2.781l2.866,2.694l0.171,5.56l0.086,2.782l2.868,2.695l0.086,2.779l2.695-2.866l2.866,2.694l-0.172-5.561l0,0
		l-0.086-2.781l-0.086-2.78l-2.866-2.695l2.78-0.086l0.086,2.782l2.867,2.693l0,0l2.693-2.866l0.087,2.779l-2.694,2.868l0.086,2.781
		l0.087,2.78l2.78-0.086l0.086,2.781l2.868,2.695l-0.086-2.782l-0.086-2.782l2.694-2.866l-0.086-2.781l-0.086-2.782l-0.087-2.78
		l2.864,2.693l-0.086-2.779l-0.085-2.781l0.085,2.781l0.172,5.562l-2.777,0.086l0.172,5.561l0.085,2.781l0.087,2.782l2.778-0.086
		l0.086,2.779l2.782-0.086l2.694-2.865l-2.694,2.865l-2.695,2.867l0.085,2.781l2.782-0.085l-2.782,0.085l0.087,2.78l2.781-0.086
		l2.781-0.086l-2.781,0.086l0.087,2.781l0.086,2.781l-2.868-2.695l2.868,2.695l-2.695,2.866l0.086,2.78l-2.778,0.086l2.865,2.695
		l0.086,2.781l0.087,2.779l2.867,2.696l-2.696,2.866l0.086,2.78l2.868,2.694l0.086,2.781l2.781-0.086l-2.781,0.086l-2.695,2.866
		l-2.692,2.867l-2.78,0.087l2.953,5.475l2.692-2.867l-0.086-2.781l2.781-0.086l2.781-0.086l2.781-0.086l-2.781,0.086l2.954,5.475
		l-2.694,2.867l0.085,2.781l0.087,2.782l-2.781,0.085l0,0l2.781-0.085l2.78-0.086l-2.78,0.086l-2.695,2.865l-2.782,0.085
		l0.086,2.782l2.782-0.087l2.866,2.694L-21.225-316.735z M-27.045-324.903l2.695-2.868l-0.087-2.78l-0.086-2.781l-0.086-2.781
		l-2.781,0.086l-2.695,2.867l0.086,2.781l-2.778,0.086l2.864,2.695l2.782-0.087l-0.086-2.78l0.086,2.78l-2.695,2.868l2.695-2.868
		l-2.695,2.868L-27.045-324.903z M-46.507-324.3l-0.086-2.781l-0.086-2.781l0,0l-2.696,2.868L-46.507-324.3l0.086,2.781
		L-46.507-324.3z M-30.344-341.501l-2.865-2.695l-0.086-2.78l-2.693,2.866l2.866,2.694l0.086,2.78L-30.344-341.501z
		 M-30.431-344.282l-0.086-2.781L-30.431-344.282l2.868,2.694L-30.431-344.282z M-38.081-321.778l-2.866-2.695l5.562-0.172
		l-2.868-2.695l2.696-2.867l-2.868-2.694l-2.779,0.086l2.779-0.086l2.868,2.694l-0.087-2.78l-0.173-5.563l-0.086-2.779l-2.867-2.694
		l-0.086-2.78l-0.086-2.782l-2.78,0.087l0,0l0.086,2.78l0,0l0,0l0,0l0,0l0,0l-2.694,2.867l2.781-0.086l-0.087-2.781l0,0l0.087,2.781
		l-2.695,2.867l0.086,2.78l2.868,2.694l-2.695,2.868l-2.78,0.086l2.867,2.694l2.866,2.694l-2.694,2.867l2.867,2.694l-2.695,2.865
		l2.782-0.086L-38.081-321.778z M-33.381-349.757L-33.381-349.757l-2.694,2.868l2.78-0.086L-33.381-349.757z M-44.59-352.191
		l2.781-0.086l-0.086-2.782l-0.086-2.779l-0.086-2.781l0,0l-2.867-2.695l0.086,2.781l0.086,2.781L-44.59-352.191l-2.78,0.086
		l0.086,2.779L-44.59-352.191l-2.693,2.865L-44.59-352.191z M-30.689-352.622l-0.085-2.783l-2.779,0.086l0.086,2.782l0.086,2.779
		L-30.689-352.622z M-50.238-354.801l2.695-2.864l-0.085-2.781l-0.087-2.781l2.693-2.866l-0.172-5.562l-0.085-2.781l-2.781,0.086
		l0,0l-2.781,0.085l0.173,5.562l0.086,2.78l-2.695,2.867l2.782-0.086l-2.695,2.868l2.782-0.087l-2.782,0.087l0.086,2.781
		l2.953,5.473L-50.238-354.801z M-36.248-352.45l-0.086-2.782l2.867,2.696l2.693-2.869l-2.865-2.692l-2.867-2.695l-0.086-2.781
		l-2.782,0.086l0.087,2.781l0.085,2.781l-2.693,2.865l2.866,2.696l2.868,2.692L-36.248-352.45z M-50.755-371.483l-2.868-2.695
		l0.086,2.781l0.087,2.781L-50.755-371.483z M-42.5-374.523l-0.085-2.779l-2.867-2.695l-0.086-2.781l2.867,2.694l2.779-0.085
		l-0.085-2.781l-0.086-2.778l-2.78,0.086l-0.086-2.782l-2.781,0.087l-2.866-2.696l0.086,2.781l-2.781,0.087l0.086,2.782l0.086,2.778
		l-0.086-2.778l0.086,2.778l0.085,2.781l-2.695,2.868l2.868,2.692l2.695-2.864l-0.086-2.782l2.866,2.696l0.087,2.779L-42.5-374.523z
		 M-42.24-366.18l2.78-0.086l-0.087-2.78l2.782-0.087l2.694-2.866l-0.086-2.781l-2.867-2.693l2.781-0.086l0.086,2.779l0.086,2.781
		l-0.086-2.781l2.606-5.647l-2.865-2.694l-2.866-2.692l-0.086-2.782l0.086,2.782l0.086,2.778l0.086,2.781l-2.696,2.868l0.087,2.78
		l0.086,2.78l-2.694,2.868l-2.781,0.086l0.086,2.781L-42.24-366.18z M-173.076-456.748l-0.087-2.783l2.694-2.868l-2.867-2.693
		l-2.781,0.086l2.781-0.086l-2.868-2.695l-2.78,0.086l-2.695,2.868l2.695-2.868l-2.867-2.694l-2.694,2.867l0.086,2.782l-2.779,0.085
		l0.086,2.779l-0.086-2.779l2.693-2.868l-2.865-2.694l-2.782,0.087l0,0l-2.693,2.866l-2.694,2.867l0.086,2.779l2.867,2.695
		l-0.087-2.782l-2.867-2.692l2.867,2.692l2.865,2.695l-2.778,0.087l-2.694,2.869l2.78-0.086l2.779-0.086l0,0l2.695-2.87l2.78-0.085
		l2.866,2.697l2.781-0.086l-0.086-2.783l0,0l2.867,2.696L-173.076-456.748z M-101.041-467.333L-101.041-467.333l-2.869-2.695
		l0.087,2.781L-101.041-467.333z M-112.165-466.989l2.78-0.086l2.695-2.868l0,0l-2.695,2.868L-112.165-466.989l-2.78,0.086
		l-2.694,2.865l2.78-0.087L-112.165-466.989z M-164.995-465.35l2.695-2.868l-2.781,0.086l-2.865-2.694l0,0l0,0l-2.696,2.867
		l-2.866-2.694l0.085,2.781l2.867,2.694l2.782-0.086L-164.995-465.35z M-109.557-472.636l-0.086-2.781l0,0l-2.693,2.866l0.085,2.78
		L-109.557-472.636z M-257.01-470.845l2.696-2.867l0,0l-2.781,0.085l-2.695,2.867L-257.01-470.845z M-257.269-479.187l-2.781,0.087
		l0.086,2.778l2.781-0.086L-257.269-479.187z M-279.857-489.619l-0.173-5.562l-0.086-2.78l-2.781,0.087l-2.78,0.086l-2.867-2.694
		l-2.782,0.086l-2.694,2.866l0.086,2.781l2.781-0.087l2.781-0.085l2.952,5.476l2.781-0.085l2.866,2.694L-279.857-489.619z
		 M-313.567-499.707l2.781-0.086l2.693-2.866l-5.56,0.172l2.694-2.867l-2.867-2.692l-2.695,2.865l0.086,2.781l-2.868-2.694
		l-2.693,2.867l0,0l-2.867-2.694l-2.695,2.867l2.781-0.087l2.781-0.086l2.866,2.694l2.781-0.087l2.868,2.694L-313.567-499.707z
		 M-325.035-510.483L-325.035-510.483l-5.561,0.173l-2.78,0.086l-2.781,0.086l-2.781,0.086l-2.781,0.086l2.867,2.695l2.782-0.087
		l2.78-0.086l2.78-0.086l5.562-0.172L-325.035-510.483z M-211.293-522.36l-0.086-2.781l-2.78,0.086l-2.694,2.867l2.78-0.086
		L-211.293-522.36z M-375.948-536.737l-0.085-2.779l0,0l-2.866-2.695l0.087,2.781L-375.948-536.737l0.087,2.781l2.867,2.694
		L-375.948-536.737z M-376.206-545.078l2.78-0.086l-2.867-2.694l-2.693,2.866l-2.87-2.694l-2.865-2.694l-0.085-2.781l0.085,2.781
		l2.865,2.694l2.87,2.694l0.085,2.781L-376.206-545.078z M-393.32-558.464l-0.087-2.778l-0.086-2.783l-2.781,0.086l-2.693,2.869
		l2.866,2.693L-393.32-558.464z M-198.684-564.501l-2.781,0.086l2.694-2.866l-5.647-2.609l2.78-0.085l-0.086-2.781l-0.087-2.78l0,0
		l2.868,2.694l0.086,2.78l2.867,2.696l-2.78,0.085L-198.684-564.501z M-399.313-572.193l-2.865-2.694l0.086,2.78l0.086,2.78
		L-399.313-572.193z M-218.32-569.458l2.694-2.866l-0.086-2.78l-0.086-2.78l0,0l-2.867-2.694l-2.781,0.086l-2.866-2.695l0.086,2.78
		l0.086,2.781l-2.695,2.867l2.867,2.694l2.866,2.694L-218.32-569.458z M-416.771-596.701l-0.086-2.78l-0.086-2.78l0,0l0.086,2.78
		L-416.771-596.701l0.173,5.562L-416.771-596.701z M-411.813-616.336l-2.78,0.086l-2.781,0.086l2.781-0.086L-411.813-616.336z
		 M-242.117-618.816l-0.173-5.561l-2.608,5.647l2.867,2.694L-242.117-618.816z M-181.119-626.275l-2.867-2.694l-0.086-2.782
		l-0.086-2.781l2.694-2.865l-0.086-2.779l-2.78,0.086l-0.086-2.783l-2.867-2.691l-0.087-2.781l-2.693,2.868l0,0l0.086,2.777
		l2.867,2.697l0,0l0.086,2.779l-2.694,2.866l0.086,2.78l0.086,2.782l2.867,2.694l2.867,2.694L-181.119-626.275z M-418.583-655.091
		L-418.583-655.091l-2.866-2.695l0.087,2.781L-418.583-655.091z M-410.586-666.471l-0.086-2.78l-2.78,0.086l-2.78,0.086l2.866,2.693
		l0.085,2.782L-410.586-666.471z"/>
</g>
<g id="admin1">
	<path fill="#F6F3F0" stroke="#000000" stroke-linejoin="round" d="M47,191l1-1l-1-1v-1v-1h-1v2v1l-1,1l1,1l1,1V191z M84,185l-1-1
		L84,185l1,1L84,185z M84,196l-1-1v-1l1-1l-1-1v-2v-1l-1-1h-1l-2-1v-2v-1v-2l-1-1l-2,1v-2v-1h-1l-1,1v-2l-1-1l1-1l-1-1l-1-1v-1l-1-2
		l-2-3l-2-1l-1-1l-1-2l-1-1h-1l-1-1v-1l-1-1l-1-1v-1l-1-2v-1v-1v-2l1-2l-1-1v-1v-1v-2v-2v-1l-2-1l1-1l-1-1v-1l1-6l1-1v-1v-1v-2l-1-1
		l-1-1l0,0h1v-1v-1l-1-1l1-1l-1-1v-1v-1l1-1v-1l1-1h1l0,0h1v-2l1-1v-1h-1h-2h-1h-1h-1h-1h-1h-1h-1h-1h-1h-1h-1h-2h-1h-1h-1h-1h-1h-1
		h-1h-1h-1h-1h-2h-1h-1h-1h-1h-1h-1h-1v2v1l1,2l1,1v1v1l1,2h1v1l1,1l1,1l-1,1l-1,1l1,1l-1,1l1,1v1l1,1l1,1v1l1,2l1,1v2l-1,1l1,1l1,1
		l2,2v1v2l-1,3l1,1l1-1l-1-1l1,1l-1,1h1l1,1l1,1v2l-1,1v2v1h1v1v1v2l2,1l1,1l1,1l1,1h1l1,1v1h1l3,2l1,2l2,1v1l1,1v2l1,1h1l1,1v1l1,1
		l1,1v1h1l1,2l0,0l1,1v2l-1,1v1v1v1l-1,1v1l-1,1l0,0h3h2h3h3l3,1h3h2H84z M80,178l-1-1v-1v-3h-2l-1-1l1-1l-1-1l-1-2h-1l0,0v1l-1,1
		l1,1v2h1l1,1l1,1l2,3H80z M2,172v-3l-1-1l1-1H1l-1,1v1l1,1v2l1,1V172z"/>
	<path fill="#F6F3F0" stroke="#000000" stroke-linejoin="round" d="M123,289l2-1l0,0l1-1l1-1l3-1v-1l1-1v-1l1-2l-1-1v-1l-1-1l-1-1
		l-2-1v-1v-1l-1-1l-1-1v-1v-2l-2,1v-2v-1h-2l-1-2l-1-1h-1v1v1l-1,2h-1v-1h1h-1l-1-1h-1l-1-2l-1-1v-1v-1l-1-2l1-2l1-1v-1v-1l-1-1v-1
		l-1-1l-1-1l-1-2v-1v-1l-1-1v-1l-1-2h-1l-1-1v-1v-1l-1-1l-1-2v-1l1-1v-1l-1-2v-2v-1l-1-1v-1v-1l-1-1v-1v-2l-1-1l-1-1h-1h-1v1v1l1,1
		l1,1l-2,1v-1l-1-1v-1v-1v-1l-1-1v-1l-1-1v-1l1-1l-2-1h-1l-1-1v-2h-1v-2v-1l-1-1l-1-1l-1-1h-1v-1l-1-1v-1l-1-1v-2v-1h-3h-2h-3l-3-1
		h-3h-3h-2h-3l0,0h-1v1h1v1v1v1l1,1l1-1h1l1,1l-1,1h-1h-1l-1-1h-1l-1-1v-1v-1h-1l-1,1h-1l-3-1h-1l-2-1h-1h-2l1,1v1l1,1h1v1l1,1l1,1
		h1l1,1v1l1,1v1v2l1,1h1l1,1l1-1l1,1l1,1l1,1l1,1h2l1,1v1v1l1,1l1,1l1-1h1l1-1l1,1h1l1-1l1-1h1v1h-1v2l1-1l-1,1l1,1v1l1,1l1,1l1,1
		l1,1l1,1l1,1h1l1,1h2v1l1,2l1,1l1,1v1l1,4v3v-1l1-1l-1,2v1v1v4l-1,1v2l-1,1v1l1-1v-1v2v1v1l1,1v-1v1l1-1v-1v1l1,2l0,0l1,1l1,2h1v-1
		l1,1v1l1,1l1,1l1,1l1,1l-2-1l4,2l1,1l2,1l1,1l1,1l1,1v1l1,1l2,2l1,1l3,2l1,1l1,2l1,1v1l1,2v2v2l1,1l1,1H123z M126,266l-1-1v-1l-1-1
		v1l1,2H126z M98,261h-1H98h1H98z M118,261v-1h-1v1l1,1V261z M96,261l-1-2l-1-1h-1h-2l1,1h1l1,1l1,1l1,1V261z M114,251l-1-1v-1h-1
		l0,0v1l1,1l1,1l1,1L114,251z M90,256h-1v-2v-1l-1-1l1-2v-1l1-3v-1v1v1l-1,2l-1,3l-1,1h1l1,1v2l1,1l0,0V256z M106,235l1-2l1-1h-1
		l-1,1v1l-1,1v2L106,235z"/>
	<path fill="#F6F3F0" stroke="#000000" stroke-linejoin="round" d="M269,262l1-2v-1v-2v-1v-1v-1l-1-1l1-1h1l1-1h1h1h1h1h1l1-1v-1h-1
		l-1-1l-1,1l-1-1l-1-1l-1-1l-1-1h2h-1l-1-1h-1v-1l-1-1l-1-2l1-1l-1-1l-1-1v-2h-1l-1-1v-1l-1-1l-1-1l1-1l1-1l1-1l1-1l1-1l2-2v1v1h1
		l1-1l1-2v-2v-1v-1l-1-1h-1l-1,1l-1-1v-1v-1l1-1h1l1-1l1-1h1l1-1v-2v-1l1-1l1-1l1-1h1l1,1l1,1h1l1-1l0,0l1-1l0,0l-1-1v-1l-1-1v-1
		l-1-1l-1-1v-1l-2-1l-1-1v-1l-1-1v-1l-1-1v-1l-1-1l-1-1v-2l-1-1l-1-1v-1v-1l-1-2l-1-1v-1h-2v-1l-1-1l-1-1l-1-1h-1l-1-1v-1h-1l-1-1
		l-1-1v-1h-1h-1h-1h-4h-1h-1h-2l-1-1l-1-1h-1l-1,1v1h-3l-1,1h-1v1l-1,1v1l-1,2v1v1l-1,2l-1,1l-1,1l-1,1l-1,1h-1l-1-1l0,0l-1,3l-2,2
		l-1,3l-1,2l-1,1v1l-1,1v1l-1,1v1l-1,2l-1,1v1v1v2l1,2l1,3v3l1,4l1,3v1v1l1,1v2h1l1,1l2,1l1,1v2v2l-1,1v2v2v1v1l1,1l-1,1l-1,1l-1,1
		v1v1l1,1h-1l-1,2h1l1,1v1l2,1v1v2l1,1l1,1h2h1l1,1h1v-2l1-1v-1l1-1l1-1l0,0h1h1l2-1h1h1h2h1l1,1h1l2,1l0,0l1,1l1,1h1l1,1v1h-1l1,1
		h1h1h1l1-1h1l1,1h1v2h1l2,1h1H269z"/>
	<path fill="#F6F3F0" stroke="#000000" stroke-linejoin="round" d="M176,243l1-1l1-1l1-1v-1v-1v-1l1-1h1v-1l1-1l-1-2v-1v-1h1l1-1h1
		v-1v-1l1-1v-1v-2h2v-1l1,1l1,1l2,1h1h1l1,1l1,1l0,0l1,1h1l1,1l2-1h1h1l1,1l1-1h1l2,1l1,1l2,1h1v-1l1-1l1-1l1-2l1-1l2-1h1h1h1h1l1,1
		h2h1l-1-1v-1v-1l-1-3l-1-4v-3l-1-3l-1-2v-2v-1v-1l1-1l1-2v-1l1-1v-1l1-1v-1l1-1l1-2l1-3l2-2l1-3l0,0l0,0h-2l-1-1l-1-1l-2-1h-1v-1
		h-2l-2-1l-1-1l-1-1l-1-1l-1-1h-1l-1-1l-1-1l-1-1v-1l-1-1v-2l-1-1v-1v-1v-2l-1-1v-1l-1-1v-1l-1-1v-1l-1-1v-1h-2l-1-1v-1h-1l-2-1v-1
		l-2-1l-1-1l-1-1l-1-1l-1-1l-2-2v-1l-1-1h-1l-2-1v-1l-1-1l-1-1v-2h-1l-2-1h-1h-1h-1h-1h-1h-1h-1h-2h-1h-1h-1h-1h-1h-2h-1h-1h-1h-1
		h-1l-2-1h-1l-1,1v1v1v1v1v1v1v1h-2h-1h-1h-1h-2h-1h-1h-1h-1l-1,1v2v1l-1,2v1v1v1l1,1h1l1,1v1h1l2,1v1l1,1v1v2v1v1v1v2l-1,1v1v1v1v2
		v1l-1,1v2l-1,1v1v1v2v2v2v1v1l1,1l-1,2v1v1l1,1v1v1v1l-2,1h-1l-1-1h-1h-1h-2l-1,1v1v1l1,1v1l1,2l0,0l1,1l1,1l1,1v1v1l1,1l1,1v1v1v2
		l-1,1v1l1,1l1,1h1v1l1-1h1h1l1,1l1,1h1l1,1v1l1,1v1l1,1l1,1v1v2v2v2h1l1,1h1h1h1l1,1l1,1v1l1,1l0,0l1,2h1l1,1l1,1l1,1v1h1h1H176z"
		/>
	<path fill="#F6F3F0" stroke="#000000" stroke-linejoin="round" d="M214,300v-2l1-1v-2v-2v-1v-2v-2l1-1v-1v-1v-2l1-1l1-1h1v-2l1-1
		l1,1l1-1l-1-1v-1v-1l-1-1l1-1v-2l1-1h1l1-1l0,0l1-2h1l1-1h1v-1l1-1h2h1h1l2,1h1h2h1h2l1-1h1v-2v-1v-1v-1v-1l-1-1l-1-1l-1-1v-2l-1,1
		l-1,1v1l-1,1v2h-1l-1-1h-1h-2l-1-1l-1-1v-2v-1l-2-1v-1l-1-1h-1l1-2h1l-1-1v-1v-1l1-1l1-1l1-1l-1-1v-1v-1v-2v-2l1-1v-2v-2l-1-1l-2-1
		l-1-1h-1l-1-2h-2l-1-1h-1h-1h-1h-1l-2,1l-1,1l-1,2l-1,1l-1,1v1h-1l-2-1l-1-1l-2-1h-1l-1,1l-1-1h-1h-1l-2,1l-1-1h-1l-1-1l0,0l-1-1
		l-1-1h-1h-1l-2-1l-1-1l-1-1v1h-2v2v1l-1,1v1v1h-1l-1,1h-1v1v1l1,2l-1,1v1h-1l-1,1v1v1v1l-1,1l-1,1l-1,1h-2h-1h-1l0,0l-1,1v1l-1,1v1
		l-1,2v1l1,2v1v1l1,2h1v1l1,1l1,1l1,1l1,1v1l1,1v1v1l1,1h1h1l1-1h1h2l1,1l0,0l1,1v1l1,2l1,1h1l-1,1v1v2v1v1l1,1v1l1,1l1,1v1v1v1l1,1
		l1,1v1h2h1v1v1h1h1h2l2,1l1,1l1,1v1l-1,1l-1,1v2v1l1-1l1-1h1h2l1,1v1v1h1l1,1l2-1h1v1v2L214,300z"/>
	<path fill="#F6F3F0" stroke="#000000" stroke-linejoin="round" d="M192,297l1,1h1h1v-2l-1-1l0,0l-1-1v-1l1-1l1-1v-1v-1h1v-1v-1h-1
		h-2v-1l-1-1l-1-1v-1v-1v-1l-1-1l-1-1v-1l-1-1v-1v-1v-2v-1l1-1h-1l-1-1l-1-2v-1l-1-1l0,0l-1-1h-2h-1l-1,1h-1h-1l-1-1v-1v-1l-1-1v-1
		l-1-1l-1-1l-1-1l-1-1v-1h-1l-1-2v-1v-1l-1-2v-1l1-2v-1l1-1v-1l1-1l0,0v-1l-1-1l-1-1l-1-1h-1l-1-2l0,0l-1-1v-1l-1-1l-1-1h-1h-1h-1
		l-1-1h-1v-2v-2v-2v-1l-1-1l-1-1v-1l-1-1v-1l-1-1h-1l-1-1l-1-1h-1h-1l-1,1v1v1v1l-1,1l-1,1h-1l-1,1l-1,1l-2,1l-2,1l-2,2l1,1v1l-1-2
		v1h-1l0,0l0,0l-1,2v-1l0,0l0,0l-1,1l-1,1l-1,2v1v1v1l1,1v1l1-1v1v1h-1h2l1,1l-1-1h1l1,1h1l1-1h1l1-1l1-1l-1,1l-1,1l-1,1h-1l-1,1
		l1,1h2h1l-1-1h2l0,0l1,2v1h1l1,1l-2-1l2,1h1l2,2v1l1-1v1h1h1l1,1h1l1,2h-1l-1-1v2l-1-1l-1-1v1l2,3h1l1-2v-1v1v1v1v1h-1l1,1v1l1,2
		l2,1l-1-1v-1h1l1,2h1l1,1v-1h1l1,2l-1,1l-2-2l-2-1l4,3l2,1l1,1l1,1l2,2l1,1l1,1l2,3l1,1v1l1,1l1,1l1,1v1l2,1l1,2v1l1,1l2,2h1l3,5h1
		l1,1l2,3v1h1L192,297z M142,245h-1h-1h1h2H142z"/>
	<path fill="#F6F3F0" stroke="#000000" stroke-linejoin="round" d="M136,231L136,231v-1V231z M137,230h1v-1l0,0h-1V230z M140,227
		l2-1l2-1l1-1l1-1h1l1-1l1-1v-1v-1v-1v-1h-1l-1-1l-1-1v-1l1-1v-2v-1v-1l-1-1l-1-1v-1v-1l-1-1l-1-1l-1-1l0,0l-1-2v-1l-1-1v-1v-1l1-1
		h2h1h1l1,1h1l2-1v-1v-1v-1l-1-1v-1v-1l1-2l-1-1v-1v-1v-2v-2v-2v-1v-1l1-1v-2l1-1v-1v-2v-1v-1v-1l1-1v-2v-1v-1v-1v-2v-1l-1-1v-1
		l-2-1h-1v-1l-1-1h-1l-1-1v-1v-1v-1l1-2v-1v-2l1-1h-1h-2h-1h-1l-1-1h-2h-1h-1h-2h-1h-1h-1h-2h-1h-1h-2h-1h-1l-1-1h-2h-1h-1h-1h-2h-1
		l-2-1l-1-1h-2l-1-1l-6-3l-6-2l-6-3l-6-3l-6-2l-5-3l-6-3l-7-3l0,0l0,0h-1l-1,1v1l-1,1v1v1l1,1l-1,1l1,1v1v1v1l1,1h1l1,1h2l2,3l1,1h1
		l1,1l1,1h1l1-1l1-1h1l1,1l2,2v2l3,1h3v1h2v1v2v1l-1-1v2v1v2l1,3l1,3l1,1v1v1l1,1v1v2v2l1,1v1l1,1v2h1l1,2v1l1,1l-1,1v1l1,1h2v1v2
		l1,1l-1,1l1,1l0,0l1,1l1,1l1,1l1,1h-1v1l2,3l1,1l1,1l2,1h1v1v1l1,1l1,2l0,0l1,2l1,1h1h1l1,1l1,1v-1l1-1v1h1h1l1,1h1l-1,1v1v1l-1,1
		l1,2v2l1,1h1v1l1,1v1l2,1h1h1l1,1h1l1,1v2l-1-1l1,1v2l1,1l1,1l1,1l1-1h2h-1h1v1h2l1,2l1,1v1v2l1-1v1L140,227z M93,183v-1l1-2v-2
		l-1-1v-1v-1l-2,1h-1v1l-1,2l1,1h-1v2h1l1,1l1,1L93,183z M61,128l-1-1v2h1V128z"/>
	<path fill="#F6F3F0" stroke="#000000" stroke-linejoin="round" d="M234,324l-1-2v-1l1-1h1h1l1-1l1,1l1-2h1v-2v-1h-1l-1-1v-1l-1-2
		v-1v-1v-1l1-1l1-1l1-1v-2v-1h1h2v-1h1l1-1h1l1,1h1l1,1h1l1,1v1v2h1l1,1l1,1h2l1,1l0,0h2l1-1v-1h1l1-1l-1-2v-1v-1v-1v-1h1v-2l-1-1
		h-1h-1h-1l-1,1v1h-2h-1h-1l-1-1l-1-2h-1l-1-1l-1-2l-1-1v-1l-1-1l1-1v-2l-1-1v-1h1v-2h1l1,1h1l1-1l1-1v-1l1-1l2-1v-1l1-1h1l2-1l1-1
		l1-2h1l1-1l1-2l1-1v-1l1-2l1-1l1-1h1l-1-2h-1l-2-1h-1v-2h-1l-1-1h-1l-1,1h-1h-1h-1l-1-1h1v-1l-1-1h-1l-1-1l-1-1l0,0l-2-1h-1l-1-1
		h-1h-2h-1h-1l-2,1h-1h-1l0,0v2l1,1l1,1l1,1v1v1v1v1v2h-1l-1,1h-2h-1h-2h-1l-2-1h-1h-1h-2l-1,1v1h-1l-1,1h-1l-1,2l0,0l-1,1h-1l-1,1
		v2l-1,1l1,1v1v1l1,1l-1,1l-1-1l-1,1v2h-1l-1,1l-1,1v2v1v1l-1,1v2v2v1v2v2l-1,1v2l-1,2v1v-1h2l1-1h2h1v-1v-2h-1v-2v-1l1-1h2l1,1v1
		l-1,1v1l-1,1v1v2v1l1,1v-2l1-2v-2l1-1h1v1v1v2l-1,1l1,1l-1,1l1,1h1h1l1-1v-1l1-1v-1l-1-1l1-1h1l1,1l1,1l1,1h1l1,1l-1,1h-1l1,1l-1,1
		v1l-1,1h-1h-2v1l-1,1l-1,1v1v1v2h-1l-1,1h-1v2v1l-1,1l1,1h1l1,1l1-1l1,1h1l1,1h1l1,1h2H234z"/>
	<path fill="#F6F3F0" stroke="#000000" stroke-linejoin="round" d="M277,285h2h1h1h1v-1l-1-1h1h1l1-1v-1v-1v-2l1-1l1-1h1h1h1l1-1v-1
		l1-1v-1l-1-1h-1v-1v-2v-1v-2v-1l-1-1h-1l-1-1l1-1h1h1l1-1v-1l1-1h1l1-1l1,1h2l-1-1v-1l1-1l-1-1l1-1h1v-1l1,1h1l1-1l1-1h1l1-1l1-1
		l1-1l2-2h-1h-1v-2v-1v-2v-2v-1l-1-1l-1-1h-1h-1h-1l-1,1l-1-1l-1-1h-1h-1v-1v-1v-1h-2v-1l-1-1h-1v-1v-1v-1v-1l-1-1h-1l-1-1v-1v-1h-1
		l-1-1l0,0v-1v-2v-2v-1v-1l-1-1v-1l-1-1h-1v-2l1-1h2l-1-1l-1-1l-1,1l0,0l-1,1h-1l-1-1l-1-1h-1l-1,1l-1,1l-1,1v1v2l-1,1h-1l-1,1l-1,1
		h-1l-1,1v1v1l1,1l1-1h1l1,1v1v1v2l-1,2l-1,1h-1v-1v-1l-2,2l-1,1l-1,1l-1,1l-1,1l-1,1l1,1l1,1v1l1,1h1v2l1,1l1,1l-1,1l1,2l1,1v1h1
		l1,1h1h-2l1,1l1,1l1,1l1,1l1-1l1,1h1v1l-1,1h-1h-1h-1h-1h-1l-1,1h-1l-1,1l1,1v1v1v1v2v1l-1,2l1,1l1,2l1,1l1,1v1v2v2v1l1,2l1,1v1v1
		v1v2v1v1v1v1l1,1h1V285z"/>
	<path fill="#F6F3F0" stroke="#000000" stroke-linejoin="round" d="M304,320l2,1v-1v-1l1-2l0,0v-1v-1l-1-1v-1v-1l1-1h1v-1l-1-1l-1-1
		l1-1h-1h1h1l1-1v-2l1-1l-1-1v-1h-1l-2-1l-1-1l0,0h-1l-1,1h-1h-1h-1h-2l-1-1h-1l-1-1l-1-1v-1l-1-1h-1h-2v1h-1l-1-1h-2l-2-1l-1-1l0,0
		l-1-2h2v-1v-1l-1-1l-1-1h-1l1-1l-1-1h-1h-1h-2v1h-1l-1-1v-1v-1v-1v-1v-2v-1v-1v-1l-1-1l-1-2v-1v-2v-2v-1l-1-1l-1-1l-1-2l-1,1h-1
		l-1,1l-1,1l-1,2v1l-1,1l-1,2l-1,1h-1l-1,2l-1,1l-2,1h-1l-1,1v1l-2,1l-1,1v1l-1,1l-1,1h-1l-1-1h-1v2h-1v1l1,1v2l-1,1l1,1v1l1,1l1,2
		l1,1h1l1,2l1,1h1h1h2v-1l1-1h1h1h1l1,1v2h-1v1v1v1v1l1,2l-1,1h-1v1l-1,1l1,1h1h1v1l1,1h1l1-1h1l2,1l0,0l1,1l2,1l1,1l1,1h1h1v-1l1-1
		v-1h1l2,1h1h1l1,1l1,1l2,1h1h1l1-2l1,1v1l1,1l1-1h1h1l1-1l1-1v-1l1-1l1,2v1l1,1v1v1h2h1v1l1,1h1L304,320z"/>
	<path fill="#F6F3F0" stroke="#000000" stroke-linejoin="round" d="M319,301l-1-1v-1v-2v-3l-1,1l1-1v-1v-1l1-2v1v-2v-5v-3v-2v-3v1
		l-1-2h-1l2-1v-3v-1l1-8l2-12l2-3l1-2l1-2v-1l1-1v-1v-1v-3h-1l-1,1l-1,1h-1h-1l-1-1h-1l-1-1l-1-1h-2h-1h-1h-1h-1h-1h-1l-1-1h-1l-1-1
		h-1l-1-1h-1h-1l-1-1h-1v-1h-2h-1h-1h-1v-2v-1h-1l-1-1v-2l-1-2v-1h-1l-1-1v-1l-1-1v-1v-2l-1-1v-1l1-1l-1-2v-1l-1-1h-1h-1l0,0h-2
		l-1,1v2h1l1,1v1l1,1v1v1v2v2v1l0,0l1,1h1v1v1l1,1h1l1,1v1v1v1v1h1l1,1v1h2v1v1v1h1h1l1,1l1,1l1-1h1h1h1l1,1l1,1v1v2v2v1v2h1h1l-2,2
		l-1,1l-1,1l-1,1h-1l-1,1l-1,1h-1l-1-1v1h-1l-1,1l1,1l-1,1v1l1,1h-2l-1-1l-1,1h-1l-1,1v1l-1,1h-1h-1l-1,1l1,1h1l1,1v1v2v1v2v1h1l1,1
		v1l-1,1v1l-1,1h-1h-1h-1l-1,1l-1,1v2v1v1l-1,1h-1h-1l1,1v1v1l-1,1h1l1,1l1,1v1v1h-2l1,2l0,0l1,1l2,1h2l1,1h1v-1h2h1l1,1v1l1,1l1,1
		h1l1,1h2h1h1h1l1-1h1l0,0h1h1h1h1h2v-1h1l1,1l1,1h1h1l1,1v1h1L319,301z"/>
	<path fill="#F6F3F0" stroke="#000000" stroke-linejoin="round" d="M247,313l1-1h1l1-1v-1l1-1l1-1v-2h-1v-2v-1l-1-1h-1l-1-1h-1l-1-1
		h-1l-1,1h-1v1h-2h-1v1v2l-1,1l-1,1l-1,1v1v1v1h2h1l2,1l1,1h1h2H247z"/>
	<path fill="#F6F3F0" stroke="#000000" stroke-linejoin="round" d="M103,361l-1-1v-2l-1,1l-1,1l2,1H103z M222,365l1-1l0,0l1-1l1-1
		v-1h1v-1v-1v-1v-2v-1l-1-1v-1l-1-1l-1-1l-1,1h-1l-1,1h-1v-1l-2-1h-1v1l-1,1l0,0l-1,1l-1,1h-1h-2h-1v1l-1,1l2,1h1h1l1,2h1v1h2l2,1
		L222,365z"/>
	<path fill="#F6F3F0" stroke="#000000" stroke-linejoin="round" d="M227,360h1h1l1-1l1,1h1l1-1h1l1-1l1-1l1-1h1h1h1l1-1v-1v-1v-1h-1
		h-2v-1l1-1l-1-2h-1v-2l1-1h1l-1-1v-1h-1h-1h-1h-1l-1-1v-1l1-1h1h2l1-1h1h1l1-1l2-1l1-1h2l1,1l1-1h1v-1l1-1l1-1v-2l-1-1h-1v-1l1-2
		v-1l1-1l1-1l1-2h1l1-1h1l1-1v-1l1-1l-1-1v-1v-1l1-1v-2l-1-1v-2l0,0l-1-1h-2l-1-1l-1,1l-1,1l-1,1v1l-1,1h-1l-1,1h-1h-2h-1l-1-1l-2-1
		h-1l-1,2v1l1,1h1v1v2h-1l-1,2l-1-1l-1,1h-1h-1l-1,1v1l1,2h-1h-2l-1-1h-1l-1-1h-1l-1-1l-1,1l-1-1h-1l-1-1l1-1v-1v-2h1l1-1h1v-2v-1
		v-1l1-1l1-1v-1h2h1l1-1v-1l1-1l-1-1h1l1-1l-1-1h-1l-1-1l-1-1l-1-1h-1l-1,1l1,1v1l-1,1v1l-1,1h-1h-1l-1-1l1-1l-1-1l1-1v-2v-1v-1h-1
		l-1,1v2l-1,2v2l-1-1v-1v-2v-1l1-1v-1l1-1v-1l-1-1h-2l-1,1v1v2h1v2v1h-1h-2l-1,1h-2v1l0,0l-1,1v1v1l1,2l2,1l1,1v1v2v1l-1,1v1h1l1,1
		l1,1l1,1l-1,1l-1,1h-2l-1,1l1,1v2l-1,1v1l-1,1v1h-1l0,0l-1-1l-1-1l-1-1h-1l-1-1h-1l-1-1l-1,1l-1,1h-1h-1h-2v2l-1,1l-1,1l1,1l-1,1
		h-1v1h-2h-2l-2,1v2l1,1l1,1l0,0v2l1,1l1,3l1,1l0,0l1,2l1,1l1,1h1l1,2l1,1v1l1,1l1,1h1v1h2l1,1h1l1-1v-1h1h2h1l1-1l1-1l0,0l1-1v-1h1
		l2,1v1h1l1-1h1l1-1l1,1l1,1v1l1,1v1v2v1v1v1L227,360z"/>
	<path fill="#F6F3F0" stroke="#000000" stroke-linejoin="round" d="M248,378v-1v-1v-1l1-1h1h1h1v-1l1-1v-1v-2v-1v-1h2h1l1,1l1,1h1h1
		l2-1h1h4l1,1h1h2l1,1h1l-1,1l1,1l1-1v-1l-1-1h-1v-1v-1l-1-2v-1v-1l1-1l1,1l1-1v-1h1l1-2l0,0l1-1l1-1v-1l1-1l-1-1h1l2-1v-1v-1l-1-1
		v-1l1-1v-1v-1v-2l1-1h-1v-1v-1l-1-1l-2-1l-1,1v1v1v1h-1l-1,1l-1-1h-1h-1l-1,1l-1-1l-1,1l-2-1v-1v-1h-1h-1h-1l-1,1h-1l-1-1h-1v-1v-1
		l1-1l-1-1h-1h-1h-1v1l-1,1h-1h-1h-2v-1l-1-2h-1l1-1l-2,1h-1l-1,1l-1-1h-2l-1,1l-2,1l-1,1h-1h-1l-1,1h-2h-1l-1,1v1l1,1h1h1h1h1v1
		l1,1h-1l-1,1v2h1l1,2l-1,1v1h2h1v1v1v1l-1,1h-1h-1h-1l-1,1l-1,1l-1,1h-1l-1,1h-1l-1-1l-1,1h-1h-1l-1,1h-1v1l-1,1l-1,1l0,0l-1,1l0,0
		v1l1,1l1,1l1,1l1,2l1,1l1,1h1h1l2,1h1h2l1,1l3,1l3,1l2,1h3l1,1V378z"/>
	<path fill="#F6F3F0" stroke="#000000" stroke-linejoin="round" d="M198,329l1-1v-2h2h1h1l1-1l1-1l1,1h1l1,1h1l1,1l1,1l1,1l0,0h1v-1
		l1-1v-1l1-1v-2l-1-1l1-1h2l1-1l1-1l-1-1l-1-1l-1-1h-1v-1l1-1v-1v-2v-1l-1-1l-2-1l-1-2v-1v-1l1-1l0,0v-1v-2v-1h-1l-2,1l-1-1h-1v-1
		v-1l-1-1h-2h-1l-1,1l-1,1v-1v-2l1-1l1-1v-1l-1-1l-1-1l-2-1h-2h-1h-1h-1v1v1l-1,1l-1,1v1l1,1l0,0l1,1v2h-1h-1l-1-1l-1,1h-1v1l1,1
		l1,2l-1,6l2,1l1,4l1,1l2,1l0,0l1,1v1v1v2v2v1l-1,1l-1,1h-1l-1,1v1l-1,1l2,1h1l1,1L198,329z M182,319l-1-1l0,0l1,2V319z M179,316
		l1-1h-1l0,0h-2l1,2L179,316z M177,314v-1l-1-1h-1v1l1,1l1,1V314z"/>
	<path fill="#F6F3F0" stroke="#000000" stroke-linejoin="round" d="M434,373h1h4h4l3-1h4h4l3-1h4h4v-3v-1l1-2v-1v-1v-2v-2l-1-1l-1-2
		v-1l1-3l-1-1l1-1v-2v-1v-1v-1l-2-2l-2-2h-1l-1-1l-1-1l-1-1v-1l-1-1l-1-1l-1-2l-1-1h-1l-1-1l-1-1v-1l-2-1v-2h-2v1l-2-1v-1h-1h-2l0,0
		l-1-5l0,0l-1,2v1v3l1,2l-1,1v2l1,2v1v1v1l-2,1l-1,1v2v1v1v4l-1,1l-1,1l-1,2l-2,1h-1l-1,1l-4,3l-1,2l1-1v-1h1l2-1h-1l-1,1l-1,1l1,1
		h1l1,1l-1,1h2h-1l-1,1l-1,1h-1h-1v2h1h-2h-1h-1h-2v1h-1l1-1l-1-1l-1-1h-1l1,1h-1l-1-1h1h1l1-1h-1l-2-1h-2l-2,1h-2h-1v1l1,1v1l1,1h1
		l2-1v1l1,2v1v2h1l1,1l1,1h1l1,1h1h2l1-1v-1v-1h2h1h1l1,1h1h2l1,1h1v1v2V373z M421,359h1l1-1l1-1l0,0h-1l-1,1L421,359l-1,1L421,359z
		"/>
	<path fill="#F6F3F0" stroke="#000000" stroke-linejoin="round" d="M345,416h1h2h1l2-1l1-1l1-1l2-1h1l1-1h1l4-1l1-1l1-1l1-1h1l1-1h1
		h2l1-1h1h-1h-3v-1l1-1l1-1h1l1,1v1v1l1-1l1-1h1h1l-1,2l-1,1h1h2h1h2l5,2l-1-1l0,0l-2-1h-1h-1h1h-1l-1-1v-1l1,1h2h2v1l0,0l1-1v-1v-1
		l-1-1v-1l-1-1l1-2l1-1v-1l-1-2h1l1-1l1-1v-1v-1l-3-2h-2h-3h-3h-1h-1h-1h-2h-1h-1l-1-1v-1l-1-1l-1-1h-1l-1-2v-1v-1v-1l-1,1h-1l-1,1
		h-1l-1,1v1h-1h-1l-1,1l-1-1l-1-1l-1-2v-1v-1v-1l1-1v-2v-1h-1l-1-1h-1h-1l-1,1l-1-1h-1v-1l-1-1l-1-1l-1-1v-2h-1l-1-1h-1l-2-1l1,1v1
		v1l-2,2v1l-1,1h-1l-1,1v1l-1,1h-1l-1-1h-1h-1h-1l-1,2l-1,1h-1l-1-1v-1h-1l-1-1l1-2l-1-1l-1,1l-1,1v1v1v1l1,1l-1,1l0,0l-1,1l-1-1v-1
		h-1h-1h-1h-1l-1,2h-1h-1v1v1v1l-1,1l1,2l-1,1h1v1v1l1,2h1v1h2v1l1,1l1,1v2h-1v1v2l-1,1h-1h-1v1v1h-1l-1,1l1,1v1l-2,1h-1l-1,1h1l1,1
		h2l2,1h1h1h-1h1l2,2h2v1l1,1h1h2h7l1,1l6,2l2,1h2H345z"/>
	<path fill="#F6F3F0" stroke="#000000" stroke-linejoin="round" d="M313,378h1l1-2h1h1h1h1v1l1,1l1-1l0,0l1-1l-1-1v-1v-1v-1l1-1l1-1
		l1,1l-1,2l1,1h1v1l1,1h1l1-1l1-2h1h1h1l1,1h1l1-1v-1l1-1h1l1-1v-1v-1l-1-1v-1h-2l-1,1h-1h-1v-1v-1l-1-1h-1h-1l-1-1l1-1v-1l1-1v-1
		l-1-1v-1v-1l1-1h1h2v-1v-1h-1h-1l-1-1l-1-1h-1h-1l1-1l-1-1v-1v-1l1-2v-1v-2h1l1-1v-1l1-1l-1-1l-2-1h-1l-1-1l-1,1v1l-1,1l-1-1h-1
		l-1-1h-1v-1v-1l1-1l1-1l1,1l1-2l-1-1h-1h-1v-1l-1-1v-1v-1h-2v1l-1,1v1v1v1l-1,1l-1,1l-1,1l-1,1h-1v1l1,1h1l1,1v1l-1,1v1l-1,1v1l1,2
		v1h1l1-1v2h1l1,1h1v1v1h2l0,0l1,1l1,1l-1,1h-1h-1h-1v2h-1h-1l-1-1v1l-2,1h-1v-1l-1-1h-1v-1l-1-1l-1-1v-1h-2h-1v1v1v1v2v1v1v1v1v1v1
		l-1,1l1,1v1h-1v1v1l1,1l-1,1v-1h-2v1h-1l-1,1l-1,1l0,0v1l1,1h1v1l2,1v1l2,1h1h1h1h1l1,1h1H313z"/>
	<path fill="#F6F3F0" stroke="#000000" stroke-linejoin="round" d="M392,383v-1l1-1v-1l1-1v-1l1-1v-1v-1l1-2h1h1l0,0l1,1h1h1v2v1v1
		v2l1,1h1l1,1v1h1h2v-1l1-1l1-1l1-1l1-1l1-1l1-1h1l1-1h1l1-1l1-1h1h1h1v1l1,2h1v1l1,1v1l1,1h1l1,1l1,1v1v1l0,0l7-1l-1-9v-2v-1h-1
		l-1-1h-2h-1l-1-1h-1h-1h-2v1v1l-1,1h-2h-1l-1-1h-1l-1-1l-1-1h-1v-2v-1l-1-2v-1l-2,1h-1l-1-1v-1l-1-1v-1h-1l-1,1l-2,1l1,1v1l-1-2
		l-1,1l-1,1h-2l-3,1l1,1l-1,1l-1-1l1-1h-3h-2l-3,1l-3,1v1l1-1h1l1-1h1v1h-2l-1,1l-1,1l-1-1l-2,1l-2,1l0,0v1l1,1v1v1v1l1,1h1v2h1h1
		l1,1l1,1h1l1,1v1v1l1,1V383z"/>
	<path fill="#F6F3F0" stroke="#000000" stroke-linejoin="round" d="M314,357l2-1v-1l1,1h1h1v-2h1h1h1l1-1l-1-1l-1-1l0,0h-2v-1v-1h-1
		l-1-1h-1v-2l-1,1h-1l0,0l-2-1v1l-1,1h-1h-1h-1h-1l-2,1l1,1l1,1h2v1l1,1l1,1v1h1l1,1v1H314z"/>
	<path fill="#F6F3F0" stroke="#000000" stroke-linejoin="round" d="M301,357v-1v-1v-1l-1-1l-1-1v-1v-1h-1v1l-1,1l-1,1h-1v2v1l1,1h1
		l1,1h1h1L301,357z"/>
	<path fill="#F6F3F0" stroke="#000000" stroke-linejoin="round" d="M276,343h1v-1v-1v-1l1-1v-1l-1-1v-1l-1-1v-1l-1-1v-1l-1-1v-2l1-1
		v-1v-1l1-1l1,1h1h1h1l1,1l1-1v-1v-1v-2l1-1h1l1,1h2v-1l1-1l-1-1v-1l-1-1h-1l-2-1l-1-1l-1-1h-1h-1l-2-1h-1v1l-1,1v1h-1h-1l-1-1l-1-1
		l-2-1l-1-1l0,0l-2-1h-1l-1,1h-1l-1-1v-1h-1h-1l-3,1l1,1v2l-1,1v1v1l1,1l-1,1v1l-1,1h-1l-1,1h-1l-1,2l-1,1l-1,1v1l-1,2v1h1l1,1v2
		l-1,1l-1,1v1l2-1l-1,1h1l1,2v1h2h1h1l1-1v-1h1h1h1l1,1l-1,1v1v1h1l1,1h1l1-1h1h1h1v1v1l2,1l1-1l1,1l1-1h1h1l1,1L276,343z"/>
	<path fill="#F6F3F0" stroke="#000000" stroke-linejoin="round" d="M310,405h1l2-1v-1l-1-1l1-1h1v-1v-1h1h1l1-1v-2v-1h1v-2l-1-1
		l-1-1v-1h-2v-1h-1l-1-2v-1v-1h-1l1-1l-1-2l1-1v-1v-1v-1h-1l-1-1h-1h-1h-1h-1l-2-1v-1l-2-1v-1h-1l-1-1v-1l0,0l-1-1v-1l-1-1l-1-1v1
		l-1,1h-1l-1-1v-1l-1-1l-2-1v-1h-1h-1l-1,1l-1,1h-1h-1h-1h-1l-1,1v1l-1,1l-1,1h-1h-1v-1v-1l-1-1v-2v-1v-1l-1-1h-1h-1l-1,1l-1-1l-1,1
		v1v1l1,2v1v1h1l1,1v1l-1,1l-1-1l1-1h-1l-1-1h-2h-1l-1-1h-4h-1l-2,1h-1h-1l-1-1l-1-1h-1h-2v1v1v2v1l-1,1v1h-1h-1h-1l-1,1v1v1v1v1
		l1-1h1h2l1,1l1,1l1,1l1,1l1,1l1,1h1l1,2h1l2,1l2,1l1,1l1,1h1l2,1l2,1h1l2,1l4,1l3,2h1h1l2,1h1v1l1,1h1l2,1h1h4l1,1h2l3,1h2l0,0h2
		l1,2l2,2L310,405z"/>
	<path fill="#F6F3F0" stroke="#000000" stroke-linejoin="round" d="M312,347v-1l2,1l0,0v-1l-1-2v-1l1-1v-1l1-1v-1l-1-1h-1l-1-1v-1h1
		l1-1l1-1l1-1v-1v-1v-1l-1-1l-1,1l-1,1l-1,1v1l-1,1h-1l-1,1h-1l-1-1v-1l1-1v-1l1-1v-2h-1h1v-1l1-1l1,1l1-1v-1l1-1l1-1l-1-1v-1h-2v-1
		l-1,1h-1l-1-1v-1v-1l-1-1l0,0l-1,2v1v1l-2-1l-1,1h-1l-1-1v-1h-1l-1,1l-1,1h-1l-1,1h-2v1v1l-1,1v1l-1,1v1l-1,1v2l0,0l-1,1h-1l-1,1
		h-2v1v1v2l0,0h1l1,1l1,1h1l1,1l1,1v1v1l0,0l1,1l1,1v1l1-1h1l1-1v-1l1-1h1l1-1l1,1v1v1v1h1l1-1h1h1l1,1l1,1v1l-1,1h1h1h1h1h1
		L312,347z"/>
	<path fill="#F6F3F0" stroke="#000000" stroke-linejoin="round" d="M280,370l1-1l1-1v-1l1-1h1h1h1h1l1-1l1-1h1h1v1h1l1-1v-1l1-1v-1
		h1v-1v-1v-1l1-1l-1-1v-1v-2h1l1-1l1-1v-1h1v1v1l1,1l1,1v1v1v1v1h1l1,1l1,1h1l1-1l0,0v-1v-1v-1v-2v-1v-1v-1v-1l-1-1l1-1l1-1v-1l-1-1
		l-1-1h-1h-1l-1,1h-1v-1v-1v-1l-1-1l-1,1h-1l-1,1v1l-1,1h-1l-1,1v-1l-1-1l-1-1l0,0v-1v-1l-1-1l-1-1h-1l-1-1l-1-1h-1l0,0l0,0l-1,1v1
		h-1v1l-1,1l-1,1v1l-1,1v2v1v1l-1,1v1l1,1v1v1l-2,1h-1l1,1l-1,1v1l-1,1l-1,1l0,0l-1,2h-1v1h1h1l1,1v1v1v2l1,1v1v1h1H280z"/>
	<path fill="#F6F3F0" stroke="#000000" stroke-linejoin="round" d="M301,370l1-1h1v-1h2v1l1-1l-1-1v-1v-1h1v-1l-1-1l1-1v-1v-1v-1
		l0,0l-1,1h-1l-1-1l-1-1h-1h-1h-1h-1l-1-1h-1l-1,1v1v1v1h-1v1l-1,1v1l-1,1l1,1l1,1v1l1,1h1l1-1v-1l1,1l1,1v1l1,1L301,370z"/>
	<path fill="#F6F3F0" stroke="#000000" stroke-linejoin="round" d="M282,342l1-1l1-1v-1h1v-1l1-1l0,0v-2v-1v-1h2l1-1h1l1-1l0,0v-2
		l1-1v-1l1-1v-1l1-1v-1v-1h2l1-1h1l1-1l-1-1v-1v-1l-1-1v-1l-1-2l-1,1v1l-1,1l-1,1h-1h-1l-1,1l-1-1v-1l-1-1l-1,2v1v1l1,1l-1,1v1h-2
		l-1-1h-1l-1,1v2v1v1l-1,1l-1-1h-1h-1h-1l-1-1l-1,1v1v1l-1,1v2l1,1v1l1,1v1l1,1v1l1,1l2,2l1,1v1v1h1V342z"/>
	<path fill="#F6F3F0" stroke="#000000" stroke-linejoin="round" d="M388,388l1-1l1-1l1-1l1-1l-1-1v-1v-1l-1-1h-1l-1-1l-1-1h-1h-1v-2
		h-1l-1-1v-1v-1v-1l-1-1v-1l0,0h-1l-3,1h-1h-1h-2l-1-2l-1-2l-2-2h-1h-2l-1-1l-1-1l-1-1h-2h-1h-2h-2h-1h-1h1l1,1l-1-1h-3h-1h2l-2-1
		v-1l1,1h1h-1l-1-1v-1l-1-1v-1l-2-1l0,0l-1-2h-1l-1-2h-1v-2v-1l-1-1l-1-2v-1l-1-2l-1-1l-1-2l-1-1l-1-2l-1-1h-1l-1-2h-1l-1-1l-1-1
		l-2-2v-2l-1-1l-1-2l-1-3l-1-2l-1-1l-1-3v-1h-1l-2-3v-2l-1-1v-2v-1l-1-1l2,3l1,2l1,1l1,1l1,1l1,1v1l-1,1v1l1,1v-1l1-1v-2l-1-1l-1-1
		l-1-1l-2-2l-3-5v-3l-1,1h-1v-1l-1-1h-1h-1l-1-1l-1-1h-1v1h-2h-1h-1h-1h-1l1,1l2,1h1v1l1,1l-1,1v2l-1,1h-1h-1h1l-1,1l1,1l1,1v1h-1
		l-1,1v1v1l1,1v1v1l1,1v1v1l1,1h1l1-1v1h2v1l1,1l-1,1l-1,1v1l-1,1l-1-1l-1,1v1h-1h1v2l-1,1v1l-1,1v1l1,1h1l1-1h1l1-1v-1l1-1l1-1l1-1
		l1,1v1v1h1v-1v-1v-1l1-1v-1h2v1v1l1,1v1h1h1l1,1l-1,2l-1-1l-1,1l-1,1v1v1h1l1,1h1l1,1l1-1v-1l1-1l1,1h1l2,1l1,1l-1,1v1l-1,1h-1v2v1
		l-1,2v1v1l1,1l-1,1h1h1l1,1l1,1h1h1v1v1h-2h-1l-1,1v1v1l1,1v1l-1,1v1l-1,1l1,1h1h1l1,1v1v1h1h1l1-1h2v1l1,1l2-1v-1v-1l-1-1l2,1h1
		l1,1h1v2l1,1l1,1l1,1v1h1l1,1l1-1h1h1l1,1h1v1v2l-1,1v1v1v1l1,2l1,1l1,1l1-1h1h1v-1l1-1h1l1-1h1l1-1v1v1v1l1,2h1l1,1l1,1v1l1,1h1h1
		h2h1h1h1h3h3h2H388z M322,310l-1-1l0,0v1H322z"/>
	<path fill="#F6F3F0" stroke="#000000" stroke-linejoin="round" d="M385,408l-1-1L385,408h1H385z M418,431v-2v-1l-1-1l1-1v-1l1-1v-1
		l-2-3v-2l1-1l1-2v-1l1-2l1-2l1-2l1-2l1-1h1h2l2-1h3h2h2h3h2l2-1h2l1-1l-1-1v-1l1-1v-1l-1-1l-1-1h-1h-1l-1-1v-1v-1l-1-1l-2-1l-1-1
		l-1-1h-1h-1l-1-1l-1-1l-1-1v-1h-1l-1-1h-1v-1v-1l-1-1l-1-1h-1l-1-1v-1l-1-1v-1h-1l-1-2v-1h-1h-1h-1l-1,1l-1,1h-1l-1,1h-1l-1,1l-1,1
		l-1,1l-1,1l-1,1l-1,1v1h-2h-1v-1l-1-1h-1l-1-1v-2v-1v-1v-2h-1h-1l-1-1l0,0h-1h-1l-1,2v1v1l-1,1v1l-1,1v1l-1,1v1v1l-1,1l-1,1l-1,1
		l-1,1l-1,2v1v1l-1,1l-1,1h-1l1,2v1l-1,1l-1,2l1,1v1l1,1v1v1l-1,1l0,0h1l3,1v1h-1l3,2l2,1l3,2l4,3l1,1l2,2l2,1l1,1h1l1,1v1l-1-1l3,3
		l3,3l2,2l2,1l1,1L418,431z"/>
	<path fill="#F6F3F0" stroke="#000000" stroke-linejoin="round" d="M469,368l2-1v-1l1-1v-1l1-1v-1l1-1v-1v-2h1h2h1l1-1v-2v-1v-1v1
		v-1h1l1-1l1-1v1v2v1v1v1l1,1h1l1,1v1v1l1,1v-1v-2l1-1v-1v-1v-2v-1l1-1v-3v-2l1-1v-2v-1l1-1h-1l-1,1v1l-1-1v-1l1-2h1h1l1-1l-1-2h-1
		h1l-1,1h-2v1l-1-1l-1-1v-1h2v-1v-1l1-1h1v-2v-1l1,1v1l-1,1l1-1v-1l-1-1v-2v-2l1-1v-1l2-3l1-1l1-1l1-2l1-2l1-1l1-1v-2v-1v-1l1-1
		l-1-1l-1-2v-1v-1h-1h-1l-1-2h-1h-1l-2,1h-1l-1,1h1l1-1h1h1l-1,1l-1,1h-2h-2h-1l0,0l1,4l-1,1v1l1,2v1v2v1l-1,2v1h-1l-2,2l-1,1l-1,1
		h-2h-1l-1,1l-1,1v1l0,0h-1v1l-2,1l-1,1l-1,1h-1l-1,1l-1,1l-2,1l-2,1h-1l-1,1l-2,1h-1v2v1l1,1l1,1h1l2,2l2,2v1v1v1v2l-1,1l1,1l-1,3
		v1l1,2l1,1v2v2v1v1l-1,2v1l0,0l2-1l1,1v1L469,368z M498,323v-1l1-1v-1l1-1h-1h-1h-1l-1,1v2v1l1,1L498,323z"/>
	<path fill="#F6F3F0" stroke="#000000" stroke-linejoin="round" d="M458,338v-2h1l2-1l1-1h1l2-1l2-1l1-1l1-1h1l1-1l1-1l2-1v-1h1l0,0
		v-1l1-1l1-1h1h2l1-1l1-1l2-2h1v-1l1-2v-1v-2v-1l-1-2v-1l1-1l-1-4l0,0l0,0h-1h-1h-1l-2-1h2h1h-1h-3l-1-1l-1,1h-2h-1h1h1h-1l-2,1h-1
		h-1h-2l-1,1l-1,1l-3,1h-1l-1,1h-2l-1,1h-1l-3,1h-2h-2l-2,1l-2,1l-1,1h-1l-1,1l-1,1l-2,2l-1,3v-1l1-1v1l-1,1l1,5l0,0h2h1v1l2,1v-1h2
		v2l2,1v1l1,1l1,1h1l1,1l1,2l1,1l1,1v1l1,1V338z"/>
</g>
</svg>
