<?xml version="1.0" ?><!DOCTYPE svg  PUBLIC '-//W3C//DTD SVG 1.1//EN'  'http://www.w3.org/Graphics/SVG/1.1/DTD/svg11.dtd'><svg enable_background="new 0 0 500 401" height="401px" style="stroke-linejoin: round; stroke:#000; fill:#f6f3f0;" version="1.1" viewBox="0 0 500 401" width="500px" xmlns="http://www.w3.org/2000/svg" xmlns:xlink="http://www.w3.org/1999/xlink"><defs><style type="text/css"><![CDATA[path { fill-rule: evenodd; }
#context path { fill: #eee; stroke: #bbb; } ]]></style></defs><metadata><views><view h="401" padding="0" w="500"><proj id="laea" lat0="39.622" lon0="-98.606"/><bbox h="662.7" w="989.37" x="279.44" y="307.02"/><llbbox lat0="-90" lat1="90" lon0="-180" lon1="180"/></view></views></metadata><g id="admin2"><path d="M479,249L481,249L481,249L481,249L482,249L482,249L482,248L483,248L485,248L486,248L486,247L487,247L487,247L488,247L488,247L488,248L488,248L488,248L488,248L488,248L488,248L488,248L488,248L488,248L488,248L489,248L489,249L489,249L489,249L489,249L489,249L490,249L490,249L490,250L490,249L491,249L491,248L492,249L493,248L494,247L495,247L494,246L493,245L494,246L493,247L492,247L492,246L491,246L490,245L489,245L489,244L489,243L489,242L488,241L488,241L488,241L488,241L487,241L487,242L487,242L487,242L487,242L487,242L487,242L487,242L487,242L487,242L487,243L487,243L486,243L485,243L484,243L483,244L483,244L482,244L481,244L481,244L480,244L480,245L479,245L479,245L479,245L478,245L478,245L478,246L478,247L478,248L478,249L478,249L478,250Z " data-fips="US25" data-hasc="US.MA" data-name="Massachusetts" data-postal="MA" data-varname="Commonwealth of Massachusetts|MA|Mass."/><path d="M375,257L377,257L378,257L380,257L381,257L383,257L384,256L386,256L387,256L389,256L390,256L392,256L393,256L394,256L396,256L397,256L397,255L397,254L397,253L396,252L395,252L394,252L394,251L392,250L392,249L390,249L390,247L390,246L390,245L390,244L390,243L389,242L390,241L391,241L391,240L391,239L391,238L391,236L392,236L393,235L394,235L395,234L396,233L397,233L397,232L399,232L400,232L401,230L401,229L402,228L402,227L401,227L400,227L399,227L397,227L396,226L396,227L395,227L393,227L393,227L392,226L391,226L390,226L389,225L388,225L387,224L386,224L385,225L384,225L383,224L382,224L381,224L380,223L380,222L379,220L378,220L378,221L378,223L376,223L375,223L373,223L371,223L370,223L370,223L370,224L370,225L370,226L370,227L370,228L371,230L371,231L372,232L372,233L372,234L372,235L372,236L372,237L372,239L373,239L373,241L373,242L372,243L372,244L373,245L374,246L374,247L374,249L374,250L374,251L374,253L374,254L374,256L374,257Z " data-fips="US32" data-hasc="US.MN" data-name="Minnesota" data-postal="MN" data-varname="MN|Minn."/><path d="M340,246L340,245L340,244L340,242L341,240L341,239L341,238L341,237L341,236L341,235L341,234L341,233L341,232L341,231L341,229L341,228L341,227L342,226L342,225L342,224L342,223L342,222L340,222L339,222L337,222L335,222L333,221L331,221L330,221L328,221L326,221L324,221L322,220L321,220L319,220L318,220L316,220L314,219L313,219L311,219L309,218L307,218L306,218L304,218L302,217L300,217L298,217L297,216L295,216L293,216L293,217L293,218L292,220L292,221L292,222L293,223L293,224L293,225L293,226L294,227L295,228L295,229L296,230L296,231L297,231L297,232L297,233L296,234L296,235L296,236L295,237L295,238L296,238L297,238L298,238L298,239L298,240L299,241L299,242L299,243L300,244L300,245L300,246L301,246L302,246L303,246L304,246L305,246L306,246L307,246L308,245L308,246L309,246L309,245L310,244L312,244L313,244L314,244L316,245L317,245L319,245L320,245L322,245L323,245L324,246L326,246L327,246L329,246L330,246L332,246L333,246L334,247L336,247L337,247L339,247L340,247Z " data-fips="US30" data-hasc="US.MT" data-name="Montana" data-postal="MT" data-varname="MT|Mont."/><path d="M365,242L366,242L367,242L368,242L369,242L370,242L371,242L372,242L373,241L373,239L372,239L372,237L372,236L372,235L372,234L372,233L372,232L371,231L371,230L370,228L370,227L370,226L370,225L370,224L370,223L370,223L368,223L366,223L365,223L363,223L361,223L359,223L357,223L356,223L354,223L352,223L350,223L348,222L347,222L345,222L343,222L342,222L342,223L342,224L342,225L342,226L341,227L341,228L341,229L341,231L341,232L341,233L341,234L341,235L341,236L341,237L341,238L341,239L341,240L342,241L343,241L344,241L345,241L346,241L347,241L348,241L349,241L350,242L351,242L352,242L353,242L354,242L355,242L356,242L357,242L358,242L359,242L360,242L361,242L362,242L363,242L364,242Z " data-fips="US38" data-hasc="US.ND" data-name="North Dakota" data-postal="ND" data-varname="ND|N.D."/><path d="M49,312L50,312L51,312L52,312L53,311L53,310L52,309L52,308L52,307L51,305L51,305L50,304L49,306L48,306L48,307L48,308L47,309L47,310L47,311L48,312Z M51,300L51,299L50,298L49,298L49,297L48,297L48,298L49,299L49,300L50,301Z M47,294L47,293L46,294L47,295L48,295Z M45,290L45,289L44,288L43,288L43,289L43,290L44,290L45,291Z M40,281L40,280L40,280L39,279L38,280L38,281L39,282Z " data-fips="US15" data-hasc="US.HI" data-name="Hawaii" data-postal="HI" data-varname="HI|Hawaii"/><path d="M307,260L307,258L308,257L308,255L308,253L308,251L309,249L308,246L308,245L307,246L306,246L305,246L304,246L303,246L302,246L301,246L300,246L300,245L300,244L299,243L299,242L299,241L298,240L298,239L298,238L297,238L296,238L295,238L295,237L296,236L296,235L296,234L297,233L297,232L297,231L296,231L296,230L295,229L295,228L294,227L293,226L293,225L293,224L293,223L292,222L292,221L292,220L293,218L293,217L293,216L292,215L291,215L289,215L289,216L289,218L288,220L288,221L287,223L287,225L286,227L286,229L286,231L286,232L286,233L286,233L286,234L287,235L286,236L286,237L285,238L285,239L284,240L283,241L283,242L282,242L282,244L283,244L283,245L282,246L282,247L282,249L281,250L281,251L281,252L280,254L280,255L280,256L280,258L281,258L283,258L285,259L286,259L288,259L290,260L291,260L293,260L295,260L296,261L298,261L300,261L302,262L303,262L305,262Z " data-fips="US16" data-hasc="US.ID" data-name="Idaho" data-postal="ID" data-varname="ID|Idaho"/><path d="M286,232L286,231L286,229L286,227L287,225L287,223L288,221L288,220L289,218L289,216L289,215L288,214L286,214L284,214L283,213L281,213L279,212L278,212L276,211L274,211L272,210L271,210L269,209L267,209L267,210L267,211L267,212L266,213L267,214L267,215L267,216L266,216L266,217L266,218L265,219L264,219L264,220L263,220L263,219L264,219L263,220L264,219L265,218L265,217L265,216L264,217L263,217L263,218L262,218L263,218L264,217L265,216L265,215L265,214L264,214L264,213L263,213L262,213L261,212L260,212L259,211L258,210L258,211L257,212L258,214L258,215L258,216L258,218L258,219L258,220L257,220L257,221L258,221L258,222L257,223L257,222L257,223L257,224L258,224L259,225L260,225L261,226L261,227L261,228L261,229L262,230L263,230L265,230L266,230L267,231L268,231L269,231L270,231L271,231L273,231L274,231L275,231L277,231L278,231L279,232L280,232L281,232L282,232L283,233L285,233L286,233Z M266,215L266,214L266,214L266,215L266,216Z " data-fips="US53" data-hasc="US.WA" data-name="Washington" data-postal="WA" data-varname="WA|Wash."/><path d="M309,330L309,329L309,328L309,326L309,325L309,324L309,323L309,322L309,321L310,320L310,319L310,318L310,317L310,315L310,314L310,313L310,312L310,311L311,310L311,309L311,308L311,307L311,306L311,304L311,303L311,302L312,301L312,300L312,299L312,298L312,297L312,296L311,294L309,294L308,294L306,294L305,294L303,293L302,293L300,293L298,293L297,292L295,292L294,292L292,292L291,292L289,291L288,291L288,291L288,292L287,294L287,295L287,296L287,296L286,297L285,296L284,296L283,296L284,297L283,298L283,300L283,301L283,302L283,303L283,304L283,305L283,306L284,307L285,307L284,308L283,309L282,310L282,311L282,312L281,313L281,314L281,315L282,316L281,317L280,317L280,317L279,318L281,319L283,321L285,322L287,323L290,324L292,325L294,326L296,328L297,328L298,329L300,329L301,329L302,329L303,329L304,329L305,329L306,330L308,330L309,330Z " data-fips="US04" data-hasc="US.AZ" data-name="Arizona" data-postal="AZ" data-varname="AZ|Ariz."/><path d="M281,317L282,316L281,315L281,314L281,313L282,312L282,311L282,310L283,309L284,308L285,307L284,307L283,306L283,305L283,304L283,303L282,302L281,301L280,300L280,299L279,298L278,297L278,296L277,295L276,294L276,293L275,292L275,291L274,290L273,289L272,288L272,287L271,286L270,285L270,284L269,283L268,282L267,280L266,279L265,278L264,277L264,275L263,274L262,272L262,271L262,270L263,269L263,268L263,267L264,266L264,265L264,263L264,262L265,261L265,260L265,259L265,258L266,257L266,256L266,254L265,254L264,254L263,254L262,253L260,253L259,253L258,252L257,252L256,252L255,251L254,251L252,251L251,250L250,250L249,250L248,249L247,250L247,251L247,252L247,253L247,254L246,255L246,256L245,257L245,258L244,259L244,260L245,261L245,262L245,264L245,265L245,266L245,267L245,268L245,269L245,270L246,272L246,273L247,274L247,275L247,274L247,275L248,276L248,277L249,276L249,275L250,276L250,276L249,276L249,277L250,278L250,280L249,279L249,278L248,277L248,279L248,280L248,281L248,282L249,283L250,283L250,285L249,285L249,286L249,287L250,288L250,289L250,290L251,291L251,292L252,293L252,294L253,295L253,296L253,297L253,298L253,299L253,300L254,300L255,301L257,301L258,302L258,303L259,303L260,304L261,305L262,305L263,306L263,307L264,307L265,309L266,310L266,310L267,312L267,313L267,314L267,315L268,316L269,316L271,316L272,316L273,316L274,316L275,316L276,317L277,317L279,317L280,317Z M253,277L252,277L251,276L250,276L251,276L252,277Z " data-fips="US06" data-hasc="US.CA" data-name="California" data-postal="CA" data-varname="CA|Calif."/><path d="M347,296L347,295L347,294L347,293L347,291L347,290L347,289L347,288L347,287L347,286L347,284L348,283L348,282L348,281L348,280L348,278L348,277L348,276L348,275L348,273L348,272L347,272L345,272L344,272L343,272L342,272L341,272L340,272L339,272L337,272L336,272L334,272L333,271L331,271L330,271L328,271L327,271L325,271L324,271L322,271L321,270L320,270L318,270L317,270L315,270L315,271L315,273L315,274L314,276L314,277L314,279L314,281L314,282L314,284L313,285L313,287L313,288L313,290L313,291L312,293L314,295L316,295L318,295L320,295L322,296L324,296L325,296L327,296L329,296L331,296L333,296L335,297L337,297L339,297L340,297L342,297L343,297L345,297L346,297L347,297Z " data-fips="US08" data-hasc="US.CO" data-name="Colorado" data-postal="CO" data-varname="CO|Colo."/><path d="M283,302L283,301L283,300L283,298L284,297L283,296L284,296L285,296L286,297L287,296L287,296L287,295L287,294L288,292L288,291L288,291L288,289L288,287L289,285L289,283L289,281L290,279L290,277L290,276L291,274L291,272L291,270L292,268L292,266L292,264L293,262L293,260L291,260L290,260L288,259L286,259L285,259L283,258L281,258L280,258L278,257L276,257L275,256L273,256L271,256L270,255L268,255L266,254L266,256L266,257L265,258L265,259L265,260L265,261L264,262L264,263L264,265L264,266L263,267L263,268L263,269L262,270L262,271L262,272L263,274L264,275L264,277L265,278L266,279L267,280L268,282L269,283L270,284L270,285L271,286L272,287L272,288L273,289L274,290L275,291L275,292L276,293L276,294L277,295L278,296L278,297L279,298L280,299L280,300L281,301L282,302L283,303Z " data-fips="US32" data-hasc="US.NV" data-name="Nevada" data-postal="NV" data-varname="NV|Nev."/><path d="M313,329L313,328L314,327L315,328L316,328L317,328L318,328L319,328L320,328L321,328L322,328L322,328L322,328L322,327L323,327L324,327L325,327L326,327L328,327L329,327L330,328L331,328L332,328L333,328L335,328L336,328L337,328L338,328L339,328L341,327L341,326L341,324L341,322L341,320L341,319L341,317L341,315L341,313L341,312L341,310L342,308L342,306L342,305L342,303L342,301L342,300L342,299L342,297L340,297L339,297L337,297L335,297L333,296L331,296L329,296L327,296L325,296L324,296L322,296L320,295L318,295L316,295L314,295L312,296L312,297L312,298L312,299L312,300L312,301L311,302L311,303L311,304L311,306L311,307L311,308L311,309L311,310L310,311L310,312L310,313L310,314L310,315L310,317L310,318L310,319L310,320L309,321L309,322L309,323L309,324L309,325L309,326L309,328L309,329L309,330L309,330L309,330L310,330L311,330L312,330Z " data-fips="US35" data-hasc="US.NM" data-name="New Mexico" data-postal="NM" data-varname="NM|N.M."/><path d="M280,256L280,255L280,254L281,252L281,251L281,250L282,249L282,247L282,246L283,245L283,244L282,244L282,242L283,242L283,241L284,240L285,239L285,238L286,237L286,236L287,235L286,234L286,233L286,233L285,233L283,233L282,232L281,232L280,232L279,232L278,231L277,231L275,231L274,231L273,231L271,231L270,231L269,231L268,231L267,231L266,230L265,230L263,230L262,230L261,229L261,228L261,227L261,226L260,225L259,225L258,225L257,225L257,224L257,225L256,226L256,228L255,228L255,230L255,231L254,231L254,232L253,234L253,235L252,236L252,237L251,238L251,239L250,241L249,241L249,242L248,243L248,244L248,246L247,247L247,248L248,249L249,250L250,250L251,250L252,251L254,251L255,251L256,252L257,252L258,252L259,253L260,253L262,253L263,254L264,254L265,254L266,254L268,255L270,255L271,256L273,256L275,256L276,257L278,257L280,258Z " data-fips="US41" data-hasc="US.OR" data-name="Oregon" data-postal="OR" data-varname="OR|Ore."/><path d="M312,293L313,291L313,290L313,288L313,287L313,285L314,284L314,282L314,281L314,279L314,277L314,276L315,274L315,273L315,271L315,270L314,270L313,269L312,269L310,269L309,269L308,269L307,269L306,268L306,267L306,266L306,265L307,263L305,262L303,262L302,262L300,261L298,261L296,261L295,260L293,260L293,262L292,264L292,266L292,268L291,270L291,272L291,274L290,276L290,277L290,279L289,281L289,283L289,285L288,287L288,289L288,291L289,291L291,292L292,292L294,292L295,292L297,292L298,293L300,293L302,293L303,293L305,294L306,294L308,294L309,294L311,294Z " data-fips="US49" data-hasc="US.UT" data-name="Utah" data-postal="UT" data-varname="UT"/><path d="M339,270L339,269L339,267L339,266L339,264L339,262L339,261L339,258L340,256L340,255L340,253L340,252L340,250L340,248L340,247L339,247L337,247L336,247L334,247L333,246L332,246L330,246L329,246L327,246L326,246L324,246L323,245L322,245L320,245L319,245L317,245L316,245L314,244L313,244L312,244L310,244L309,245L309,246L309,249L308,251L308,253L308,255L308,257L307,258L307,260L307,263L306,265L306,266L306,267L306,268L307,269L308,269L309,269L310,269L312,269L313,269L314,270L315,270L317,270L318,270L320,270L321,270L322,271L324,271L325,271L327,271L328,271L330,271L331,271L333,271L334,272L336,272L337,272L339,272Z " data-fips="US56" data-hasc="US.WY" data-name="Wyoming" data-postal="WY" data-varname="WY|Wyo."/><path d="M389,322L391,322L393,322L395,321L396,321L398,321L400,321L402,321L403,321L403,320L403,318L402,318L403,317L403,316L403,315L404,314L404,313L405,312L405,311L405,310L406,309L407,308L407,308L407,307L408,305L408,304L408,303L409,303L408,302L407,302L406,301L407,300L407,299L406,299L405,299L403,299L402,299L401,299L399,299L398,299L396,300L395,300L394,300L392,300L391,300L390,300L388,300L387,300L386,300L384,302L385,304L385,305L385,307L385,308L385,310L385,311L385,313L385,314L386,315L386,317L386,318L386,318L387,318L388,319L388,320L388,322Z " data-fips="US05" data-hasc="US.AR" data-name="Arkansas" data-postal="AR" data-varname="AR|Ark."/><path d="M379,275L380,275L381,275L382,275L383,275L384,275L385,275L386,275L387,275L389,274L390,274L391,274L393,274L394,274L396,274L397,274L397,274L398,275L398,274L399,273L400,272L400,271L400,270L399,270L400,268L402,268L403,267L403,266L403,265L403,264L402,263L402,262L401,261L400,261L399,260L398,259L398,258L398,257L397,256L396,256L394,256L393,256L392,256L390,256L389,256L387,256L386,256L384,256L383,257L381,257L380,257L378,257L377,257L375,257L374,257L374,258L374,259L374,260L374,261L373,262L374,264L375,265L375,266L376,267L376,268L376,269L377,270L377,271L377,272L377,273L377,274L378,275Z " data-fips="US19" data-hasc="US.IA" data-name="Iowa" data-postal="IA" data-varname="IA|Iowa"/><path d="M366,298L367,298L368,298L369,298L370,297L371,297L373,297L374,297L375,297L376,297L377,297L378,297L379,297L381,297L382,297L383,297L384,296L384,295L384,293L384,292L384,290L384,288L384,287L383,285L383,284L382,283L382,282L381,281L382,280L382,279L381,279L380,279L379,279L378,279L377,279L376,279L375,279L374,279L373,279L372,279L371,279L370,279L369,279L368,279L367,279L366,279L365,279L364,279L363,279L362,279L361,279L360,279L359,279L358,279L357,279L356,279L355,279L354,279L353,279L352,279L351,279L350,279L349,279L348,280L348,281L348,282L348,283L347,284L347,286L347,287L347,288L347,289L347,290L347,291L347,293L347,294L347,295L347,296L347,297L348,297L349,297L351,297L352,297L353,297L354,297L355,297L356,297L358,297L359,298L360,298L361,298L362,298L363,298L364,298Z " data-fips="US20" data-hasc="US.KS" data-name="Kansas" data-postal="KS" data-varname="KS|Kans."/><path d="M408,302L409,301L409,299L409,298L410,298L410,298L411,298L411,296L411,295L410,295L410,294L409,293L409,292L409,291L408,290L407,290L406,289L405,289L404,288L405,287L405,285L405,284L404,284L403,284L402,283L402,282L402,281L400,280L398,278L398,277L398,276L397,274L397,274L396,274L394,274L393,274L391,274L390,274L389,274L387,275L386,275L385,275L384,275L383,275L382,275L381,275L380,275L379,275L378,275L378,275L378,276L379,277L379,278L380,279L381,279L382,279L382,280L381,281L382,282L382,283L383,284L383,285L384,287L384,288L384,290L384,292L384,293L384,295L384,296L384,299L386,300L387,300L388,300L390,300L391,300L392,300L394,300L395,300L396,300L398,299L399,299L401,299L402,299L403,299L405,299L406,299L407,299L407,300L406,301L407,302Z " data-fips="US29" data-hasc="US.MO" data-name="Missouri" data-postal="MO" data-varname="MO"/><path d="M365,279L366,279L367,279L368,279L369,279L370,279L371,279L372,279L373,279L374,279L375,279L376,279L377,279L378,279L379,279L380,279L379,278L379,277L378,276L378,275L378,275L377,274L377,273L377,272L377,271L377,270L376,269L376,268L376,267L375,266L375,265L374,264L373,262L372,262L371,261L370,261L368,261L367,261L366,261L365,261L364,260L363,260L361,260L360,260L358,260L357,260L355,260L353,260L352,260L350,260L349,260L347,260L346,260L344,260L343,260L341,259L339,261L339,262L339,264L339,266L339,267L339,269L339,270L339,272L340,272L341,272L342,272L343,272L344,272L345,272L347,272L348,272L348,273L348,275L348,276L348,277L348,278L349,279L350,279L351,279L352,279L353,279L354,279L355,279L356,279L357,279L358,279L359,279L360,279L361,279L362,279L363,279L364,279Z " data-fips="US31" data-hasc="US.NE" data-name="Nebraska" data-postal="NE" data-varname="NE|Nebr."/><path d="M386,317L386,315L385,314L385,313L385,311L385,310L385,308L385,307L385,305L385,304L384,302L384,299L383,297L382,297L381,297L379,297L378,297L377,297L376,297L375,297L374,297L373,297L371,297L370,297L369,298L368,298L367,298L366,298L364,298L363,298L362,298L361,298L360,298L359,298L358,297L356,297L355,297L354,297L353,297L352,297L351,297L349,297L348,297L347,297L346,297L345,297L343,297L342,297L342,299L342,300L342,300L343,300L344,300L346,300L347,300L348,300L349,300L351,300L352,300L353,301L355,301L357,301L357,302L357,303L357,304L357,306L357,307L357,309L357,310L357,312L358,313L359,314L360,314L361,314L361,315L362,315L364,315L364,316L366,315L367,316L368,316L368,317L369,316L370,317L371,317L372,317L373,316L374,317L375,317L376,318L377,317L378,317L379,317L380,316L381,317L382,316L383,317L384,317L385,318L386,318Z " data-fips="US40" data-hasc="US.OK" data-name="Oklahoma" data-postal="OK" data-varname="OK|Okla."/><path d="M373,262L374,261L374,260L374,259L374,258L374,257L374,256L374,254L374,253L374,251L374,250L374,249L374,247L374,246L373,245L372,244L372,243L373,242L372,242L371,242L370,242L369,242L368,242L367,242L366,242L365,242L364,242L363,242L362,242L361,242L360,242L359,242L358,242L357,242L356,242L355,242L354,242L353,242L352,242L351,242L350,242L349,241L348,241L347,241L346,241L345,241L344,241L343,241L342,241L340,242L340,244L340,245L340,246L340,247L340,248L340,250L340,252L340,253L340,255L340,256L339,258L341,259L343,260L344,260L346,260L347,260L349,260L350,260L352,260L353,260L355,260L357,260L358,260L360,260L361,260L363,260L364,260L365,261L366,261L367,261L368,261L370,261L371,261L372,262L373,262Z " data-fips="US46" data-hasc="US.SD" data-name="South Dakota" data-postal="SD" data-varname="SD|S.D."/><path d="M411,344L411,343L411,342L412,342L412,343L413,343L414,343L415,345L416,344L416,343L416,343L415,342L414,342L413,342L412,341L413,340L414,339L414,338L413,339L412,340L412,339L412,338L411,338L410,339L409,339L408,338L409,337L410,337L411,337L412,338L413,338L413,338L413,338L413,338L413,337L412,336L411,335L411,334L411,333L410,333L409,333L407,333L406,333L404,333L403,333L402,333L401,332L402,331L402,330L402,329L403,328L404,327L404,326L404,325L404,324L403,323L403,322L403,321L402,321L400,321L398,321L396,321L395,321L393,322L391,322L389,322L388,322L388,323L388,325L388,326L388,328L389,329L389,329L390,331L390,331L391,332L391,333L391,334L391,335L391,336L391,337L390,338L391,340L390,341L390,341L390,342L391,342L392,342L393,342L394,342L395,342L396,343L398,343L399,343L400,342L400,341L401,342L402,341L402,342L403,343L404,342L404,343L404,344L406,344L407,345L408,345L408,344L409,343L410,344L410,345Z " data-fips="US22" data-hasc="US.LA" data-name="Louisiana" data-postal="LA" data-varname="LA"/><path d="M372,364L372,363L371,361L371,360L371,359L371,360L371,361L371,362L372,363L372,364L372,365Z M372,357L372,356L372,355L372,356L371,357L371,358Z M375,352L376,351L376,351L375,352L374,353Z M372,366L372,366L371,365L371,364L371,363L371,362L370,361L370,360L370,359L370,358L369,358L369,357L370,358L371,357L371,356L372,355L371,354L372,355L373,354L372,353L373,353L374,352L374,351L376,351L376,350L375,349L376,349L377,350L379,349L378,350L379,350L380,349L379,349L380,349L381,348L382,347L383,347L384,346L384,345L384,344L384,343L385,342L385,344L387,344L386,344L387,343L389,343L390,342L389,341L390,341L391,340L390,338L391,337L391,336L391,335L391,334L391,333L391,332L390,331L390,331L389,329L389,329L388,328L388,326L388,325L388,323L388,322L388,320L388,319L387,318L386,318L386,318L385,318L384,317L383,317L382,316L381,317L380,316L379,317L378,317L377,317L376,318L375,317L374,317L373,316L372,317L371,317L370,317L369,316L368,317L368,316L367,316L366,315L364,316L364,315L362,315L361,315L361,314L360,314L359,314L358,313L357,312L357,310L357,309L357,307L357,306L357,304L357,303L357,302L357,301L355,301L353,301L352,300L351,300L349,300L348,300L347,300L346,300L344,300L343,300L342,300L342,300L342,301L342,303L342,305L342,306L342,308L341,310L341,312L341,313L341,315L341,317L341,319L341,320L341,322L341,324L341,326L341,327L339,328L338,328L337,328L336,328L335,328L333,328L332,328L331,328L330,328L329,327L328,327L326,327L325,327L324,327L323,327L322,327L322,328L322,328L322,328L322,328L323,329L324,330L325,331L325,332L326,333L327,333L328,334L329,335L329,336L330,336L330,337L331,338L331,339L331,340L332,341L332,342L333,343L334,344L334,344L335,345L336,346L337,346L338,347L339,347L340,346L341,345L341,344L342,343L342,342L344,342L345,342L346,342L347,342L348,342L349,343L350,343L350,344L351,345L352,346L353,347L353,348L354,348L354,350L355,350L355,351L355,352L356,353L357,354L358,355L358,356L359,356L359,357L360,358L359,360L360,360L361,361L361,363L362,363L363,364L364,364L365,364L366,365L367,366L368,366L369,366L370,366L371,367Z M384,346L384,345L384,346L383,346Z " data-fips="US48" data-hasc="US.TX" data-name="Texas" data-postal="TX" data-varname="TX|Tex."/><path d="M480,256L481,255L481,255L482,254L483,253L484,253L485,253L486,252L487,252L487,251L486,250L486,249L486,248L486,248L485,248L483,248L482,248L482,249L482,249L481,249L481,249L481,249L479,249L478,250L479,250L479,252L479,253L479,254L480,255L480,256Z " data-fips="US09" data-hasc="US.CT" data-name="Connecticut" data-postal="CT" data-varname="CT|Conn."/><path d="M482,244L483,244L483,244L484,243L485,243L486,243L487,243L487,243L487,242L487,242L487,242L487,242L487,242L487,242L487,242L487,242L487,242L487,241L488,241L488,241L488,241L488,241L488,240L488,239L487,238L486,237L486,236L486,235L485,234L485,233L485,232L484,231L484,231L483,230L483,229L483,228L482,227L482,227L481,228L481,229L481,230L481,231L482,232L482,233L481,234L480,235L481,236L481,237L480,238L480,239L481,241L481,242L481,243L482,244Z " data-fips="US33" data-hasc="US.NH" data-name="New Hampshire" data-postal="NH" data-varname="NH|N.H."/><path d="M490,249L490,249L489,249L489,249L489,249L489,249L489,249L490,250Z M487,252L488,251L488,249L489,248L488,248L488,248L488,248L488,248L488,248L488,248L488,248L488,248L488,248L488,248L488,247L488,247L487,247L487,247L486,247L486,248L486,249L486,250L487,251L487,252Z " data-fips="US44" data-hasc="US.RI" data-name="Rhode Island" data-postal="RI" data-varname="State of Rhode Island and Providence Plantations|RI|R.I."/><path d="M479,245L479,245L479,245L480,245L480,244L481,244L481,244L482,244L481,243L481,242L481,241L480,239L480,238L481,237L481,236L480,235L481,234L482,233L482,232L481,231L481,230L481,229L481,229L479,230L478,230L477,230L476,231L475,231L474,232L474,232L474,233L474,234L475,235L475,237L475,238L476,239L476,240L477,241L477,242L477,243L478,244L478,245Z " data-fips="US50" data-hasc="US.VT" data-name="Vermont" data-postal="VT" data-varname="VT"/><path d="M422,336L424,336L424,335L424,335L424,333L423,332L423,331L425,331L427,331L428,331L430,331L432,330L433,330L435,330L437,330L436,329L436,328L436,326L436,325L435,324L436,323L436,322L436,322L435,320L435,319L434,318L434,317L434,316L433,315L433,314L433,313L432,312L432,311L432,310L431,309L431,308L431,306L430,305L429,306L428,306L426,306L425,306L423,306L421,306L420,307L418,307L417,307L418,308L418,309L418,310L418,311L418,313L418,315L418,316L418,318L418,320L418,321L418,323L418,324L418,325L418,326L418,328L418,329L418,330L418,331L419,332L419,333L419,335L419,336L420,336L421,336L421,335L421,334L422,334L422,335L422,336L421,337Z " data-fips="US01" data-hasc="US.AL" data-name="Alabama" data-postal="AL" data-varname="AL|Ala."/><path d="M467,361L467,361L467,360L467,361L467,362Z M464,362L465,362L466,361L467,361L467,359L467,358L468,357L468,355L468,353L468,352L467,351L467,350L466,349L465,346L462,342L461,341L461,340L462,341L462,341L462,341L462,341L462,341L462,341L462,342L462,341L463,341L463,342L463,344L464,345L463,343L463,342L463,341L462,340L461,339L460,338L460,337L459,336L458,335L458,334L457,333L457,331L456,330L456,329L455,328L455,328L453,328L453,329L453,330L453,331L452,330L451,330L450,330L449,330L448,330L446,331L445,331L444,331L443,331L442,331L441,331L439,331L438,331L437,331L437,330L435,330L433,330L432,330L430,331L428,331L427,331L425,331L423,331L423,332L424,333L424,335L424,335L425,335L424,336L425,335L425,334L426,335L426,334L427,334L426,335L427,335L428,334L429,334L430,334L431,334L430,334L429,334L431,335L432,335L434,335L433,334L434,334L434,335L435,336L434,336L435,336L436,337L436,338L435,337L436,338L436,338L436,338L437,338L438,337L439,337L440,336L441,336L441,335L442,335L443,335L444,335L445,336L446,337L446,337L447,338L448,339L449,339L450,339L451,340L451,341L451,342L451,343L451,344L451,345L451,347L451,348L452,348L451,347L452,348L452,347L452,346L453,347L454,347L453,348L453,349L453,350L453,351L454,352L455,352L456,353L455,352L456,353L456,354L457,355L457,354L457,355L458,356L458,357L459,358L460,358L461,358L462,359L462,360L463,361L464,362L463,361L463,362Z M465,346L464,345L465,346L465,348L466,349Z M429,334L429,334L427,335L426,335L425,335Z " data-fips="US12" data-hasc="US.FL" data-name="Florida" data-postal="FL" data-varname="FL|Fla."/><path d="M439,331L441,331L442,331L443,331L444,331L445,331L446,331L448,330L449,330L450,330L451,330L452,330L453,331L453,330L453,329L453,328L455,328L455,328L455,328L455,327L456,326L456,325L455,324L456,324L456,323L457,322L457,321L457,320L457,319L456,319L455,318L455,317L454,317L454,316L453,315L453,314L452,313L451,313L450,312L449,311L449,310L448,310L447,309L446,308L445,308L445,307L444,306L443,306L442,305L442,304L443,303L442,303L441,304L440,304L439,304L438,304L437,304L436,304L435,305L434,305L433,305L432,305L430,305L431,306L431,308L431,309L432,310L432,311L432,312L433,313L433,314L433,315L434,316L434,317L434,318L435,319L435,320L436,322L436,322L436,323L435,324L436,325L436,326L436,328L436,329L437,330L437,331L438,331Z " data-fips="US13" data-hasc="US.GA" data-name="Georgia" data-postal="GA" data-varname="GA|Ga."/><path d="M413,338L414,337L415,337L416,336L417,336L418,336L419,336L419,335L419,333L419,332L418,331L418,330L418,329L418,328L418,326L418,325L418,324L418,323L418,321L418,320L418,318L418,316L418,315L418,313L418,311L418,310L418,309L418,308L417,307L416,307L416,307L414,307L413,307L412,308L410,308L409,308L408,308L407,308L406,309L405,310L405,311L405,312L404,313L404,314L403,315L403,316L403,317L402,318L403,318L403,320L403,321L403,322L403,323L404,324L404,325L404,326L404,327L403,328L402,329L402,330L402,331L401,332L402,333L403,333L404,333L406,333L407,333L409,333L410,333L411,333L411,334L411,335L412,336L413,337L413,338Z " data-fips="US28" data-hasc="US.MS" data-name="Mississippi" data-postal="MS" data-varname="MS|Miss."/><path d="M458,319L458,318L457,317L457,317L458,317L459,317L459,316L460,316L461,315L461,315L462,314L463,313L464,312L464,311L464,310L464,309L465,310L465,309L465,308L466,307L467,306L467,305L465,305L464,304L463,303L462,302L461,301L459,301L458,302L457,302L456,302L455,302L454,301L453,301L452,301L451,301L450,301L449,301L448,301L446,301L446,301L445,302L444,303L443,303L442,304L442,305L443,306L444,306L445,307L445,308L446,308L447,309L448,310L449,310L449,311L450,312L451,313L452,313L453,314L453,315L454,316L454,317L455,317L455,318L456,319L457,319L457,320Z " data-fips="US45" data-hasc="US.SC" data-name="South Carolina" data-postal="SC" data-varname="SC|S.C."/><path d="M411,294L412,294L414,294L415,294L414,293L415,292L416,291L416,290L416,289L416,288L416,287L416,286L417,286L417,285L418,284L418,283L417,282L417,281L417,280L417,278L417,277L417,275L417,273L416,271L416,269L416,268L416,266L416,265L417,264L417,263L417,262L415,260L414,260L412,260L410,261L409,261L407,261L406,261L404,261L402,261L402,262L402,263L403,264L403,265L403,266L403,267L402,268L400,268L399,270L400,270L400,271L400,272L399,273L398,274L398,275L398,276L398,277L398,278L400,280L402,281L402,282L402,283L403,284L404,284L405,284L405,285L405,287L404,288L405,289L406,289L407,290L408,290L409,291L409,292L409,293L410,294L410,295L411,295Z " data-fips="US17" data-hasc="US.IL" data-name="Illinois" data-postal="IL" data-varname="IL|Ill."/><path d="M417,289L418,289L419,288L421,289L421,288L422,288L423,288L423,287L424,287L425,287L426,287L426,285L427,285L428,284L428,283L428,282L429,282L430,282L430,280L431,279L430,278L430,277L430,276L430,275L430,274L430,273L429,272L429,271L429,270L429,269L429,268L429,267L429,266L428,265L428,264L428,263L428,263L427,263L426,263L425,263L423,264L422,264L421,264L420,264L419,264L418,264L416,265L416,266L416,268L416,269L416,271L417,273L417,275L417,277L417,278L417,280L417,281L417,282L418,283L418,284L417,285L417,286L416,286L416,287L416,288L416,289L417,290Z " data-fips="US18" data-hasc="US.IN" data-name="Indiana" data-postal="IN" data-varname="IN|Ind."/><path d="M412,298L414,298L415,298L417,297L417,296L419,296L420,296L421,296L422,296L423,296L425,296L426,296L428,295L429,295L430,295L431,295L433,295L434,295L435,294L436,294L437,294L439,294L440,293L441,292L442,292L442,291L443,290L444,289L445,288L446,287L445,287L444,286L443,285L443,284L442,283L442,282L442,281L441,281L440,280L439,281L438,281L437,281L436,281L435,281L434,281L433,280L432,279L431,279L431,279L430,280L430,282L429,282L428,282L428,283L428,284L427,285L426,285L426,287L425,287L424,287L423,287L423,288L422,288L421,288L421,289L419,288L418,289L417,289L417,290L416,289L416,290L416,291L415,292L414,293L415,294L414,294L412,294L411,294L411,295L411,296L411,298L410,298L410,298Z " data-fips="US21" data-hasc="US.KY" data-name="Kentucky" data-postal="KY" data-varname="Commonwealth of Kentucky|KY"/><path d="M468,305L469,305L470,304L470,303L470,304L470,303L471,302L472,300L472,299L473,300L473,299L474,299L475,298L476,298L476,297L477,296L476,296L475,297L474,297L473,297L475,297L475,295L475,295L474,294L473,294L474,294L474,293L475,293L476,294L477,293L478,293L478,292L478,291L478,290L477,290L477,292L477,291L476,290L475,291L474,291L473,291L473,290L473,289L473,290L474,290L475,289L476,289L476,288L477,288L477,289L476,287L476,286L476,286L474,287L473,287L472,287L471,288L470,288L469,288L467,288L466,289L464,289L463,289L461,290L460,290L459,290L458,291L457,291L455,291L455,291L454,291L453,292L452,292L451,292L450,292L448,292L448,293L448,294L447,294L447,295L446,295L445,296L444,296L443,297L443,298L442,299L441,299L440,300L439,300L439,301L438,302L438,303L437,303L437,304L438,304L439,304L440,304L441,304L442,303L443,303L444,303L445,302L446,301L446,301L448,301L449,301L450,301L451,301L452,301L453,301L454,301L455,302L456,302L457,302L458,302L459,301L461,301L462,302L463,303L464,304L465,305L467,305L467,306L467,306Z M477,298L477,297L476,298L476,299Z M480,294L480,293L480,292L480,294L479,294Z M478,289L477,287L477,287L477,286L476,286L477,286L477,287L478,288L478,289L479,290Z " data-fips="US37" data-hasc="US.NC" data-name="North Carolina" data-postal="NC" data-varname="NC|N.C."/><path d="M443,281L443,280L443,279L443,278L444,278L445,278L445,277L445,276L446,275L446,275L447,274L448,274L449,272L449,271L449,270L449,269L449,268L449,267L449,266L449,265L448,264L448,262L448,261L448,260L447,258L447,257L447,256L446,256L445,257L444,257L442,258L441,259L440,260L439,262L438,262L436,261L435,260L434,262L433,262L432,263L430,263L429,263L428,263L428,264L428,265L429,266L429,267L429,268L429,269L429,270L429,271L429,272L430,273L430,274L430,275L430,276L430,277L430,278L431,279L431,279L432,279L433,280L434,281L435,281L436,281L437,281L438,281L439,281L440,280L441,281L442,281L442,282L442,282Z " data-fips="US39" data-hasc="US.OH" data-name="Ohio" data-postal="OH" data-varname="OH|Ohio"/><path d="M408,308L409,308L410,308L412,308L413,307L414,307L416,307L416,307L417,307L418,307L420,307L421,306L423,306L425,306L426,306L428,306L429,306L430,305L432,305L433,305L434,305L435,305L436,304L437,304L437,303L438,303L438,302L439,301L439,300L440,300L441,299L442,299L443,298L443,297L444,296L445,296L446,295L447,295L447,294L448,294L448,293L448,292L448,292L447,292L446,293L445,293L444,293L443,293L442,293L441,294L440,294L437,294L436,294L435,294L434,295L433,295L431,295L430,295L429,295L428,295L426,296L425,296L423,296L422,296L421,296L420,296L419,296L417,296L417,297L415,298L414,298L412,298L410,298L409,298L409,299L409,301L409,303L408,303L408,304L408,305L407,307L407,308L407,308Z " data-fips="US47" data-hasc="US.TN" data-name="Tennessee" data-postal="TN" data-varname="TN|Tenn."/><path d="M441,294L442,293L443,293L444,293L445,293L446,293L447,292L448,292L448,292L450,292L451,292L452,292L453,292L454,291L455,291L455,291L457,291L458,291L459,290L460,290L461,290L463,289L464,289L466,289L467,288L469,288L470,288L471,288L472,287L473,287L474,287L476,286L476,286L476,286L476,286L476,285L476,286L477,286L476,286L476,285L475,284L474,285L473,284L472,284L471,283L470,283L469,283L470,283L471,283L472,283L472,284L474,284L473,283L472,283L471,282L473,282L473,281L473,280L472,280L471,280L470,279L469,278L468,278L469,278L470,279L471,279L472,280L473,280L473,279L472,278L471,278L470,277L469,277L468,276L467,277L467,276L467,275L468,274L467,273L467,273L466,273L465,273L465,272L464,271L464,271L463,273L463,272L462,272L461,272L461,273L460,274L460,275L459,276L458,276L458,277L458,278L457,278L456,278L456,279L455,280L455,281L455,282L454,283L454,284L454,285L453,286L452,286L451,287L450,287L449,288L448,288L447,288L446,288L446,287L445,288L444,289L443,290L442,291L442,292L441,292L440,293L439,294L440,294Z M475,281L476,280L476,279L477,277L477,277L476,277L475,277L475,278L475,279L475,280L475,281L475,282Z M477,276L477,276L477,276L477,277Z " data-fips="US51" data-hasc="US.VA" data-name="Virginia" data-postal="VA" data-varname="VA"/><path d="M404,261L406,261L407,261L409,261L410,261L412,260L414,260L415,260L417,259L417,257L416,256L416,255L416,254L416,253L416,251L416,250L416,249L416,247L416,246L417,245L417,244L418,243L417,242L416,242L415,241L414,242L414,243L413,244L412,243L412,242L411,242L411,241L411,240L410,240L409,239L408,239L407,239L406,239L405,238L404,238L403,238L402,238L401,237L400,237L399,236L400,235L400,234L400,233L400,232L399,232L397,232L397,233L396,233L395,234L394,235L393,235L392,236L391,236L391,238L391,239L391,240L391,241L390,241L389,242L390,243L390,244L390,245L390,246L390,247L390,249L392,249L392,250L394,251L394,252L395,252L396,252L397,253L397,254L397,255L397,256L398,257L398,258L398,259L399,260L400,261L401,261L402,261Z " data-fips="US55" data-hasc="US.WI" data-name="Wisconsin" data-postal="WI" data-varname="WI|Wis."/><path d="M449,288L450,287L451,287L452,286L453,286L454,285L454,284L454,283L455,282L455,281L455,280L456,279L456,278L457,278L458,278L458,277L458,276L459,276L460,275L460,274L461,273L461,272L462,272L463,272L463,273L464,271L464,271L463,271L463,270L462,270L461,270L460,270L459,271L458,271L458,272L457,272L456,273L456,274L454,271L453,271L451,272L450,271L450,270L450,269L449,268L449,267L449,266L449,267L449,268L449,269L449,270L449,271L449,272L448,274L447,274L446,275L446,275L445,276L445,277L445,278L444,278L443,278L443,279L443,280L443,281L442,282L442,282L442,282L442,283L443,284L443,285L444,286L445,287L446,287L446,288L447,288L448,288Z " data-fips="US54" data-hasc="US.WV" data-name="West Virginia" data-postal="WV" data-varname="WV|W.Va."/><path d="M476,274L477,274L477,274L477,273L477,273L477,272L476,271L475,271L475,270L474,269L473,268L473,267L474,266L473,266L472,267L472,268L473,269L473,271L474,272L474,273L475,274Z " data-fips="US10" data-hasc="US.DE" data-name="Delaware" data-postal="DE" data-varname="DE|Del."/><path d="M468,273L467,273L467,273L468,274Z " data-fips="US11" data-hasc="US.DC" data-name="District of Columbia" data-postal="DC" data-varname="DC|D.C."/><path d="M477,276L477,276L477,276L477,275L477,276Z M475,277L476,277L477,277L477,276L477,275L477,274L476,274L475,274L474,273L474,272L473,271L473,269L472,268L472,267L471,267L470,267L469,268L468,268L467,268L466,268L465,269L464,269L462,269L461,269L460,270L459,270L458,270L457,270L456,271L456,274L456,273L457,272L458,272L458,271L459,271L460,270L461,270L462,270L463,270L463,271L464,271L465,272L465,273L466,273L468,273L468,274L468,275L467,276L467,277L468,276L469,276L470,277L471,277L472,277L472,277L471,276L470,275L470,274L470,275L471,275L470,275L470,273L470,272L470,271L469,270L470,270L470,269L471,269L471,268L472,268L472,269L471,270L471,271L471,271L471,272L472,272L471,273L472,273L473,274L472,274L472,275L473,276L474,275L474,276L475,277L474,278Z " data-fips="US24" data-hasc="US.MD" data-name="Maryland" data-postal="MD" data-varname="MD"/><path d="M478,269L478,268L479,267L479,265L479,264L479,263L479,262L480,263L479,262L479,261L479,260L478,260L478,259L478,258L478,257L477,256L476,256L475,256L474,255L474,256L474,257L473,258L473,259L473,260L473,261L474,261L475,262L476,263L475,264L475,264L474,265L473,266L473,267L474,268L475,269L476,269L477,269L478,270Z " data-fips="US34" data-hasc="US.NJ" data-name="New Jersey" data-postal="NJ" data-varname="NJ|N.J."/><path d="M480,259L481,258L482,257L483,257L484,256L485,256L485,255L486,254L487,253L486,254L485,254L484,255L485,254L485,253L485,254L484,254L484,255L482,256L481,256L480,257L479,257L479,258L479,257L480,256L480,255L479,254L479,253L479,252L479,250L478,250L478,249L478,249L478,248L478,247L478,246L478,245L478,245L478,244L477,243L477,242L477,241L476,240L476,239L475,238L475,237L475,235L474,234L474,233L474,232L474,232L473,232L472,232L471,232L470,233L468,233L467,233L467,233L466,234L466,235L465,236L464,237L464,238L463,239L462,240L462,242L462,243L461,244L460,244L459,245L458,245L457,245L456,245L455,246L454,246L453,246L452,247L452,248L452,249L453,250L453,251L452,252L451,253L450,254L450,255L450,256L451,257L451,257L452,257L453,257L454,256L456,256L457,256L458,255L459,255L461,255L462,254L463,254L464,254L465,254L467,253L468,253L469,253L470,252L471,253L472,253L472,254L473,255L474,255L475,256L476,256L477,256L478,257L478,256L478,255L478,256L479,257L479,258L479,258L479,259Z " data-fips="US36" data-hasc="US.NY" data-name="New York" data-postal="NY" data-varname="NY|N.Y."/><path d="M453,271L454,271L456,271L457,270L458,270L459,270L460,270L461,269L462,269L464,269L465,269L466,268L467,268L468,268L469,268L470,267L471,267L472,267L473,266L474,266L474,265L475,264L476,263L475,262L474,261L473,261L473,260L473,259L473,258L474,257L474,256L474,255L473,255L472,254L472,253L471,253L470,252L469,253L468,253L467,253L465,254L464,254L463,254L462,254L461,255L459,255L458,255L457,256L456,256L454,256L453,257L452,257L451,257L451,257L450,256L450,255L450,254L449,254L448,255L447,256L447,257L447,258L448,260L448,261L448,262L448,264L449,265L449,266L449,267L449,268L450,269L450,270L450,271L451,272Z " data-fips="US42" data-hasc="US.PA" data-name="Pennsylvania" data-postal="PA" data-varname="Commonwealth of Pennsylvania|PA"/><path d="M489,239L489,238L489,237L489,236L489,235L490,235L491,234L490,233L491,233L491,232L492,233L492,232L493,232L493,231L493,230L493,229L493,228L494,229L495,229L495,228L496,227L497,227L497,226L498,226L499,225L499,225L499,224L499,223L498,222L497,222L497,221L496,220L495,220L494,219L494,218L494,217L493,216L492,214L492,213L491,211L490,211L489,210L488,211L487,212L486,212L486,212L486,211L485,212L484,213L484,215L484,216L484,217L484,219L484,220L484,221L484,222L484,223L484,224L483,225L484,226L483,226L482,227L483,228L483,229L483,230L484,231L484,231L485,232L485,233L485,234L486,235L486,236L486,237L487,238L488,239L488,240Z " data-fips="US23" data-hasc="US.ME" data-name="Maine" data-postal="ME" data-varname="ME|Maine"/><path d="M418,264L419,264L420,264L421,264L422,264L423,264L425,263L426,263L427,263L428,263L428,263L429,263L430,263L432,263L433,262L434,262L435,260L435,259L435,258L436,257L437,256L437,255L437,254L437,253L438,252L438,251L438,249L437,248L437,247L437,246L436,244L436,243L435,242L435,241L434,239L433,239L431,238L430,237L429,236L429,235L428,235L427,235L426,234L426,233L425,233L424,234L423,233L423,232L422,231L421,230L420,230L418,229L417,229L416,229L415,228L414,228L413,227L412,227L410,226L409,226L408,225L406,225L406,225L405,226L403,227L402,227L402,228L401,229L401,230L400,233L400,234L400,235L399,236L400,237L401,237L402,238L403,238L404,238L405,238L406,239L407,239L408,239L409,239L410,240L411,240L411,241L411,242L412,242L412,243L413,244L414,243L414,242L415,241L416,242L417,242L418,243L417,244L417,245L416,246L416,247L416,249L416,250L416,251L416,253L416,254L416,255L416,256L417,257L417,259L417,262L417,263L417,264Z " data-fips="US26" data-hasc="US.MI" data-name="Michigan" data-postal="MI" data-varname="MI|Mich."/><path d="M254,164L254,163L255,163L256,161L256,160L256,159L257,158L257,158L256,157L256,156L255,155L254,154L254,153L253,152L253,151L254,150L253,149L254,148L254,147L254,146L254,145L254,143L254,142L254,140L253,138L253,137L253,135L253,134L252,133L252,132L253,131L252,130L251,130L250,129L249,130L248,131L247,131L244,131L245,130L244,128L244,124L243,123L245,121L243,120L242,121L241,120L240,118L241,117L242,115L243,114L244,112L245,111L246,109L247,108L248,106L249,105L251,103L252,102L253,100L254,99L255,97L256,96L257,94L258,93L260,91L261,90L262,88L263,87L264,85L265,84L266,82L268,81L269,79L270,78L271,76L272,75L273,73L275,72L276,71L275,70L275,69L274,68L274,67L274,66L273,65L272,65L271,65L270,64L270,63L269,62L268,61L267,60L267,59L266,58L266,57L266,56L265,55L264,55L263,54L262,54L262,52L261,51L262,52L262,51L263,51L263,50L262,49L260,48L260,47L261,47L261,46L260,46L259,46L258,46L258,45L260,45L260,45L260,44L261,43L260,42L258,43L257,43L256,43L255,42L254,41L254,41L253,40L252,41L252,42L251,41L250,42L251,41L252,40L250,40L249,40L248,39L247,39L248,39L247,39L246,39L245,39L244,39L243,39L242,40L241,40L239,40L238,40L237,39L236,38L235,37L234,37L233,38L233,38L231,38L231,39L231,40L231,42L231,43L230,44L230,46L229,47L228,48L228,49L229,50L230,50L229,50L230,51L230,52L229,52L228,52L228,54L229,54L229,55L230,56L229,57L228,56L228,54L227,54L228,52L228,52L229,50L228,51L228,52L227,53L226,54L227,54L227,56L226,56L227,55L226,55L224,55L224,54L223,53L223,52L222,51L223,50L224,50L225,49L224,48L223,48L222,48L222,47L220,47L220,48L219,47L219,46L217,46L216,45L215,45L215,44L214,45L214,47L214,48L214,49L213,49L213,48L212,49L212,50L211,51L211,52L211,53L211,54L212,55L213,56L213,57L214,58L214,59L215,58L215,59L215,60L216,60L217,60L218,60L218,61L220,61L219,62L218,63L217,63L216,62L216,63L216,64L215,65L214,66L213,67L212,67L211,66L210,64L209,64L208,64L207,65L206,64L205,63L206,63L206,62L205,61L204,62L203,61L202,62L202,63L203,63L201,63L201,64L201,63L200,62L199,62L198,62L197,63L196,64L195,63L195,64L194,63L193,65L193,66L193,67L194,66L195,67L196,67L195,67L194,67L193,67L193,68L192,69L192,69L192,69L192,69L192,69L191,69L190,70L189,70L190,70L189,71L189,73L188,74L188,75L188,76L189,77L190,78L191,78L192,78L193,77L194,77L195,76L196,77L195,77L194,77L193,78L192,78L192,79L191,80L190,81L189,82L188,82L188,83L188,84L187,84L186,85L185,85L186,86L187,86L188,87L189,87L190,88L190,89L190,90L191,89L191,90L190,91L190,93L190,94L191,93L192,92L193,92L194,92L194,93L194,92L193,92L193,93L193,94L194,94L195,95L196,95L197,95L196,95L195,96L194,96L193,96L192,97L192,98L191,98L191,98L190,99L189,100L188,101L188,100L187,100L186,100L184,100L183,101L182,101L182,100L181,100L180,100L178,100L177,99L176,100L175,100L174,101L174,102L174,101L173,101L174,100L173,99L172,98L171,98L170,98L168,98L167,98L166,97L164,98L164,99L165,98L165,99L166,99L167,99L166,100L166,100L168,100L169,100L170,100L171,100L171,101L170,100L170,101L171,102L172,102L172,103L173,102L174,103L175,103L176,103L175,104L176,104L177,104L178,105L179,105L180,105L179,105L180,105L181,105L181,104L182,103L183,104L184,104L185,104L186,104L187,105L188,105L189,105L189,105L190,104L191,104L192,104L193,104L194,104L195,104L196,104L197,104L198,104L199,105L199,104L200,104L201,104L202,104L203,104L204,103L204,102L204,101L203,100L204,100L205,100L206,99L207,99L208,99L208,100L209,100L209,99L210,100L211,99L211,98L211,97L212,98L213,98L214,98L215,97L216,98L217,97L218,97L219,97L220,97L222,97L222,98L223,98L224,98L225,99L223,98L222,99L222,100L222,101L223,102L222,100L221,100L220,99L219,99L218,99L217,99L216,100L215,100L214,101L213,101L212,102L211,103L212,103L213,104L212,104L211,104L210,104L209,105L210,105L211,105L212,106L213,106L214,106L215,106L214,106L215,106L216,106L217,105L217,106L218,106L219,105L218,106L219,107L219,107L221,107L221,106L222,106L223,106L224,105L223,105L222,104L224,105L224,104L223,104L223,103L225,103L225,102L226,103L227,103L226,103L225,104L226,104L227,104L226,105L227,105L228,105L229,105L230,106L229,105L228,106L228,107L227,107L228,107L229,108L229,109L228,110L229,110L229,111L231,111L232,111L231,112L230,112L230,113L231,114L230,115L231,115L232,116L233,116L234,117L235,118L236,119L237,119L238,120L237,121L238,122L239,123L240,123L241,123L242,123L243,124L243,125L242,124L242,125L242,124L242,123L241,123L241,124L240,124L240,126L241,127L241,128L242,129L242,130L242,131L243,132L243,134L243,135L244,136L244,137L245,136L246,137L246,135L246,135L246,134L246,133L245,132L246,132L246,133L247,134L247,134L248,133L248,134L247,135L247,136L247,137L248,137L248,138L249,139L249,138L249,137L250,136L250,135L250,134L250,133L251,134L251,133L251,132L251,133L251,135L250,135L250,137L250,138L250,139L251,139L251,140L252,140L253,139L252,140L251,141L251,142L252,142L251,142L251,143L252,143L253,143L252,143L252,144L252,145L251,144L252,145L251,146L251,147L250,147L251,148L251,149L251,150L252,151L251,152L251,153L252,154L252,155L253,155L252,155L251,156L250,157L249,157L250,159L251,158L251,157L252,157L253,157L254,157L253,157L254,159L253,160L253,161L253,162L252,162L252,162L253,162L254,162L253,162L252,163L251,163L251,164L252,164L253,165Z M252,161L253,160L253,159L253,158L253,157L252,157L251,158L251,159L250,159L251,160L252,160L252,159L252,160L251,161L252,160L251,161Z M245,161L245,160L245,159L245,159L244,160L245,161L245,162Z M251,155L250,154L250,153L249,154L250,155L250,156Z M251,154L251,153L251,154L252,155Z M248,162L247,161L249,161L248,160L249,159L248,158L247,158L248,158L249,159L249,158L249,156L249,155L248,154L248,153L248,152L247,152L247,152L247,153L247,153L247,153L247,153L247,153L247,153L246,154L247,154L247,153L247,153L247,154L246,155L246,156L247,157L246,158L245,158L246,159L247,160L246,161L247,162L246,163L247,163Z M250,152L250,152L249,153L250,153Z M246,151L247,151L247,150L247,149L247,148L247,148L246,147L246,148L246,149L246,151L245,151L245,152L246,151L245,152Z M251,151L251,150L250,150L250,151L250,152Z M244,150L245,149L245,148L245,147L246,146L246,144L246,143L245,143L245,143L244,143L244,145L244,146L243,147L244,147L243,148L244,148L243,148L243,149L244,151Z M249,151L249,150L250,151L251,150L250,149L249,148L249,147L248,147L248,148L248,149L247,150L248,151L249,152Z M244,144L243,143L243,144L243,145Z M247,143L247,142L246,141L246,140L247,141L248,141L248,140L248,139L247,139L247,138L246,138L245,137L245,138L244,138L244,139L244,140L244,139L244,140L244,141L243,142L244,143L245,142L245,141L246,142L246,143Z M247,146L248,146L248,145L249,145L250,144L250,143L249,142L250,142L250,143L250,144L250,143L251,141L250,140L249,139L249,138L249,139L249,140L249,141L248,142L248,143L248,144L247,145L246,145L246,146Z M201,112L201,111L202,110L201,109L200,109L201,109L200,108L199,108L198,109L199,108L198,107L197,108L197,109L196,109L196,110L196,109L197,108L196,107L195,107L195,107L194,108L193,109L193,110L194,111L194,110L193,109L194,110L195,111L194,111L193,112L194,112L195,112L195,112L196,111L197,111L198,112L199,112L199,111L199,111L200,112Z M227,109L227,109L226,108L226,109Z M223,109L224,109L225,108L225,108L224,109L223,109L222,109L221,110L222,110Z M204,109L205,108L204,108L203,107L203,107L203,107L202,108L201,107L201,108L202,109L203,109Z M224,107L224,106L224,106L223,107L223,108Z M171,106L172,105L172,105L171,105L170,106Z M171,103L170,103L170,104L171,104Z M163,99L163,97L163,96L162,96L161,96L160,95L159,95L158,96L158,97L159,97L160,97L161,99L162,99L163,100Z M151,95L152,95L153,94L151,94L152,93L151,92L150,93L150,94L149,93L148,94L148,94L147,93L146,94L147,94L148,94L149,95L150,95L151,96Z M147,91L147,91L145,91L144,91L143,91L142,91L141,91L142,92L143,92L144,92L145,92L147,92Z M188,88L188,87L187,87L186,88L187,88Z M129,81L129,80L129,80L128,79L128,80L129,81L129,82L130,83Z M129,78L130,78L129,77L128,78L127,77L126,76L126,75L126,76L127,77L128,78L128,79Z M123,73L123,72L123,71L122,71L121,72L122,73Z M193,73L192,73L193,72L191,71L192,71L192,70L192,69L192,69L193,70L193,71L194,72L193,72Z M121,68L120,67L120,68L120,69Z M186,71L187,70L187,69L187,68L187,68L186,67L185,67L184,66L184,67L184,68L183,69L184,70L185,71Z M115,59L115,58L115,57L115,57L115,58L115,59L115,61Z M117,52L116,52L115,52L116,52Z M178,53L178,51L177,53L178,54Z M200,51L199,50L199,49L199,48L200,47L200,46L199,46L199,45L198,44L198,43L197,44L197,44L197,45L198,46L198,46L198,47L197,48L197,49L197,50L198,51L199,52Z M115,38L115,38L114,37L114,38Z M118,34L118,33L117,33L116,33L117,34L117,35Z " data-fips="US02" data-hasc="US.AK" data-name="Alaska" data-postal="AK" data-varname="AK|Alaska"/></g><metadata><views><view h="401" padding="0" w="500" y="300"><proj id="laea" lat0="23.951" lon0="-102.535"/><bbox h="226.19" w="352.19" x="829.6" y="1000.66"/><llbbox lat0="-90" lat1="90" lon0="-180" lon1="180"/></view></views></metadata><g id="admin1"><path d="M47,119L48,118L47,117L47,116L47,115L46,115L46,117L46,118L45,119L46,120L47,121Z M84,113L83,112L84,113L85,114Z M84,124L83,123L83,122L84,121L83,120L83,118L83,117L82,116L81,116L79,115L79,113L79,112L79,110L78,109L76,110L76,108L76,107L75,107L74,108L74,106L73,105L74,104L73,103L72,102L72,101L71,99L69,96L67,95L66,94L65,92L64,91L63,91L62,90L62,89L61,88L60,87L60,86L59,84L59,83L59,82L59,80L60,78L59,77L59,76L59,75L59,73L59,71L59,70L57,69L58,68L57,67L57,66L58,60L59,59L59,58L59,57L59,55L58,54L57,53L57,53L58,53L58,52L58,51L57,50L58,49L57,48L57,47L57,46L58,45L58,44L59,43L60,43L60,43L61,43L61,41L62,40L62,39L61,39L59,39L58,39L57,39L56,39L55,39L54,39L53,39L52,39L51,39L50,39L49,39L48,39L46,39L45,39L44,39L43,39L42,39L41,39L40,39L39,39L38,39L37,39L36,39L34,39L33,39L32,39L31,39L30,39L29,39L28,39L27,39L27,41L27,42L28,44L29,45L29,46L29,47L30,49L31,49L31,50L32,51L33,52L32,53L31,54L32,55L31,56L32,57L32,58L33,59L34,60L34,61L35,63L36,64L36,66L35,67L36,68L37,69L39,71L39,72L39,74L38,77L39,78L40,77L39,76L40,77L39,78L40,78L41,79L42,80L42,82L41,83L41,85L41,86L42,86L42,87L42,88L42,90L44,91L45,92L46,93L47,94L48,94L49,95L49,96L50,96L53,98L54,100L56,101L56,102L57,103L57,105L58,106L59,106L60,107L60,108L61,109L62,110L62,111L63,111L64,113L64,113L65,114L65,116L64,117L64,118L64,119L64,120L63,121L63,122L62,123L62,123L65,123L67,123L70,123L73,123L76,124L79,124L81,124L84,124Z M80,106L79,105L79,104L79,101L77,101L76,100L77,99L76,98L75,96L74,96L74,96L74,97L73,98L74,99L74,101L75,101L76,102L77,103L79,106Z M2,100L2,97L1,96L2,95L1,95L0,96L0,97L1,98L1,100L2,101Z " data-fips="MX02" data-hasc="MX.BN" data-name="Baja California" data-postal="BC" data-varname=""/><path d="M123,217L125,216L125,216L126,215L127,214L130,213L130,212L131,211L131,210L132,208L131,207L131,206L130,205L129,204L127,203L127,202L127,201L126,200L125,199L125,198L125,196L123,197L123,195L123,194L121,194L120,192L119,191L118,191L118,192L118,193L117,195L116,195L116,194L117,194L116,194L115,193L114,193L113,191L112,190L112,189L112,188L111,186L112,184L113,183L113,182L113,181L112,180L112,179L111,178L110,177L109,175L109,174L109,173L108,172L108,171L107,169L106,169L105,168L105,167L105,166L104,165L103,163L103,162L104,161L104,160L103,158L103,156L103,155L102,154L102,153L102,152L101,151L101,150L101,148L100,147L99,146L98,146L97,146L97,147L97,148L98,149L99,150L97,151L97,150L96,149L96,148L96,147L96,146L95,145L95,144L94,143L94,142L95,141L93,140L92,140L91,139L91,137L90,137L90,135L90,134L89,133L88,132L87,131L86,131L86,130L85,129L85,128L84,127L84,125L84,124L81,124L79,124L76,124L73,123L70,123L67,123L65,123L62,123L62,123L61,123L61,124L62,124L62,125L62,126L62,127L63,128L64,127L65,127L66,128L65,129L64,129L63,129L62,128L61,128L60,127L60,126L60,125L59,125L58,126L57,126L54,125L53,125L51,124L50,124L48,124L49,125L49,126L50,127L51,127L51,128L52,129L53,130L54,130L55,131L55,132L56,133L56,134L56,136L57,137L58,137L59,138L60,137L61,138L62,139L63,140L64,141L66,141L67,142L67,143L67,144L68,145L69,146L70,145L71,145L72,144L73,145L74,145L75,144L76,143L77,143L77,144L76,144L76,146L77,145L76,146L77,147L77,148L78,149L79,150L80,151L81,152L82,153L83,154L84,154L85,155L87,155L87,156L88,158L89,159L90,160L90,161L91,165L91,168L91,167L92,166L91,168L91,169L91,170L91,174L90,175L90,177L89,178L89,179L90,178L90,177L90,179L90,180L90,181L91,182L91,181L91,182L92,181L92,180L92,181L93,183L93,183L94,184L95,186L96,186L96,185L97,186L97,187L98,188L99,189L100,190L101,191L99,190L103,192L104,193L106,194L107,195L108,196L109,197L109,198L110,199L112,201L113,202L116,204L117,205L118,207L119,208L119,209L120,211L120,213L120,215L121,216L122,217Z M126,194L125,193L125,192L124,191L124,192L125,194L126,194Z M98,189L97,189L98,189L99,189Z M118,189L118,188L117,188L117,189L118,190Z M96,189L95,187L94,186L93,186L91,186L92,187L93,187L94,188L95,189L96,190Z M114,179L113,178L113,177L112,177L112,177L112,178L113,179L114,180L115,181Z M90,184L89,184L89,182L89,181L88,180L89,178L89,177L90,174L90,173L90,174L90,175L89,177L88,180L87,181L88,181L89,182L89,184L90,185L90,185Z M106,163L107,161L108,160L107,160L106,161L106,162L105,163L105,165Z " data-fips="MX03" data-hasc="MX.BS" data-name="Baja California Sur" data-postal="BS" data-varname=""/><path d="M269,190L270,188L270,187L270,185L270,184L270,183L270,182L269,181L270,180L271,180L272,179L273,179L274,179L275,179L276,179L277,179L278,178L278,177L277,177L276,176L275,177L274,176L273,175L272,174L271,173L273,173L272,173L271,172L270,172L270,171L269,170L268,168L269,167L268,166L267,165L267,163L266,163L265,162L265,161L264,160L263,159L264,158L265,157L266,156L267,155L268,154L270,152L270,153L270,154L271,154L272,153L273,151L273,149L273,148L273,147L272,146L271,146L270,147L269,146L269,145L269,144L270,143L271,143L272,142L273,141L274,141L275,140L275,138L275,137L276,136L277,135L278,134L279,134L280,135L281,136L282,136L283,135L283,135L284,134L284,134L283,133L283,132L282,131L282,130L281,129L280,128L280,127L278,126L277,125L277,124L276,123L276,122L275,121L275,120L274,119L273,118L273,116L272,115L271,114L271,113L271,112L270,110L269,109L269,108L267,108L267,107L266,106L265,105L264,104L263,104L262,103L262,102L261,102L260,101L259,100L259,99L258,99L257,99L256,99L252,99L251,99L250,99L248,99L247,98L246,97L245,97L244,98L244,99L241,99L240,100L239,100L239,101L238,102L238,103L237,105L237,106L237,107L236,109L235,110L234,111L233,112L232,113L231,113L230,112L230,112L229,115L227,117L226,120L225,122L224,123L224,124L223,125L223,126L222,127L222,128L221,130L220,131L220,132L220,133L220,135L221,137L222,140L222,143L223,147L224,150L224,151L224,152L225,153L225,155L226,155L227,156L229,157L230,158L230,160L230,162L229,163L229,165L229,167L229,168L229,169L230,170L229,171L228,172L227,173L227,174L227,175L228,176L227,176L226,178L227,178L228,179L228,180L230,181L230,182L230,184L231,185L232,186L234,186L235,186L236,187L237,187L237,185L238,184L238,183L239,182L240,181L240,181L241,181L242,181L244,180L245,180L246,180L248,180L249,180L250,181L251,181L253,182L253,182L254,183L255,184L256,184L257,185L257,186L256,186L257,187L258,187L259,187L260,187L261,186L262,186L263,187L264,187L264,189L265,189L267,190L268,190Z " data-fips="MX07" data-hasc="MX.CA" data-name="Coahuila" data-postal="CO" data-varname=""/><path d="M176,171L177,170L178,169L179,168L179,167L179,166L179,165L180,164L181,164L181,163L182,162L181,160L181,159L181,158L182,158L183,157L184,157L184,156L184,155L185,154L185,153L185,151L187,151L187,150L188,151L189,152L191,153L192,153L193,153L194,154L195,155L195,155L196,156L197,156L198,157L200,156L201,156L202,156L203,157L204,156L205,156L207,157L208,158L210,159L211,159L211,158L212,157L213,156L214,154L215,153L217,152L218,152L219,152L220,152L221,152L222,153L224,153L225,153L224,152L224,151L224,150L223,147L222,143L222,140L221,137L220,135L220,133L220,132L220,131L221,130L222,128L222,127L223,126L223,125L224,124L224,123L225,122L226,120L227,117L229,115L230,112L230,112L230,112L228,112L227,111L226,110L224,109L223,109L223,108L221,108L219,107L218,106L217,105L216,104L215,103L214,103L213,102L212,101L211,100L211,99L210,98L210,96L209,95L209,94L209,93L209,91L208,90L208,89L207,88L207,87L206,86L206,85L205,84L205,83L203,83L202,82L202,81L201,81L199,80L199,79L197,78L196,77L195,76L194,75L193,74L191,72L191,71L190,70L189,70L187,69L187,68L186,67L185,66L185,64L184,64L182,63L181,63L180,63L179,63L178,63L177,63L176,63L175,63L173,63L172,63L171,63L170,63L169,63L168,63L166,63L165,63L164,63L163,63L162,63L161,63L159,62L158,62L157,63L157,64L157,65L157,66L157,67L157,68L157,69L157,70L155,70L154,70L153,70L152,70L150,70L149,70L148,70L147,70L146,70L145,71L145,73L145,74L144,76L144,77L144,78L144,79L145,80L146,80L147,81L147,82L148,82L150,83L150,84L151,85L151,86L151,88L151,89L151,90L151,91L151,93L150,94L150,95L150,96L150,97L150,99L150,100L149,101L149,103L148,104L148,105L148,106L148,108L148,110L148,112L148,113L148,114L149,115L148,117L148,118L148,119L149,120L149,121L149,122L149,123L147,124L146,124L145,123L144,123L143,123L141,123L140,124L140,125L140,126L141,127L141,128L142,130L142,130L143,131L144,132L145,133L145,134L145,135L146,136L147,137L147,138L147,139L147,141L146,142L146,143L147,144L148,145L149,145L149,146L150,145L151,145L152,145L153,146L154,147L155,147L156,148L156,149L157,150L157,151L158,152L159,153L159,154L159,156L159,158L159,160L160,160L161,161L162,161L163,161L164,161L165,162L166,163L166,164L167,165L167,165L168,167L169,167L170,168L171,169L172,170L172,171L173,171L174,171Z " data-fips="MX06" data-hasc="MX.CH" data-name="Chihuahua" data-postal="CH" data-varname=""/><path d="M214,228L214,226L215,225L215,223L215,221L215,220L215,218L215,216L216,215L216,214L216,213L216,211L217,210L218,209L219,209L219,207L220,206L221,207L222,206L221,205L221,204L221,203L220,202L221,201L221,199L222,198L223,198L224,197L224,197L225,195L226,195L227,194L228,194L228,193L229,192L231,192L232,192L233,192L235,193L236,193L238,193L239,193L241,193L242,192L243,192L243,190L243,189L243,188L243,187L243,186L242,185L241,184L240,183L240,181L239,182L238,183L238,184L237,185L237,187L236,187L235,186L234,186L232,186L231,185L230,184L230,182L230,181L228,180L228,179L227,178L226,178L227,176L228,176L227,175L227,174L227,173L228,172L229,171L230,170L229,169L229,168L229,167L229,165L229,163L230,162L230,160L230,158L229,157L227,156L226,155L225,155L224,153L222,153L221,152L220,152L219,152L218,152L217,152L215,153L214,154L213,156L212,157L211,158L211,159L210,159L208,158L207,157L205,156L204,156L203,157L202,156L201,156L200,156L198,157L197,156L196,156L195,155L195,155L194,154L193,153L192,153L191,153L189,152L188,151L187,150L187,151L185,151L185,153L185,154L184,155L184,156L184,157L183,157L182,158L181,158L181,159L181,160L182,162L181,163L181,164L180,164L179,165L179,166L179,167L179,168L178,169L177,170L176,171L174,171L173,171L172,171L172,171L171,172L171,173L170,174L170,175L169,177L169,178L170,180L170,181L170,182L171,184L172,184L172,185L173,186L174,187L175,188L176,189L176,190L177,191L177,192L177,193L178,194L179,194L180,194L181,193L182,193L184,193L185,194L185,194L186,195L186,196L187,198L188,199L189,199L188,200L188,201L188,203L188,204L188,205L189,206L189,207L190,208L191,209L191,210L191,211L191,212L192,213L193,214L193,215L195,215L196,215L196,216L196,217L197,217L198,217L200,217L202,218L203,219L204,220L204,221L203,222L202,223L202,225L202,226L203,225L204,224L205,224L207,224L208,225L208,226L208,227L209,227L210,228L212,227L213,227L213,228L213,230Z " data-fips="MX10" data-hasc="MX.DU" data-name="Durango" data-postal="DG" data-varname=""/><path d="M192,225L193,226L194,226L195,226L195,224L194,223L194,223L193,222L193,221L194,220L195,219L195,218L195,217L196,217L196,216L196,215L195,215L193,215L193,214L192,213L191,212L191,211L191,210L191,209L190,208L189,207L189,206L188,205L188,204L188,203L188,201L188,200L189,199L188,199L187,198L186,196L186,195L185,194L185,194L184,193L182,193L181,193L180,194L179,194L178,194L177,193L177,192L177,191L176,190L176,189L175,188L174,187L173,186L172,185L172,184L171,184L170,182L170,181L170,180L169,178L169,177L170,175L170,174L171,173L171,172L172,171L172,171L172,170L171,169L170,168L169,167L168,167L167,165L167,165L166,164L166,163L165,162L164,161L163,161L162,161L161,161L160,160L159,160L159,158L159,156L159,154L159,153L158,152L157,151L157,150L156,149L156,148L155,147L154,147L153,146L152,145L151,145L150,145L149,146L149,147L149,148L149,149L148,150L147,151L146,151L145,152L144,153L142,154L140,155L138,157L139,158L139,159L138,157L138,158L137,158L137,158L137,158L136,160L136,159L136,159L136,159L135,160L134,161L133,163L133,164L133,165L133,166L134,167L134,168L135,167L135,168L135,169L134,169L136,169L137,170L136,169L137,169L138,170L139,170L140,169L141,169L142,168L143,167L142,168L141,169L140,170L139,170L138,171L139,172L141,172L142,172L141,171L143,171L143,171L144,173L144,174L145,174L146,175L144,174L146,175L147,175L149,177L149,178L150,177L150,178L151,178L152,178L153,179L154,179L155,181L154,181L153,180L153,182L152,181L151,180L151,181L153,184L154,184L155,182L155,181L155,182L155,183L155,184L155,185L154,185L155,186L155,187L156,189L158,190L157,189L157,188L158,188L159,190L160,190L161,191L161,190L162,190L163,192L162,193L160,191L158,190L162,193L164,194L165,195L166,196L168,198L169,199L170,200L172,203L173,204L173,205L174,206L175,207L176,208L176,209L178,210L179,212L179,213L180,214L182,216L183,216L186,221L187,221L188,222L190,225L190,226L191,226Z M142,173L141,173L140,173L141,173L143,173Z " data-fips="MX25" data-hasc="MX.SI" data-name="Sinaloa" data-postal="SI" data-varname=""/><path d="M136,159L136,159L136,158L136,159Z M137,158L138,158L138,157L138,157L137,157L137,158Z M140,155L142,154L144,153L145,152L146,151L147,151L148,150L149,149L149,148L149,147L149,146L149,145L148,145L147,144L146,143L146,142L147,141L147,139L147,138L147,137L146,136L145,135L145,134L145,133L144,132L143,131L142,130L142,130L141,128L141,127L140,126L140,125L140,124L141,123L143,123L144,123L145,123L146,124L147,124L149,123L149,122L149,121L149,120L148,119L148,118L148,117L149,115L148,114L148,113L148,112L148,110L148,108L148,106L148,105L148,104L149,103L149,101L150,100L150,99L150,97L150,96L150,95L150,94L151,93L151,91L151,90L151,89L151,88L151,86L151,85L150,84L150,83L148,82L147,82L147,81L146,80L145,80L144,79L144,78L144,77L144,76L145,74L145,73L145,71L146,70L145,70L143,70L142,70L141,70L140,69L138,69L137,69L136,69L134,69L133,69L132,69L131,69L129,69L128,69L127,69L125,69L124,69L123,69L122,68L120,68L119,68L118,68L117,68L115,68L114,68L112,67L111,66L109,66L108,65L102,62L96,60L90,57L84,54L78,52L73,49L67,46L60,43L60,43L60,43L59,43L58,44L58,45L57,46L57,47L57,48L58,49L57,50L58,51L58,52L58,53L58,54L59,55L60,55L61,56L63,56L65,59L66,60L67,60L68,61L69,62L70,62L71,61L72,60L73,60L74,61L76,63L76,65L79,66L82,66L82,67L84,67L84,68L84,70L84,71L83,70L83,72L83,73L83,75L84,78L85,81L86,82L86,83L86,84L87,85L87,86L87,88L87,90L88,91L88,92L89,93L89,95L90,95L91,97L91,98L92,99L91,100L91,101L92,102L94,102L94,103L94,105L95,106L94,107L95,108L95,108L96,109L97,110L98,111L99,112L98,112L98,113L100,116L101,117L102,118L104,119L105,119L105,120L105,121L106,122L107,124L107,124L108,126L109,127L110,127L111,127L112,128L113,129L113,128L114,127L114,128L115,128L116,128L117,129L118,129L117,130L117,131L117,132L116,133L117,135L117,137L118,138L119,138L119,139L120,140L120,141L122,142L123,142L124,142L125,143L126,143L127,144L127,146L126,145L127,146L127,148L128,149L129,150L130,151L131,150L133,150L132,150L133,150L133,151L135,151L136,153L137,154L137,155L137,157L138,156L138,157Z M93,111L93,110L94,108L94,106L93,105L93,104L93,103L91,104L90,104L90,105L89,107L90,108L89,108L89,110L90,110L91,111L92,112Z M61,56L60,55L60,57L61,57Z " data-fips="MX26" data-hasc="MX.SO" data-name="Sonora" data-postal="SO" data-varname=""/><path d="M234,252L233,250L233,249L234,248L235,248L236,248L237,247L238,248L239,246L240,246L240,244L240,243L239,243L238,242L238,241L237,239L237,238L237,237L237,236L238,235L239,234L240,233L240,231L240,230L241,230L243,230L243,229L244,229L245,228L246,228L247,229L248,229L249,230L250,230L251,231L251,232L251,234L252,234L253,235L254,236L256,236L257,237L257,237L259,237L260,236L260,235L261,235L262,234L261,232L261,231L261,230L261,229L261,228L262,228L262,226L261,225L260,225L259,225L258,225L257,226L257,227L255,227L254,227L253,227L252,226L251,224L250,224L249,223L248,221L247,220L247,219L246,218L247,217L247,215L246,214L246,213L247,213L247,211L248,211L249,212L250,212L251,211L252,210L252,209L253,208L255,207L255,206L256,205L257,205L259,204L260,203L261,201L262,201L263,200L264,198L265,197L265,196L266,194L267,193L268,192L269,192L268,190L267,190L265,189L264,189L264,187L263,187L262,186L261,186L260,187L259,187L258,187L257,187L256,186L257,186L257,185L256,184L255,184L254,183L253,182L253,182L251,181L250,181L249,180L248,180L246,180L245,180L244,180L242,181L241,181L240,181L240,181L240,183L241,184L242,185L243,186L243,187L243,188L243,189L243,190L243,192L242,192L241,193L239,193L238,193L236,193L235,193L233,192L232,192L231,192L229,192L228,193L228,194L227,194L226,195L225,195L224,197L224,197L223,198L222,198L221,199L221,201L220,202L221,203L221,204L221,205L222,206L221,207L220,206L219,207L219,209L218,209L217,210L216,211L216,213L216,214L216,215L215,216L215,218L215,220L215,221L215,223L215,225L214,226L214,228L213,230L213,231L213,230L215,230L216,229L218,229L219,229L219,228L219,226L218,226L218,224L218,223L219,222L221,222L222,223L222,224L221,225L221,226L220,227L220,228L220,230L220,231L221,232L221,230L222,228L222,226L223,225L224,225L224,226L224,227L224,229L223,230L224,231L223,232L224,233L225,233L226,233L227,232L227,231L228,230L228,229L227,228L228,227L229,227L230,228L231,229L232,230L233,230L234,231L233,232L232,232L233,233L232,234L232,235L231,236L230,236L228,236L228,237L227,238L226,239L226,240L226,241L226,243L225,243L224,244L223,244L223,246L223,247L222,248L223,249L224,249L225,250L226,249L227,250L228,250L229,251L230,251L231,252L233,252Z " data-fips="MX32" data-hasc="MX.ZA" data-name="Zacatecas" data-postal="ZA" data-varname=""/><path d="M277,213L279,213L280,213L281,213L282,213L282,212L281,211L282,211L283,211L284,210L284,209L284,208L284,206L285,205L286,204L287,204L288,204L289,204L290,203L290,202L291,201L291,200L290,199L289,199L289,198L289,196L289,195L289,193L289,192L288,191L287,191L286,190L287,189L288,189L289,189L290,188L290,187L291,186L292,186L293,185L294,186L296,186L295,185L295,184L296,183L295,182L296,181L297,181L297,180L298,181L299,181L300,180L301,179L302,179L303,178L304,177L305,176L307,174L306,174L305,174L305,172L305,171L305,169L305,167L305,166L304,165L303,164L302,164L301,164L300,164L299,165L298,164L297,163L296,163L295,163L295,162L295,161L295,160L293,160L293,159L292,158L291,158L291,157L291,156L291,155L291,154L290,153L289,153L288,152L288,151L288,150L287,150L286,149L286,149L286,148L286,146L286,144L286,143L286,142L285,141L285,140L284,139L283,139L283,137L284,136L286,136L285,135L284,134L283,135L283,135L282,136L281,136L280,135L279,134L278,134L277,135L276,136L275,137L275,138L275,140L274,141L273,141L272,142L271,143L270,143L269,144L269,145L269,146L270,147L271,146L272,146L273,147L273,148L273,149L273,151L272,153L271,154L270,154L270,153L270,152L268,154L267,155L266,156L265,157L264,158L263,159L264,160L265,161L265,162L266,163L267,163L267,165L268,166L269,167L268,168L269,170L270,171L270,172L271,172L272,173L273,173L271,173L272,174L273,175L274,176L275,177L276,176L277,177L278,177L278,178L277,179L276,179L275,179L274,179L273,179L272,179L271,180L270,180L269,181L270,182L270,183L270,184L270,185L270,187L270,188L269,190L270,191L271,193L272,194L273,195L273,196L273,198L273,200L273,201L274,203L275,204L275,205L275,206L275,207L275,209L275,210L275,211L275,212L275,213L276,214L277,214Z " data-fips="MX19" data-hasc="MX.NL" data-name="Nuevo Leon" data-postal="NL" data-varname=""/><path d="M304,248L306,249L306,248L306,247L307,245L307,245L307,244L307,243L306,242L306,241L306,240L307,239L308,239L308,238L307,237L306,236L307,235L306,235L307,235L308,235L309,234L309,232L310,231L309,230L309,229L308,229L306,228L305,227L305,227L304,227L303,228L302,228L301,228L300,228L298,228L297,227L296,227L295,226L294,225L294,224L293,223L292,223L290,223L290,224L289,224L288,223L286,223L284,222L283,221L283,221L282,219L284,219L284,218L284,217L283,216L282,215L281,215L282,214L281,213L280,213L279,213L277,213L277,214L276,214L275,213L275,212L275,211L275,210L275,209L275,207L275,206L275,205L275,204L274,203L273,201L273,200L273,198L273,196L273,195L272,194L271,193L270,191L269,192L268,192L267,193L266,194L265,196L265,197L264,198L263,200L262,201L261,201L260,203L259,204L257,205L256,205L255,206L255,207L253,208L252,209L252,210L251,211L250,212L249,212L248,211L247,211L247,213L246,213L246,214L247,215L247,217L246,218L247,219L247,220L248,221L249,223L250,224L251,224L252,226L253,227L254,227L255,227L257,227L257,226L258,225L259,225L260,225L261,225L262,226L262,228L261,228L261,229L261,230L261,231L261,232L262,234L261,235L260,235L260,236L259,237L260,238L261,238L262,238L262,239L263,240L264,240L265,239L266,239L268,240L268,240L269,241L271,242L272,243L273,244L274,244L275,244L275,243L276,242L276,241L277,241L279,242L280,242L281,242L282,243L283,244L285,245L286,245L287,245L288,243L289,244L289,245L290,246L291,245L292,245L293,245L294,244L295,243L295,242L296,241L297,243L297,244L298,245L298,246L298,247L300,247L301,247L301,248L302,249L303,249Z " data-fips="MX24" data-hasc="MX.SL" data-name="San Luis Potosi" data-postal="SL" data-varname=""/><path d="M319,229L318,228L318,227L318,225L318,222L317,223L318,222L318,221L318,220L319,218L319,219L319,217L319,212L319,209L319,207L319,204L319,205L318,203L317,203L319,202L319,199L319,198L320,190L322,178L324,175L325,173L326,171L326,170L327,169L327,168L327,167L327,164L326,164L325,165L324,166L323,166L322,166L321,165L320,165L319,164L318,163L316,163L315,163L314,163L313,163L312,163L311,163L310,163L309,162L308,162L307,161L306,161L305,160L304,160L303,160L302,159L301,159L301,158L299,158L298,158L297,158L296,158L296,156L296,155L295,155L294,154L294,152L293,150L293,149L292,149L291,148L291,147L290,146L290,145L290,143L289,142L289,141L290,140L289,138L289,137L288,136L287,136L286,136L286,136L284,136L283,137L283,139L284,139L285,140L285,141L286,142L286,143L286,144L286,146L286,148L286,149L286,149L287,150L288,150L288,151L288,152L289,153L290,153L291,154L291,155L291,156L291,157L291,158L292,158L293,159L293,160L295,160L295,161L295,162L295,163L296,163L297,163L298,164L299,165L300,164L301,164L302,164L303,164L304,165L305,166L305,167L305,169L305,171L305,172L305,174L306,174L307,174L305,176L304,177L303,178L302,179L301,179L300,180L299,181L298,181L297,180L297,181L296,181L295,182L296,183L295,184L295,185L296,186L294,186L293,185L292,186L291,186L290,187L290,188L289,189L288,189L287,189L286,190L287,191L288,191L289,192L289,193L289,195L289,196L289,198L289,199L290,199L291,200L291,201L290,202L290,203L289,204L288,204L287,204L286,204L285,205L284,206L284,208L284,209L284,210L283,211L282,211L281,211L282,212L282,213L282,214L281,215L282,215L283,216L284,217L284,218L284,219L282,219L283,221L283,221L284,222L286,223L288,223L289,224L290,224L290,223L292,223L293,223L294,224L294,225L295,226L296,227L297,227L298,228L300,228L301,228L302,228L303,228L304,227L305,227L305,227L306,227L307,227L308,227L309,227L311,227L311,226L312,226L313,227L314,228L315,228L316,228L317,229L317,230L318,230Z " data-fips="MX28" data-hasc="MX.TM" data-name="Tamaulipas" data-postal="TM" data-varname=""/><path d="M247,241L248,240L249,240L250,239L250,238L251,237L252,236L252,234L251,234L251,232L251,231L250,230L249,230L248,229L247,229L246,228L245,228L244,229L243,229L243,230L241,230L240,230L240,231L240,233L239,234L238,235L237,236L237,237L237,238L237,239L239,239L240,239L242,240L243,241L244,241L246,241Z " data-fips="MX01" data-hasc="MX.AG" data-name="Aguascalientes" data-postal="AG" data-varname=""/><path d="M103,289L102,288L102,286L101,287L100,288L102,289L103,289Z M222,293L223,292L223,292L224,291L225,290L225,289L226,289L226,288L226,287L226,286L226,284L226,283L225,282L225,281L224,280L223,279L222,280L221,280L220,281L219,281L219,280L217,279L216,279L216,280L215,281L215,281L214,282L213,283L212,283L210,283L209,283L209,284L208,285L210,286L211,286L212,286L213,288L214,288L214,289L216,289L218,290L222,293Z " data-fips="MX08" data-hasc="MX.CL" data-name="Colima" data-postal="CL" data-varname=""/><path d="M227,288L228,288L229,288L230,287L231,288L232,288L233,287L234,287L235,286L236,285L237,284L238,284L239,284L240,284L241,283L241,282L241,281L241,280L240,280L238,280L238,279L239,278L238,276L237,276L237,274L238,273L239,273L238,272L238,271L237,271L236,271L235,271L234,271L233,270L233,269L234,268L235,268L237,268L238,267L239,267L240,267L241,266L243,265L244,264L246,264L247,265L248,264L249,264L249,263L250,262L251,261L251,259L250,258L249,258L249,257L250,255L250,254L251,253L252,252L253,250L254,250L255,249L256,249L257,248L257,247L258,246L257,245L257,244L257,243L258,242L258,240L257,239L257,237L257,237L256,236L254,236L253,235L252,236L251,237L250,238L250,239L249,240L248,240L247,241L246,241L244,241L243,241L242,240L240,239L239,239L238,241L238,242L239,243L240,243L240,244L240,246L239,246L238,248L237,247L236,248L235,248L234,248L233,249L233,250L234,252L233,252L231,252L230,251L229,251L228,250L227,250L226,249L225,250L224,249L223,249L222,248L223,247L223,246L223,244L224,244L225,243L226,243L226,241L226,240L226,239L227,238L228,237L228,236L230,236L231,236L232,235L232,234L233,233L232,232L233,232L234,231L233,230L232,230L231,229L230,228L229,227L228,227L227,228L228,229L228,230L227,231L227,232L226,233L225,233L224,233L223,232L224,231L223,230L224,229L224,227L224,226L224,225L223,225L222,226L222,228L221,230L221,232L220,231L220,230L220,228L220,227L221,226L221,225L222,224L222,223L221,222L219,222L218,223L218,224L218,226L219,226L219,228L219,229L218,229L216,229L215,230L213,230L213,231L213,231L212,232L212,233L212,234L213,236L215,237L216,238L216,239L216,241L216,242L215,243L215,244L216,244L217,245L218,246L219,247L218,248L217,249L215,249L214,250L215,251L215,253L214,254L214,255L213,256L213,257L212,257L212,257L211,256L210,255L209,254L208,254L207,253L206,253L205,252L204,253L203,254L202,254L201,254L199,254L199,256L198,257L197,258L198,259L197,260L196,260L196,261L194,261L192,261L190,262L190,264L191,265L192,266L192,266L192,268L193,269L194,272L195,273L195,273L196,275L197,276L198,277L199,277L200,279L201,280L201,281L202,282L203,283L204,283L204,284L206,284L207,285L208,285L209,284L209,283L210,283L212,283L213,283L214,282L215,281L215,281L216,280L216,279L217,279L219,280L219,281L220,281L221,280L222,280L223,279L224,280L225,281L225,282L226,283L226,284L226,286L226,287L226,288L226,289Z " data-fips="MX14" data-hasc="MX.JA" data-name="Jalisco" data-postal="JA" data-varname=""/><path d="M248,306L248,305L248,304L248,303L249,302L250,302L251,302L252,302L252,301L253,300L253,299L253,297L253,296L253,295L255,295L256,295L257,296L258,297L259,297L260,297L262,296L263,296L267,296L268,297L269,297L271,297L272,298L273,298L272,299L273,300L274,299L274,298L273,297L272,297L272,296L272,295L271,293L271,292L271,291L272,290L273,291L274,290L274,289L275,289L276,287L276,287L277,286L278,285L278,284L279,283L278,282L279,282L281,281L281,280L281,279L280,278L280,277L281,276L281,275L281,274L281,272L282,271L281,271L281,270L281,269L280,268L278,267L277,268L277,269L277,270L277,271L276,271L275,272L274,271L273,271L272,271L271,272L270,271L269,272L267,271L267,270L267,269L266,269L265,269L264,269L263,270L262,270L261,269L260,269L260,268L260,267L261,266L260,265L259,265L258,265L257,265L257,266L256,267L255,267L254,267L252,267L252,266L251,264L250,264L251,263L249,264L248,264L247,265L246,264L244,264L243,265L241,266L240,267L239,267L238,267L237,268L235,268L234,268L233,269L233,270L234,271L235,271L236,271L237,271L238,271L238,272L239,273L238,273L237,274L237,276L238,276L239,278L238,279L238,280L240,280L241,280L241,281L241,282L241,283L240,284L239,284L238,284L237,284L236,285L235,286L234,287L233,287L232,288L231,288L230,287L229,288L228,288L227,288L226,289L225,289L225,290L224,291L223,292L223,292L222,293L222,293L222,294L223,295L224,296L225,297L226,299L227,300L228,301L229,301L230,301L232,302L233,302L235,302L236,303L239,304L242,305L244,306L247,306L248,307Z " data-fips="MX16" data-hasc="MX.MC" data-name="Michoacan" data-postal="MI" data-varname=""/><path d="M198,257L199,256L199,254L201,254L202,254L203,254L204,253L205,252L206,253L207,253L208,254L209,254L210,255L211,256L212,257L212,257L213,257L213,256L214,255L214,254L215,253L215,251L214,250L215,249L217,249L218,248L219,247L218,246L217,245L216,244L215,244L215,243L216,242L216,241L216,239L216,238L215,237L213,236L212,234L212,233L212,232L213,231L213,231L213,230L213,228L213,227L212,227L210,228L209,227L208,227L208,226L208,225L207,224L205,224L204,224L203,225L202,226L202,225L202,223L203,222L204,221L204,220L203,219L202,218L200,217L198,217L197,217L196,217L195,217L195,218L195,219L194,220L193,221L193,222L194,223L194,223L195,224L195,226L194,226L193,226L192,225L191,226L190,226L190,227L191,228L192,230L191,236L193,237L194,241L195,242L197,243L197,243L198,244L198,245L198,246L198,248L198,250L198,251L197,252L196,253L195,253L194,254L194,255L193,256L195,257L196,257L197,258Z M182,247L181,246L181,246L182,248Z M179,244L180,243L179,243L179,243L177,243L178,245Z M177,242L177,241L176,240L175,240L175,241L176,242L177,243Z " data-fips="MX18" data-hasc="MX.NA" data-name="Nayarit" data-postal="NA" data-varname=""/><path d="M434,301L435,301L439,301L443,301L446,300L450,300L454,300L457,299L461,299L465,299L465,296L465,295L466,293L466,292L466,291L466,289L466,287L465,286L464,284L464,283L465,280L464,279L465,278L465,276L465,275L465,274L465,273L463,271L461,269L460,269L459,268L458,267L457,266L457,265L456,264L455,263L454,261L453,260L452,260L451,259L450,258L450,257L448,256L448,254L446,254L446,255L444,254L444,253L443,253L441,253L441,253L440,248L440,248L439,250L439,251L439,254L440,256L439,257L439,259L440,261L440,262L440,263L440,264L438,265L437,266L437,268L437,269L437,270L437,274L436,275L435,276L434,278L432,279L431,279L430,280L426,283L425,285L426,284L426,283L427,283L429,282L428,282L427,283L426,284L427,285L428,285L429,286L428,287L430,287L429,287L428,288L427,289L426,289L425,289L425,291L426,291L424,291L423,291L422,291L420,291L420,292L419,292L420,291L419,290L418,289L417,289L418,290L417,290L416,289L417,289L418,289L419,288L418,288L416,287L414,287L412,288L410,288L409,288L409,289L410,290L410,291L411,292L412,292L414,291L414,292L415,294L415,295L415,297L416,297L417,298L418,299L419,299L420,300L421,300L423,300L424,299L424,298L424,297L426,297L427,297L428,297L429,298L430,298L432,298L433,299L434,299L434,300L434,302Z M421,287L422,287L423,286L424,285L424,285L423,285L422,286L421,287L420,288Z " data-fips="MX04" data-hasc="MX.CM" data-name="Campeche" data-postal="CM" data-varname=""/><path d="M345,344L346,344L348,344L349,344L351,343L352,342L353,341L355,340L356,340L357,339L358,339L362,338L363,337L364,336L365,335L366,335L367,334L368,334L370,334L371,333L372,333L371,333L368,333L368,332L369,331L370,330L371,330L372,331L372,332L372,333L373,332L374,331L375,331L376,331L375,333L374,334L375,334L377,334L378,334L380,334L385,336L384,335L384,335L382,334L381,334L380,334L381,334L380,334L379,333L379,332L380,333L382,333L384,333L384,334L384,334L385,333L385,332L385,331L384,330L384,329L383,328L384,326L385,325L385,324L384,322L385,322L386,321L387,320L387,319L387,318L384,316L382,316L379,316L376,316L375,316L374,316L373,316L371,316L370,316L369,316L368,315L368,314L367,313L366,312L365,312L364,310L364,309L364,308L364,307L363,308L362,308L361,309L360,309L359,310L359,311L358,311L357,311L356,312L355,311L354,310L353,308L353,307L353,306L353,305L354,304L354,302L354,301L353,301L352,300L351,300L350,300L349,301L348,300L347,300L347,299L346,298L345,297L344,296L344,294L343,294L342,293L341,293L339,292L340,293L340,294L340,295L338,297L338,298L337,299L336,299L335,300L335,301L334,302L333,302L332,301L331,301L330,301L329,301L328,303L327,304L326,304L325,303L325,302L324,302L323,301L324,299L323,298L322,299L321,300L321,301L321,302L321,303L322,304L321,305L321,305L320,306L319,305L319,304L318,304L317,304L316,304L315,304L314,306L313,306L312,306L312,307L312,308L312,309L311,310L312,312L311,313L312,313L312,314L312,315L313,317L314,317L314,318L316,318L316,319L317,320L318,321L318,323L317,323L317,324L317,326L316,327L315,327L314,327L314,328L314,329L313,329L312,330L313,331L313,332L311,333L310,333L309,334L310,334L311,335L313,335L315,336L316,336L317,336L316,336L317,336L319,338L321,338L321,339L322,340L323,340L325,340L332,340L333,341L339,343L341,344L343,344Z " data-fips="MX20" data-hasc="MX.OA" data-name="Oaxaca" data-postal="OA" data-varname=""/><path d="M313,306L314,306L315,304L316,304L317,304L318,304L319,304L319,305L320,306L321,305L321,305L322,304L321,303L321,302L321,301L321,300L322,299L323,298L324,299L323,301L324,302L325,302L325,303L326,304L327,304L328,303L329,301L330,301L331,301L332,301L333,302L334,302L335,301L335,300L336,299L337,299L338,298L338,297L338,296L337,295L337,294L335,294L334,295L333,295L332,295L332,294L332,293L331,292L330,292L329,292L328,291L329,290L329,289L330,288L330,287L329,286L329,285L329,284L330,283L331,283L333,283L333,282L333,281L332,281L331,281L330,280L329,279L328,279L327,279L328,278L327,277L327,276L327,275L328,273L328,272L328,270L329,270L330,269L330,268L331,267L330,266L328,265L327,265L326,264L325,265L325,266L324,267L323,266L322,266L321,265L320,265L320,264L320,263L321,262L322,261L323,262L324,260L323,259L322,259L321,259L321,258L320,257L320,256L320,255L318,255L318,256L317,257L317,258L317,259L317,260L316,261L315,262L314,263L313,264L312,264L312,265L313,266L314,266L315,267L315,268L314,269L314,270L313,271L313,272L314,274L314,275L315,275L316,274L316,276L317,276L318,277L319,277L319,278L319,279L321,279L321,279L322,280L323,281L322,282L321,282L320,282L319,282L319,284L318,284L317,284L316,283L316,284L314,285L313,285L313,284L312,283L311,283L311,282L310,281L309,280L309,279L307,279L306,279L306,280L306,281L306,282L306,284L306,285L306,286L306,287L306,288L306,289L306,290L305,291L306,292L306,293L305,293L305,294L305,295L306,296L305,297L305,296L303,296L303,297L302,297L301,298L300,299L300,299L300,300L301,301L302,301L302,302L304,303L304,304L306,305L307,305L308,305L309,305L310,305L311,306L312,306Z " data-fips="MX21" data-hasc="MX.PU" data-name="Puebla" data-postal="PU" data-varname=""/><path d="M392,311L392,310L393,309L393,308L394,307L394,306L395,305L395,304L395,303L396,301L397,301L398,301L398,301L399,302L400,302L401,302L401,304L401,305L401,306L401,308L402,309L403,309L404,310L404,311L405,311L407,311L407,310L408,309L409,308L410,307L411,306L412,305L413,304L414,304L415,303L416,303L417,302L418,301L419,301L420,301L421,301L421,302L422,304L423,304L423,305L424,306L424,307L425,308L426,308L427,309L428,310L428,311L428,312L428,312L435,311L434,302L434,300L434,299L433,299L432,298L430,298L429,298L428,297L427,297L426,297L424,297L424,298L424,299L423,300L421,300L420,300L419,299L418,299L417,298L416,297L415,297L415,295L415,294L414,292L414,291L412,292L411,292L410,291L410,290L409,289L409,288L408,288L407,289L405,290L406,291L406,292L405,290L404,291L403,292L401,292L398,293L399,294L398,295L397,294L398,293L395,293L393,293L390,294L387,295L387,296L388,295L389,295L390,294L391,294L391,295L389,295L388,296L387,297L386,296L384,297L382,298L382,298L382,299L383,300L383,301L383,302L383,303L384,304L385,304L385,306L386,306L387,306L388,307L389,308L390,308L391,309L391,310L391,311L392,312Z " data-fips="MX32" data-hasc="MX.TB" data-name="Tabasco" data-postal="TB" data-varname=""/><path d="M314,285L316,284L316,283L317,284L318,284L319,284L319,282L320,282L321,282L322,282L323,281L322,280L321,279L321,279L319,279L319,278L319,277L318,277L317,276L316,276L316,274L315,275L314,275L314,275L312,274L312,275L311,276L310,276L309,276L308,276L307,276L305,277L306,278L307,279L309,279L309,280L310,281L311,282L311,283L312,283L313,284L313,285Z " data-fips="MX29" data-hasc="MX.TL" data-name="Tlaxcala" data-postal="TL" data-varname=""/><path d="M301,285L301,284L301,283L301,282L300,281L299,280L299,279L299,278L298,278L298,279L297,280L296,281L295,281L295,283L295,284L296,285L297,285L298,286L299,286L300,286Z " data-fips="MX09" data-hasc="MX.DF" data-name="Distrito Federal" data-postal="DF" data-varname=""/><path d="M276,271L277,271L277,270L277,269L277,268L278,267L278,266L277,265L277,264L276,263L276,262L275,261L275,260L274,259L274,257L275,256L275,255L275,254L276,253L277,254L278,254L279,254L280,254L281,255L282,254L282,253L282,252L282,250L283,249L284,249L285,250L287,250L287,249L288,248L287,247L287,246L286,245L285,245L283,244L282,243L281,242L280,242L279,242L277,241L276,241L276,242L275,243L275,244L274,244L273,244L272,243L271,242L269,241L268,240L268,240L266,239L265,239L264,240L263,240L262,239L262,238L261,238L260,238L257,239L258,240L258,242L257,243L257,244L257,245L258,246L257,247L257,248L256,249L255,249L254,250L253,250L252,252L251,253L250,254L250,255L249,257L249,258L250,258L251,259L251,261L250,262L249,263L249,264L251,263L250,264L251,264L252,266L252,267L254,267L255,267L256,267L257,266L257,265L258,265L259,265L260,265L261,266L260,267L260,268L260,269L261,269L262,270L263,270L264,269L265,269L266,269L267,269L267,270L267,271L269,272L270,271L271,272L272,271L273,271L274,271L275,272Z " data-fips="MX11" data-hasc="MX.GJ" data-name="Guanajuato" data-postal="GJ" data-varname=""/><path d="M310,333L311,333L313,332L313,331L312,330L313,329L314,329L314,328L314,327L315,327L316,327L317,326L317,324L317,323L318,323L318,321L317,320L316,319L316,318L314,318L314,317L313,317L312,315L312,314L312,313L311,313L312,312L311,310L312,309L312,308L312,307L312,306L311,306L310,305L309,305L308,305L307,305L306,305L304,304L304,303L302,302L302,301L301,301L300,300L300,299L300,299L299,298L299,297L298,296L297,295L297,296L296,297L295,297L294,296L294,295L293,294L291,293L291,292L290,292L289,292L288,293L287,294L286,294L285,294L284,294L283,294L282,295L282,296L281,297L280,298L279,298L278,298L278,297L278,296L277,295L277,293L277,292L277,291L276,290L275,290L274,290L273,291L272,290L271,291L271,292L271,293L272,295L272,296L272,297L273,297L274,298L274,299L273,300L272,299L273,298L272,298L271,297L269,297L268,297L267,296L263,296L262,296L260,297L259,297L258,297L257,296L256,295L255,295L253,295L253,296L253,297L253,299L253,300L252,301L252,302L251,302L250,302L249,302L248,303L248,304L248,305L248,306L248,307L249,306L250,306L252,306L253,307L254,308L255,309L256,310L257,311L258,312L259,312L260,314L261,314L263,315L265,316L266,317L267,318L268,318L270,319L272,320L273,320L275,321L279,322L282,324L283,324L284,324L286,325L287,325L287,326L288,327L289,327L291,328L292,328L296,328L297,329L299,329L302,330L304,330L304,330L306,330L307,332L309,334Z " data-fips="MX12" data-hasc="MX.GR" data-name="Guerrero" data-postal="GR" data-varname=""/><path d="M312,275L312,274L314,275L314,275L314,274L313,272L313,271L314,270L314,269L315,268L315,267L314,266L313,266L312,265L312,264L313,264L314,263L315,262L316,261L316,260L316,259L316,258L315,257L314,258L313,259L312,260L312,261L311,262L310,262L309,263L308,263L307,262L307,261L308,260L308,259L309,258L309,256L308,256L309,256L309,255L310,254L311,255L312,254L312,253L313,252L314,251L313,250L313,249L311,249L311,248L310,249L309,249L308,248L308,247L308,246L307,245L307,245L306,247L306,248L306,249L304,248L303,249L302,249L301,248L301,247L300,247L299,248L298,249L297,249L296,250L294,250L294,251L294,252L293,253L293,254L292,255L292,256L291,257L291,259L291,259L290,260L289,260L288,261L286,261L286,262L286,263L286,265L286,265L287,265L288,266L289,267L290,267L291,268L292,269L292,270L292,271L292,271L293,272L294,273L294,274L295,273L296,273L297,272L297,271L298,270L299,270L300,269L301,270L301,271L301,272L301,273L302,273L303,272L304,272L305,272L306,273L307,274L307,275L306,276L307,276L308,276L309,276L310,276L311,276Z " data-fips="MX13" data-hasc="MX.HI" data-name="Hidalgo" data-postal="HG" data-varname=""/><path d="M280,298L281,297L282,296L282,295L283,294L284,294L285,294L286,294L287,294L288,293L289,292L290,292L291,292L291,293L292,293L293,292L293,291L294,290L294,289L295,289L295,288L295,287L295,286L296,285L295,284L295,283L295,281L296,281L297,280L298,279L298,278L299,278L299,279L299,280L300,281L301,282L301,283L301,284L301,285L301,286L302,286L303,287L304,288L305,288L306,287L306,287L306,286L306,285L306,284L306,282L306,281L306,280L306,279L306,278L305,277L306,276L307,275L307,274L306,273L305,272L304,272L303,272L302,273L301,273L301,272L301,271L301,270L300,269L299,270L298,270L297,271L297,272L296,273L295,273L294,274L294,273L293,272L292,271L292,271L292,270L292,269L291,268L290,267L289,267L288,266L287,265L286,265L286,265L286,265L285,266L285,267L284,267L284,268L283,269L282,270L282,271L281,272L281,274L281,275L281,276L280,277L280,278L281,279L281,280L281,281L279,282L278,282L279,283L278,284L278,285L277,286L276,287L276,287L275,289L274,289L274,290L275,290L276,290L277,291L277,292L277,293L277,295L278,296L278,297L278,298L279,298Z " data-fips="MX15" data-hasc="MX.MX" data-name="Mexico" data-postal="MX" data-varname=""/><path d="M301,298L302,297L303,297L303,296L305,296L305,297L306,296L305,295L305,294L305,293L306,293L306,292L305,291L306,290L306,289L306,288L306,287L306,287L305,288L304,288L303,287L302,286L301,286L300,286L299,286L298,286L297,285L296,285L295,286L295,287L295,288L295,289L294,289L294,290L293,291L293,292L292,293L293,294L294,295L294,296L295,297L296,297L297,296L297,295L298,296L299,297L299,298L300,299Z " data-fips="MX17" data-hasc="MX.MR" data-name="Morelos" data-postal="MO" data-varname=""/><path d="M282,270L283,269L284,268L284,267L285,267L285,266L286,265L286,265L286,263L286,262L286,261L288,261L289,260L290,260L291,259L291,259L291,257L292,256L292,255L293,254L293,253L294,252L294,251L294,250L296,250L297,249L298,249L299,248L298,247L298,246L298,245L297,244L297,243L296,241L295,242L295,243L294,244L293,245L292,245L291,245L290,246L289,245L289,244L288,243L287,245L287,246L287,247L288,248L287,249L287,250L285,250L284,249L283,249L282,250L282,252L282,253L282,254L281,255L280,254L279,254L278,254L277,254L276,253L275,254L275,255L275,256L274,257L274,259L275,260L275,261L276,262L276,263L277,264L277,265L278,266L280,268L281,269L281,270L281,271L282,271Z " data-fips="MX22" data-hasc="MX.QE" data-name="Queretaro" data-postal="QT" data-varname=""/><path d="M388,316L389,315L390,314L391,313L392,312L391,311L391,310L391,309L390,308L389,308L388,307L387,306L386,306L385,306L385,304L384,304L383,303L383,302L383,301L383,300L382,299L382,298L382,298L381,298L378,299L377,299L376,299L374,299L373,297L372,295L370,293L369,293L367,293L366,292L365,291L364,290L362,290L361,290L359,290L357,290L356,290L355,290L356,290L357,291L356,290L353,290L352,290L354,290L352,289L352,288L353,289L354,289L353,289L352,288L352,287L351,286L351,285L349,284L349,284L348,282L347,282L346,280L345,280L345,278L345,277L344,276L343,274L343,273L342,271L341,270L340,268L339,267L338,265L337,264L336,264L335,262L334,262L333,261L332,260L330,258L330,256L329,255L328,253L327,250L326,248L325,247L324,244L324,243L323,243L321,240L321,238L320,237L320,235L320,234L319,233L321,236L322,238L323,239L324,240L325,241L326,242L326,243L325,244L325,245L326,246L326,245L327,244L327,242L326,241L325,240L324,239L322,237L319,232L319,229L318,230L317,230L317,229L316,228L315,228L314,228L313,227L312,226L311,226L311,227L309,227L308,227L307,227L306,227L305,227L306,228L308,229L309,229L309,230L310,231L309,232L309,234L308,235L307,235L306,235L307,235L306,236L307,237L308,238L308,239L307,239L306,240L306,241L306,242L307,243L307,244L307,245L308,246L308,247L308,248L309,249L310,249L311,248L311,249L313,249L313,250L314,251L313,252L312,253L312,254L311,255L310,254L309,255L309,256L308,256L309,256L309,258L308,259L308,260L307,261L307,262L308,263L309,263L310,262L311,262L312,261L312,260L313,259L314,258L315,257L316,258L316,259L316,260L317,260L317,259L317,258L317,257L318,256L318,255L320,255L320,256L320,257L321,258L321,259L322,259L323,259L324,260L323,262L322,261L321,262L320,263L320,264L320,265L321,265L322,266L323,266L324,267L325,266L325,265L326,264L327,265L328,265L330,266L331,267L330,268L330,269L329,270L328,270L328,272L328,273L327,275L327,276L327,277L328,278L327,279L328,279L329,279L330,280L331,281L332,281L333,281L333,282L333,283L331,283L330,283L329,284L329,285L329,286L330,287L330,288L329,289L329,290L328,291L329,292L330,292L331,292L332,293L332,294L332,295L333,295L334,295L335,294L337,294L337,295L338,296L340,295L340,294L340,293L339,292L341,293L342,293L343,294L344,294L344,296L345,297L346,298L347,299L347,300L348,300L349,301L350,300L351,300L352,300L353,301L354,301L354,302L354,304L353,305L353,306L353,307L353,308L354,310L355,311L356,312L357,311L358,311L359,311L359,310L360,309L361,309L362,308L363,308L364,307L364,308L364,309L364,310L365,312L366,312L367,313L368,314L368,315L369,316L370,316L371,316L373,316L374,316L375,316L376,316L379,316L382,316L384,316Z M322,238L321,237L321,237L321,238L322,238Z " data-fips="MX30" data-hasc="MX.VE" data-name="Veracruz" data-postal="VE" data-varname=""/><path d="M385,336L384,335L385,336L386,336Z M418,359L418,357L418,356L417,355L418,354L418,353L419,352L419,351L417,348L417,346L418,345L419,343L419,342L420,340L421,338L422,336L423,334L424,333L425,333L427,333L429,332L432,332L434,332L436,332L439,332L441,332L443,331L445,331L446,330L445,329L445,328L446,327L446,326L445,325L444,324L443,324L442,324L441,323L441,322L441,321L440,320L438,319L437,318L436,317L435,317L434,317L433,316L432,315L431,314L431,313L430,313L429,312L428,312L428,311L428,310L427,309L426,308L425,308L424,307L424,306L423,305L423,304L422,304L421,302L421,301L420,301L419,301L418,301L417,302L416,303L415,303L414,304L413,304L412,305L411,306L410,307L409,308L408,309L407,310L407,311L405,311L404,311L404,310L403,309L402,309L401,308L401,306L401,305L401,304L401,302L400,302L399,302L398,301L398,301L397,301L396,301L395,303L395,304L395,305L394,306L394,307L393,308L393,309L392,310L392,311L392,312L391,313L390,314L389,315L388,316L387,318L387,319L387,320L386,321L385,322L384,322L385,324L385,325L384,326L383,328L384,329L384,330L385,331L385,332L385,333L384,334L384,334L385,334L388,335L388,336L387,336L390,338L392,339L395,341L399,344L400,345L402,347L404,348L405,349L406,349L407,350L407,351L406,350L409,353L412,356L414,358L416,359L417,360Z " data-fips="MX05" data-hasc="MX.CP" data-name="Chiapas" data-postal="CS" data-varname=""/><path d="M469,296L471,295L471,294L472,293L472,292L473,291L473,290L474,289L474,288L474,286L475,286L477,286L478,286L479,285L479,283L479,282L479,281L479,282L479,281L480,281L481,280L482,279L482,280L482,282L482,283L482,284L482,285L483,286L484,286L485,287L485,288L485,289L486,290L486,289L486,287L487,286L487,285L487,284L487,282L487,281L488,280L488,277L488,275L489,274L489,272L489,271L490,270L489,270L488,271L488,272L487,271L487,270L488,268L489,268L490,268L491,267L490,265L489,265L490,265L489,266L487,266L487,267L486,266L485,265L485,264L487,264L487,263L487,262L488,261L489,261L489,259L489,258L490,259L490,260L489,261L490,260L490,259L489,258L489,256L489,254L490,253L490,252L492,249L493,248L494,247L495,245L496,243L497,242L498,241L498,239L498,238L498,237L499,236L498,235L497,233L497,232L497,231L496,231L495,231L494,229L493,229L492,229L490,230L489,230L488,231L489,231L490,230L491,230L492,230L491,231L490,232L488,232L486,232L485,232L485,232L486,236L485,237L485,238L486,240L486,241L486,243L486,244L485,246L485,247L484,247L482,249L481,250L480,251L478,251L477,251L476,252L475,253L475,254L475,254L474,254L474,255L472,256L471,257L470,258L469,258L468,259L467,260L465,261L463,262L462,262L461,263L459,264L458,264L458,266L458,267L459,268L460,269L461,269L463,271L465,273L465,274L465,275L465,276L465,278L464,279L465,280L464,283L464,284L465,286L466,287L466,289L466,291L466,292L466,293L465,295L465,296L465,296L467,295L468,296L468,297Z M498,251L498,250L499,249L499,248L500,247L499,247L498,247L497,247L496,248L496,250L496,251L497,252Z " data-fips="MX23" data-hasc="MX.QR" data-name="Quintana Roo" data-postal="QR" data-varname=""/><path d="M458,266L458,264L459,264L461,263L462,262L463,262L465,261L467,260L468,259L469,258L470,258L471,257L472,256L474,255L474,254L475,254L475,254L475,253L476,252L477,251L478,251L480,251L481,250L482,249L484,247L485,247L485,246L486,244L486,243L486,241L486,240L485,238L485,237L486,236L485,232L485,232L485,232L484,232L483,232L482,232L480,231L482,231L483,231L482,231L479,231L478,230L477,231L475,231L474,231L475,231L476,231L475,231L473,232L472,232L471,232L469,232L468,233L467,234L464,235L463,235L462,236L460,236L459,237L458,237L455,238L453,238L451,238L449,239L447,240L446,241L445,241L444,242L443,243L441,245L440,248L440,247L441,246L441,247L440,248L441,253L441,253L443,253L444,253L444,254L446,255L446,254L448,254L448,256L450,257L450,258L451,259L452,260L453,260L454,261L455,263L456,264L457,265L457,266L458,267Z " data-fips="MX31" data-hasc="MX.YU" data-name="Yucatan" data-postal="YU" data-varname=""/></g></svg>